<svg width="360" height="271" viewBox="0 0 360 271" fill="none" xmlns="http://www.w3.org/2000/svg">
<path d="M292 120.151C292 120.151 291.936 120.666 291.807 120.923C291.807 121.18 291.678 121.373 291.55 121.631V121.759C291.421 122.081 291.228 122.402 291.036 122.724C290.907 122.981 290.714 123.303 290.521 123.56C290.393 123.817 290.2 124.01 290.007 124.267C289.75 124.589 289.557 124.911 289.3 125.296C288.785 125.875 288.271 126.583 287.628 127.226C287.242 127.612 286.856 128.062 286.406 128.512C283.835 131.085 280.813 133.593 278.113 135.972C276.955 136.937 275.862 137.902 274.898 138.802C266.732 146.262 264.804 142.661 255.674 147.42C246.544 152.243 248.923 158.739 250.595 167.357C252.266 175.975 248.923 175.975 240.822 182.47C232.721 188.966 235.228 192.31 241.722 202.407C248.216 212.505 235.743 216.106 243.394 225.431C251.045 234.821 254.645 220.865 264.032 220.865C273.419 220.865 266.475 224.467 263.775 229.483C261.139 234.564 261.653 234.564 264.739 244.725C267.247 252.893 259.339 265.369 256.124 270C245.837 263.183 240.372 252.764 234.521 257.33C228.028 262.347 226.356 265.498 217.483 265.241C208.611 264.984 203.789 263.247 192.73 256.173C181.672 249.098 168.491 240.03 163.669 247.426C158.847 254.887 156.404 280.097 135.573 255.916C138.788 251.671 142.71 247.812 146.31 242.667C152.096 234.306 149.525 231.477 148.882 222.151C148.239 212.89 141.488 215.72 133.194 211.604C124.9 207.424 130.622 203.243 134.48 194.304C137.052 188.259 132.165 187.037 124.771 186.715C124.257 178.74 141.359 162.598 149.975 142.854C158.59 123.174 127.665 112.82 120.657 105.167C113.713 97.5134 122.778 87.8664 112.491 82.1426C102.204 76.3545 94.9391 84.3293 81.0517 89.1528C67.0999 93.9762 68.6429 87.5449 68 87.8022C74.9437 85.3583 81.8232 82.5928 88.1883 80.0847C100.147 75.4541 110.37 67.4794 122.264 62.5916C132.873 58.2826 149.075 53.8451 145.988 39.1818C145.603 37.4453 145.088 35.7089 144.381 33.9725C152.675 33.265 160.005 38.603 167.013 40.7896C174.728 43.2335 185.529 32.6218 193.437 29.2776C201.346 25.9333 193.887 53.7807 191.509 60.5335C189.065 67.2221 204.432 73.4605 212.404 73.2675C220.312 73.0103 224.62 78.2839 235.678 85.0368C246.737 91.7253 249.373 88.1881 258.246 93.6546C267.118 99.1855 276.505 109.025 288.014 114.299C289.364 114.878 290.264 115.585 290.907 116.357C291.036 116.486 291.1 116.614 291.164 116.743C291.293 116.871 291.357 117 291.421 117.129C291.55 117.322 291.614 117.579 291.679 117.772C291.743 117.965 291.807 118.222 291.871 118.415C291.936 118.865 291.936 119.38 291.871 119.894L292 120.151Z" fill="url(#paint0_linear_360_11576)" stroke="#FAF9F9" stroke-miterlimit="10"/>
<path d="M175 130L175 19" stroke="#841811" stroke-linecap="round"/>
<path d="M148.066 15C148.066 15 148.066 11.5524 148.066 4.65723C148.066 4.65723 148.602 4.65723 149.673 4.65723C149.673 4.65723 150.928 7.59212 153.439 13.4619C153.439 13.4619 154.69 10.527 157.192 4.65723C157.192 4.65723 157.728 4.65723 158.799 4.65723C158.799 4.65723 158.799 8.10482 158.799 15C158.799 15 158.455 15 157.767 15C157.767 15 157.767 11.9284 157.767 5.78516C157.767 5.78516 156.47 8.85677 153.877 15C153.877 15 153.576 15 152.975 15C152.975 15 151.683 11.9284 149.099 5.78516C149.099 5.78516 149.099 8.85677 149.099 15C149.099 15 148.755 15 148.066 15ZM164.623 7.15918C165.366 7.15918 166.036 7.33464 166.633 7.68555C167.234 8.0319 167.704 8.5127 168.041 9.12793C168.383 9.74316 168.554 10.4313 168.554 11.1924C168.554 12.3408 168.185 13.2933 167.446 14.0498C166.708 14.8063 165.776 15.1846 164.65 15.1846C163.88 15.1846 163.183 15.0114 162.559 14.665C161.934 14.3187 161.444 13.8402 161.089 13.2295C160.738 12.6188 160.562 11.9352 160.562 11.1787C160.562 10.0166 160.945 9.05729 161.711 8.30078C162.477 7.53971 163.447 7.15918 164.623 7.15918ZM164.541 8.10938C163.702 8.10938 163.005 8.40332 162.449 8.99121C161.893 9.57454 161.615 10.3083 161.615 11.1924C161.615 12.0674 161.9 12.792 162.47 13.3662C163.039 13.9404 163.757 14.2275 164.623 14.2275C165.466 14.2275 166.157 13.945 166.694 13.3799C167.237 12.8102 167.508 12.0856 167.508 11.2061C167.508 10.3037 167.23 9.56315 166.674 8.98438C166.118 8.40104 165.407 8.10938 164.541 8.10938ZM176.483 12.7441C176.483 12.7441 176.875 12.7441 177.659 12.7441C177.44 13.1589 177.24 13.4847 177.058 13.7217C176.875 13.9541 176.657 14.166 176.401 14.3574C175.7 14.9089 174.868 15.1846 173.906 15.1846C173.132 15.1846 172.425 15.0091 171.787 14.6582C171.149 14.3027 170.648 13.8174 170.283 13.2021C169.919 12.5824 169.736 11.8988 169.736 11.1514C169.736 10.4176 169.916 9.74544 170.276 9.13477C170.641 8.52409 171.138 8.04329 171.767 7.69238C172.396 7.33691 173.086 7.15918 173.838 7.15918C174.704 7.15918 175.476 7.38477 176.155 7.83594C176.839 8.28711 177.336 8.89779 177.646 9.66797H176.483C176.187 9.16667 175.811 8.78158 175.355 8.5127C174.9 8.24382 174.389 8.10938 173.824 8.10938C172.972 8.10938 172.252 8.4056 171.664 8.99805C171.081 9.59049 170.789 10.3174 170.789 11.1787C170.789 12.0309 171.085 12.7533 171.678 13.3457C172.275 13.9336 173.004 14.2275 173.865 14.2275C174.412 14.2275 174.884 14.1136 175.28 13.8857C175.681 13.6579 176.082 13.2773 176.483 12.7441ZM179.095 7.34375C179.095 7.34375 179.441 7.34375 180.134 7.34375C180.134 7.34375 180.134 8.48079 180.134 10.7549C180.134 10.7549 181.3 9.61784 183.634 7.34375C183.634 7.34375 184.08 7.34375 184.974 7.34375C184.974 7.34375 183.7 8.57878 181.152 11.0488C181.152 11.0488 182.426 12.3659 184.974 15C184.974 15 184.522 15 183.62 15C183.62 15 182.458 13.7969 180.134 11.3906C180.134 11.3906 180.134 12.5938 180.134 15C180.134 15 179.787 15 179.095 15C179.095 15 179.095 12.4479 179.095 7.34375ZM186.97 11.4453C186.97 11.4453 186.97 12.318 186.97 14.0635C186.97 14.0635 187.626 14.0635 188.938 14.0635C189.34 14.0635 189.688 14.0202 189.984 13.9336C190.281 13.847 190.52 13.7012 190.702 13.4961C190.889 13.291 190.982 13.0312 190.982 12.7168C190.982 11.8691 190.301 11.4453 188.938 11.4453H186.97ZM191.646 9.36035C191.646 9.72949 191.534 10.0485 191.311 10.3174C191.092 10.5863 190.857 10.7754 190.606 10.8848C191.559 11.2311 192.035 11.8418 192.035 12.7168C192.035 13.373 191.771 13.9176 191.242 14.3506C190.718 14.7835 190.039 15 189.205 15H185.931V7.34375H189C189.82 7.34375 190.465 7.52148 190.935 7.87695C191.409 8.22786 191.646 8.72233 191.646 9.36035ZM190.647 9.36035C190.647 8.6403 190.041 8.28027 188.829 8.28027H186.97C186.97 8.28027 186.97 9.02311 186.97 10.5088C186.97 10.5088 187.59 10.5088 188.829 10.5088C189.39 10.5088 189.832 10.4131 190.155 10.2217C190.483 10.0303 190.647 9.74316 190.647 9.36035ZM201.223 7.34375C201.223 7.34375 201.223 9.89583 201.223 15C201.223 15 200.876 15 200.184 15C200.184 15 200.184 14.5511 200.184 13.6533C199.778 14.2002 199.347 14.5921 198.892 14.8291C198.44 15.0661 197.891 15.1846 197.244 15.1846C196.465 15.1846 195.761 15.0137 195.132 14.6719C194.507 14.3255 194.018 13.8493 193.662 13.2432C193.307 12.6325 193.129 11.9489 193.129 11.1924C193.129 10.4359 193.304 9.75 193.655 9.13477C194.006 8.51953 194.489 8.03646 195.104 7.68555C195.72 7.33464 196.406 7.15918 197.162 7.15918C197.832 7.15918 198.406 7.28223 198.885 7.52832C199.368 7.76986 199.801 8.15951 200.184 8.69727V7.34375H201.223ZM197.148 8.10938C196.328 8.10938 195.629 8.4056 195.05 8.99805C194.471 9.59049 194.182 10.3083 194.182 11.1514C194.182 12.0127 194.478 12.7419 195.07 13.3389C195.663 13.9313 196.383 14.2275 197.23 14.2275C198.064 14.2275 198.764 13.9336 199.329 13.3457C199.899 12.7533 200.184 12.0218 200.184 11.1514C200.184 10.2809 199.894 9.55632 199.315 8.97754C198.737 8.39876 198.014 8.10938 197.148 8.10938Z" fill="#444444"/>
<circle cx="175" cy="130" r="10" fill="url(#paint1_linear_360_11576)"/>
<defs>
<linearGradient id="paint0_linear_360_11576" x1="219.55" y1="219.084" x2="-8.93075" y2="-11.6058" gradientUnits="userSpaceOnUse">
<stop stop-color="#C6BBBA"/>
<stop offset="1" stop-color="#C6BBBA" stop-opacity="0"/>
</linearGradient>
<linearGradient id="paint1_linear_360_11576" x1="175" y1="120" x2="175" y2="140" gradientUnits="userSpaceOnUse">
<stop stop-color="#ED213A"/>
<stop offset="1" stop-color="#93291E"/>
</linearGradient>
</defs>
</svg>
