<svg width="322" height="358" viewBox="0 0 322 358" fill="none" xmlns="http://www.w3.org/2000/svg">
<path d="M320.841 72.3717C319.59 80.6158 316.167 89.3876 308.334 93.4107C301.357 96.9722 295.367 97.1701 290.496 104.227C283.255 114.846 284.308 128.828 278.516 140.106C274.961 147.031 269.564 155.341 263.376 160.089C255.872 165.827 247.776 162.925 239.284 161.54C224.342 159.034 207.689 170.971 209.268 187.658C210.058 195.704 215.719 202.299 215.983 210.543C216.312 220.304 210.914 227.493 206.043 235.342C201.764 242.201 199.658 249.587 203.608 257.238C207.425 264.559 215.917 265.548 220.261 271.879C223.026 275.902 222.433 280.783 221.709 285.532C221.051 290.016 220.459 294.435 222.565 297.865C226.909 304.856 238.034 295.227 244.353 297.865C258.571 303.735 225.461 334.073 217.891 337.437C210.585 340.668 202.554 339.745 195.116 342.383C186.164 345.615 178.463 355.508 169.05 356.893C161.875 358.014 157.267 350.034 151.211 347.132C142.983 343.241 136.467 344.032 135.874 333.282C135.545 327.873 136.203 322.399 135.743 316.925C135.479 314.155 135.15 310.924 133.636 308.483C132.254 306.241 130.148 306.241 127.778 305.581C124.355 304.592 117.575 301.756 114.284 304.724C114.086 304.922 113.955 305.12 113.823 305.318C111.717 296.744 114.613 290.214 113.494 282.894C111.848 272.341 99.0784 279.992 95.1289 280.058C91.1795 280.058 86.9008 279.662 82.0298 282.3C77.093 284.938 70.2473 278.343 65.3105 277.354C60.3736 276.364 54.7785 280.453 54.7785 280.453C54.7127 279.794 54.5811 279.134 54.3836 278.475C52.8696 273.33 48.3936 271.945 44.2466 269.175C40.6921 266.801 37.3351 263.042 34.6363 259.282C33.978 258.359 33.3198 257.37 32.7274 256.446C27.8564 248.73 34.3072 249.851 38.125 244.311C40.8238 240.42 42.2719 233.429 42.8643 228.812C34.8338 223.404 24.3018 217.073 21.6689 207.048C19.1017 197.353 24.9601 187.658 29.0412 179.282C33.254 170.642 38.1908 160.815 35.492 150.988C32.9907 141.82 24.8284 135.95 17.7194 130.476C11.137 125.332 4.94946 120.254 2.97473 111.746C0.868346 102.314 2.64561 92.4214 1 82.8582C3.10638 84.6389 4.81781 87.475 6.26595 89.3216C8.70145 92.4214 10.1496 92.2896 13.77 93.4767C20.9448 95.9829 25.4209 109.239 33.3856 99.0167C37.9933 93.1469 35.3603 84.1773 31.0818 78.967C24.3018 70.7229 10.6104 64.3913 10.6104 52.1241C10.6104 41.7035 22.6562 33.6573 32.1349 37.3507C38.2566 39.7909 42.2061 45.5948 48.1303 48.2989C53.0013 50.5413 58.1356 49.6179 63.3357 49.2882C76.369 48.4308 79.9893 53.4433 87.4274 63.4022C89.9946 66.8977 93.0883 73.0972 97.1036 75.0758C102.765 77.9118 105.727 73.2291 109.413 69.5358C114.218 64.7212 115.6 65.051 121.064 68.7444C125.276 71.5803 129.094 74.9439 131.596 68.8762C133.768 63.534 131.069 57.4003 134.229 51.9262C136.796 47.5074 141.535 44.5396 144.563 40.4505C147.328 36.8231 149.566 30.8873 154.832 30.5575C160.822 30.2278 163.191 37.0211 167.865 39.1315C176.554 43.0228 178.726 30.5575 183.597 26.0068C191.43 18.7519 200.909 13.3439 209.532 7.14432C211.901 5.42955 213.679 3.78073 214.995 2C221.051 6.4848 227.765 9.91421 234.216 13.8054C241.193 18.0264 247.71 23.5665 255.28 26.7982C275.949 35.6359 296.552 19.8733 316.957 16.6416C317.22 16.6416 321.697 67.2934 320.907 72.2399L320.841 72.3717Z" fill="url(#paint0_linear_360_11569)" stroke="#FAF9F9" stroke-miterlimit="10"/>
<circle cx="51" cy="107" r="10" fill="url(#paint1_linear_360_11569)"/>
<path d="M51 97V10H78" stroke="#841811" stroke-linecap="round"/>
<path d="M84.0664 14C84.0664 14 84.0664 10.5524 84.0664 3.65723C84.0664 3.65723 85.0166 3.65723 86.917 3.65723C87.5869 3.65723 88.1338 3.69824 88.5576 3.78027C88.986 3.8623 89.3597 4.0013 89.6787 4.19727C90.0706 4.42969 90.3737 4.77148 90.5879 5.22266C90.8021 5.66927 90.9092 6.19108 90.9092 6.78809C90.9092 7.30762 90.8203 7.77246 90.6426 8.18262C90.4648 8.59277 90.2096 8.9209 89.877 9.16699C89.5625 9.39941 89.1934 9.56576 88.7695 9.66602C88.3457 9.76628 87.7852 9.81641 87.0879 9.81641H85.0986V14H84.0664ZM85.0986 8.87305H87.0195C87.9492 8.87305 88.6123 8.75684 89.0088 8.52441C89.2822 8.37858 89.4919 8.15299 89.6377 7.84766C89.7881 7.54232 89.8633 7.18457 89.8633 6.77441C89.8633 6.26855 89.763 5.84701 89.5625 5.50977C89.362 5.16797 89.0749 4.93783 88.7012 4.81934C88.2546 4.66895 87.5436 4.59375 86.5684 4.59375H85.0986V8.87305ZM95.7012 6.15918C96.444 6.15918 97.1139 6.33464 97.7109 6.68555C98.3125 7.0319 98.7819 7.5127 99.1191 8.12793C99.4609 8.74316 99.6318 9.43132 99.6318 10.1924C99.6318 11.3408 99.2627 12.2933 98.5244 13.0498C97.7861 13.8063 96.8542 14.1846 95.7285 14.1846C94.9583 14.1846 94.2611 14.0114 93.6367 13.665C93.0124 13.3187 92.5225 12.8402 92.167 12.2295C91.8161 11.6188 91.6406 10.9352 91.6406 10.1787C91.6406 9.0166 92.0234 8.05729 92.7891 7.30078C93.5547 6.53971 94.5254 6.15918 95.7012 6.15918ZM95.6191 7.10938C94.7806 7.10938 94.0833 7.40332 93.5273 7.99121C92.9714 8.57454 92.6934 9.30827 92.6934 10.1924C92.6934 11.0674 92.9782 11.792 93.5479 12.3662C94.1175 12.9404 94.8353 13.2275 95.7012 13.2275C96.5443 13.2275 97.2347 12.945 97.7725 12.3799C98.3148 11.8102 98.5859 11.0856 98.5859 10.2061C98.5859 9.30371 98.3079 8.56315 97.752 7.98438C97.196 7.40104 96.485 7.10938 95.6191 7.10938ZM107.562 11.7441C107.562 11.7441 107.953 11.7441 108.737 11.7441C108.519 12.1589 108.318 12.4847 108.136 12.7217C107.953 12.9541 107.735 13.166 107.479 13.3574C106.778 13.9089 105.946 14.1846 104.984 14.1846C104.21 14.1846 103.503 14.0091 102.865 13.6582C102.227 13.3027 101.726 12.8174 101.361 12.2021C100.997 11.5824 100.814 10.8988 100.814 10.1514C100.814 9.41764 100.994 8.74544 101.354 8.13477C101.719 7.52409 102.216 7.04329 102.845 6.69238C103.474 6.33691 104.164 6.15918 104.916 6.15918C105.782 6.15918 106.554 6.38477 107.233 6.83594C107.917 7.28711 108.414 7.89779 108.724 8.66797H107.562C107.265 8.16667 106.889 7.78158 106.434 7.5127C105.978 7.24382 105.467 7.10938 104.902 7.10938C104.05 7.10938 103.33 7.4056 102.742 7.99805C102.159 8.59049 101.867 9.31738 101.867 10.1787C101.867 11.0309 102.163 11.7533 102.756 12.3457C103.353 12.9336 104.082 13.2275 104.943 13.2275C105.49 13.2275 105.962 13.1136 106.358 12.8857C106.759 12.6579 107.16 12.2773 107.562 11.7441ZM114.24 7.28027C114.24 7.28027 113.577 7.28027 112.251 7.28027C112.251 7.28027 112.251 9.52018 112.251 14C112.251 14 111.905 14 111.212 14C111.212 14 111.212 11.7601 111.212 7.28027C111.212 7.28027 110.542 7.28027 109.202 7.28027C109.202 7.28027 109.202 6.9681 109.202 6.34375C109.202 6.34375 110.882 6.34375 114.24 6.34375C114.24 6.34375 114.24 6.65592 114.24 7.28027ZM118.738 6.15918C119.481 6.15918 120.151 6.33464 120.748 6.68555C121.35 7.0319 121.819 7.5127 122.156 8.12793C122.498 8.74316 122.669 9.43132 122.669 10.1924C122.669 11.3408 122.3 12.2933 121.562 13.0498C120.823 13.8063 119.891 14.1846 118.766 14.1846C117.995 14.1846 117.298 14.0114 116.674 13.665C116.049 13.3187 115.56 12.8402 115.204 12.2295C114.853 11.6188 114.678 10.9352 114.678 10.1787C114.678 9.0166 115.061 8.05729 115.826 7.30078C116.592 6.53971 117.562 6.15918 118.738 6.15918ZM118.656 7.10938C117.818 7.10938 117.12 7.40332 116.564 7.99121C116.008 8.57454 115.73 9.30827 115.73 10.1924C115.73 11.0674 116.015 11.792 116.585 12.3662C117.155 12.9404 117.872 13.2275 118.738 13.2275C119.581 13.2275 120.272 12.945 120.81 12.3799C121.352 11.8102 121.623 11.0856 121.623 10.2061C121.623 9.30371 121.345 8.56315 120.789 7.98438C120.233 7.40104 119.522 7.10938 118.656 7.10938ZM125.185 10.4453C125.185 10.4453 125.185 11.318 125.185 13.0635C125.185 13.0635 125.841 13.0635 127.153 13.0635C127.554 13.0635 127.903 13.0202 128.199 12.9336C128.495 12.847 128.735 12.7012 128.917 12.4961C129.104 12.291 129.197 12.0312 129.197 11.7168C129.197 10.8691 128.516 10.4453 127.153 10.4453H125.185ZM129.86 8.36035C129.86 8.72949 129.749 9.0485 129.525 9.31738C129.307 9.58626 129.072 9.77539 128.821 9.88477C129.774 10.2311 130.25 10.8418 130.25 11.7168C130.25 12.373 129.986 12.9176 129.457 13.3506C128.933 13.7835 128.254 14 127.42 14H124.146V6.34375H127.215C128.035 6.34375 128.68 6.52148 129.149 6.87695C129.623 7.22786 129.86 7.72233 129.86 8.36035ZM128.862 8.36035C128.862 7.6403 128.256 7.28027 127.044 7.28027H125.185C125.185 7.28027 125.185 8.02311 125.185 9.50879C125.185 9.50879 125.804 9.50879 127.044 9.50879C127.604 9.50879 128.047 9.41309 128.37 9.22168C128.698 9.03027 128.862 8.74316 128.862 8.36035ZM131.187 9.85742C131.187 9.85742 132.451 9.85742 134.98 9.85742C134.98 9.85742 134.98 10.1514 134.98 10.7393C134.98 10.7393 133.716 10.7393 131.187 10.7393C131.187 10.7393 131.187 10.4453 131.187 9.85742ZM142.951 14C142.951 14 142.605 14 141.912 14C141.912 14 141.912 12.8561 141.912 10.5684C141.912 10.5684 140.383 10.5684 137.325 10.5684C137.325 10.5684 137.325 11.7122 137.325 14C137.325 14 136.979 14 136.286 14C136.286 14 136.286 11.4479 136.286 6.34375C136.286 6.34375 136.632 6.34375 137.325 6.34375C137.325 6.34375 137.325 7.43978 137.325 9.63184C137.325 9.63184 138.854 9.63184 141.912 9.63184C141.912 9.63184 141.912 8.53581 141.912 6.34375C141.912 6.34375 142.258 6.34375 142.951 6.34375C142.951 6.34375 142.951 8.89583 142.951 14ZM152.508 6.34375C152.508 6.34375 152.508 8.89583 152.508 14C152.508 14 152.161 14 151.469 14C151.469 14 151.469 13.5511 151.469 12.6533C151.063 13.2002 150.632 13.5921 150.177 13.8291C149.726 14.0661 149.176 14.1846 148.529 14.1846C147.75 14.1846 147.046 14.0137 146.417 13.6719C145.793 13.3255 145.303 12.8493 144.947 12.2432C144.592 11.6325 144.414 10.9489 144.414 10.1924C144.414 9.43587 144.59 8.75 144.94 8.13477C145.291 7.51953 145.774 7.03646 146.39 6.68555C147.005 6.33464 147.691 6.15918 148.447 6.15918C149.117 6.15918 149.691 6.28223 150.17 6.52832C150.653 6.76986 151.086 7.15951 151.469 7.69727V6.34375H152.508ZM148.434 7.10938C147.613 7.10938 146.914 7.4056 146.335 7.99805C145.756 8.59049 145.467 9.30827 145.467 10.1514C145.467 11.0127 145.763 11.7419 146.355 12.3389C146.948 12.9313 147.668 13.2275 148.516 13.2275C149.35 13.2275 150.049 12.9336 150.614 12.3457C151.184 11.7533 151.469 11.0218 151.469 10.1514C151.469 9.28092 151.179 8.55632 150.601 7.97754C150.022 7.39876 149.299 7.10938 148.434 7.10938ZM153.813 9.85742C153.813 9.85742 155.078 9.85742 157.607 9.85742C157.607 9.85742 157.607 10.1514 157.607 10.7393C157.607 10.7393 156.343 10.7393 153.813 10.7393C153.813 10.7393 153.813 10.4453 153.813 9.85742ZM160.451 13.0635C160.451 13.0635 162.794 13.0635 167.479 13.0635C167.479 13.0635 166.307 10.32 163.965 4.83301C163.965 4.83301 162.794 7.5765 160.451 13.0635ZM169.652 13.0635C169.652 13.0635 169.652 14.0114 169.652 15.9072C169.652 15.9072 169.409 15.9072 168.921 15.9072C168.921 15.9072 168.791 15.2715 168.531 14C168.531 14 165.489 14 159.405 14C159.405 14 159.273 14.6357 159.009 15.9072C159.009 15.9072 158.767 15.9072 158.284 15.9072C158.284 15.9072 158.284 14.9593 158.284 13.0635C158.284 13.0635 158.64 13.0635 159.351 13.0635C159.351 13.0635 160.693 9.92806 163.377 3.65723C163.377 3.65723 163.769 3.65723 164.553 3.65723C164.553 3.65723 165.897 6.79264 168.586 13.0635C168.586 13.0635 168.941 13.0635 169.652 13.0635ZM173.85 6.15918C174.592 6.15918 175.262 6.33464 175.859 6.68555C176.461 7.0319 176.93 7.5127 177.268 8.12793C177.609 8.74316 177.78 9.43132 177.78 10.1924C177.78 11.3408 177.411 12.2933 176.673 13.0498C175.935 13.8063 175.003 14.1846 173.877 14.1846C173.107 14.1846 172.41 14.0114 171.785 13.665C171.161 13.3187 170.671 12.8402 170.315 12.2295C169.965 11.6188 169.789 10.9352 169.789 10.1787C169.789 9.0166 170.172 8.05729 170.938 7.30078C171.703 6.53971 172.674 6.15918 173.85 6.15918ZM173.768 7.10938C172.929 7.10938 172.232 7.40332 171.676 7.99121C171.12 8.57454 170.842 9.30827 170.842 10.1924C170.842 11.0674 171.127 11.792 171.696 12.3662C172.266 12.9404 172.984 13.2275 173.85 13.2275C174.693 13.2275 175.383 12.945 175.921 12.3799C176.463 11.8102 176.734 11.0856 176.734 10.2061C176.734 9.30371 176.456 8.56315 175.9 7.98438C175.344 7.40104 174.633 7.10938 173.768 7.10938ZM185.922 14C185.922 14 185.576 14 184.883 14C184.883 14 184.883 12.8561 184.883 10.5684C184.883 10.5684 183.354 10.5684 180.296 10.5684C180.296 10.5684 180.296 11.7122 180.296 14C180.296 14 179.95 14 179.257 14C179.257 14 179.257 11.4479 179.257 6.34375C179.257 6.34375 179.603 6.34375 180.296 6.34375C180.296 6.34375 180.296 7.43978 180.296 9.63184C180.296 9.63184 181.825 9.63184 184.883 9.63184C184.883 9.63184 184.883 8.53581 184.883 6.34375C184.883 6.34375 185.229 6.34375 185.922 6.34375C185.922 6.34375 185.922 8.89583 185.922 14ZM188.711 16.6865C188.711 16.6865 189.128 15.7067 189.962 13.7471C189.962 13.7471 188.971 11.2793 186.988 6.34375C186.988 6.34375 187.367 6.34375 188.123 6.34375C188.123 6.34375 188.932 8.37858 190.55 12.4482C190.55 12.4482 191.413 10.4134 193.141 6.34375C193.141 6.34375 193.507 6.34375 194.241 6.34375C194.241 6.34375 192.767 9.79134 189.818 16.6865C189.818 16.6865 189.449 16.6865 188.711 16.6865Z" fill="#444444"/>
<defs>
<linearGradient id="paint0_linear_360_11569" x1="217.5" y1="282" x2="-119" y2="-47.5" gradientUnits="userSpaceOnUse">
<stop stop-color="#C6BBBA"/>
<stop offset="1" stop-color="#C6BBBA" stop-opacity="0"/>
</linearGradient>
<linearGradient id="paint1_linear_360_11569" x1="51" y1="97" x2="51" y2="117" gradientUnits="userSpaceOnUse">
<stop stop-color="#ED213A"/>
<stop offset="1" stop-color="#93291E"/>
</linearGradient>
</defs>
</svg>
