<svg width="360" height="345" viewBox="0 0 360 345" fill="none" xmlns="http://www.w3.org/2000/svg">
<path d="M345.897 267.925C338.099 267.796 336.682 255.355 335.006 248.779C334.168 245.491 333.008 240.592 328.948 240.141C325.468 239.689 322.761 243.106 322.117 246.136C320.57 253.227 326.821 259.287 330.688 265.282C326.563 263.413 322.568 262.317 320.248 263.348C315.092 265.605 300.978 258.836 299.045 264.96C297.112 271.084 300.012 280.045 287.187 277.466C274.362 274.888 257.348 278.433 253.159 285.847C248.97 293.261 237.112 315.05 239.368 323.109C241.624 331.167 242.59 340.128 236.79 334.648C230.99 329.168 222.354 324.076 219.776 329.491C217.199 334.97 213.332 348.766 206.307 342.319C199.218 335.873 198.96 325.945 191.871 328.524C185.878 330.716 180.335 336.131 177.242 332.198C177.242 332.198 177.178 332.134 177.113 332.069C176.598 331.425 176.211 330.458 175.824 329.233C173.246 320.272 166.479 321.819 169.122 308.668C171.7 295.517 175.18 292.938 166.866 283.655C158.553 274.372 152.752 272.76 153.719 265.992C154.686 259.223 151.464 248.328 145.341 248.005C139.283 247.683 132.194 248.005 134.127 237.111C136.061 226.216 133.161 196.368 128.972 197.657C124.783 198.947 96.8777 212.742 97.8444 201.525C98.8111 190.308 104.611 178.769 90.4331 182.959C76.3194 187.085 71.8082 191.275 67.3614 187.085C62.8502 182.959 53.8922 181.605 49.7032 181.605C45.9009 181.605 17.0934 177.286 14.7089 169.743C14.4511 169.034 14.4511 168.325 14.7089 167.552C17.9312 158.591 21.1536 156.334 19.2202 150.21C17.2868 144.086 16.6423 145.375 21.798 138.348C26.9537 131.322 28.5648 126.487 25.987 121.007C23.6669 116.108 17.5445 99.7331 14 85.7439C15.0956 85.1637 16.1268 84.2612 17.0935 82.843C20.9602 77.4278 20.8313 74.5268 28.9515 75.0425C35.0739 75.4293 39.4562 76.2674 41.0029 82.5206C42.4207 88.1292 42.8719 96.1229 51.4433 94.5758C58.339 93.3509 56.0833 84.9703 56.1478 79.6196C56.3411 63.5676 68.3925 64.4056 81.0884 64.2767C80.9595 70.5943 82.2485 71.8837 88.3064 71.8837C93.2688 71.8837 97.3933 71.8192 100.938 74.5913C100.616 85.2282 103.451 87.5489 113.118 89.7408C122.141 91.8037 128.65 96.7677 129.681 106.438C130.325 112.626 126.265 123.843 133.741 127.196C141.99 130.87 150.11 121.071 151.592 114.109C153.01 107.34 151.915 98.4437 148.37 92.4484C145.148 87.0977 137.221 84.0033 136.254 77.5567C135.739 74.5268 137.285 71.1745 137.221 68.0801C137.092 64.0188 135.288 61.1823 134.063 57.4433C131.356 48.9337 140.765 50.6098 147.532 48.7403C170.088 42.4226 139.67 32.5593 132.452 27.0797C143.601 26.5639 155.201 28.6913 166.415 29.4649C176.662 30.1741 185.749 34.7511 195.674 36.6851C203.6 38.2323 211.85 38.9414 220.099 39.715C218.874 47.8378 218.552 61.4401 226.414 73.1085C225.254 73.6887 224.288 74.5268 223.643 75.6228C220.743 80.7801 224.996 89.2251 224.481 94.8981C224.094 99.1529 222.096 102.827 219.003 105.664C213.461 110.757 205.856 112.949 199.669 117.139C195.48 119.911 196.705 121.394 196.64 125.842C196.64 130.355 194.513 134.223 191.033 136.93C186.329 140.54 182.655 146.987 179.175 151.757C176.533 155.432 170.217 163.426 173.955 168.132C177.371 172.451 186.329 171.033 191.098 171.806C207.338 174.449 197.027 192.822 208.498 199.269C213.783 202.234 220.679 200.042 226.092 198.624C229.701 197.657 232.923 197.27 236.468 197.335C236.919 200.171 237.757 202.041 238.917 202.75C249.164 208.874 264.566 221.703 264.244 206.618C263.922 191.533 265.855 180.961 272.235 184.442C278.68 187.987 289.894 213 294.34 202.428C298.852 191.855 298.207 168.712 304.91 179.671C311.676 190.566 306.521 209.841 318.701 216.868C330.881 223.959 344.673 227.183 345.317 240.656C345.768 249.23 346.413 261.285 345.64 267.99L345.897 267.925Z" fill="url(#paint0_linear_360_11577)" stroke="#FAF9F9" stroke-miterlimit="10"/>
<circle cx="53" cy="88" r="10" fill="url(#paint1_linear_360_11577)"/>
<path d="M53 78V9H80" stroke="#841811" stroke-linecap="round"/>
<path d="M93.6318 12.2861C93.6318 12.2861 94.0146 12.2861 94.7803 12.2861C93.7367 14.2184 92.1598 15.1846 90.0498 15.1846C89.2887 15.1846 88.571 15.0479 87.8965 14.7744C87.222 14.501 86.6455 14.1296 86.167 13.6602C85.6885 13.1862 85.3102 12.6211 85.0322 11.9648C84.7542 11.304 84.6152 10.6022 84.6152 9.85938C84.6152 8.8431 84.8454 7.9248 85.3057 7.10449C85.7705 6.27962 86.4108 5.63477 87.2266 5.16992C88.0469 4.70508 88.9629 4.47266 89.9746 4.47266C91.0456 4.47266 92.0072 4.73014 92.8594 5.24512C93.7116 5.75553 94.3382 6.45508 94.7393 7.34375H93.5771C93.3766 7.02018 93.1898 6.76725 93.0166 6.58496C92.8434 6.40267 92.6338 6.23405 92.3877 6.0791C91.695 5.6416 90.9066 5.42285 90.0225 5.42285C89.4118 5.42285 88.8376 5.53678 88.2998 5.76465C87.762 5.98796 87.2995 6.29557 86.9121 6.6875C86.5293 7.07487 86.2262 7.53971 86.0029 8.08203C85.7796 8.62435 85.668 9.20312 85.668 9.81836C85.668 10.4154 85.7819 10.9873 86.0098 11.5342C86.2422 12.0765 86.5544 12.5459 86.9463 12.9424C87.3382 13.3343 87.8031 13.6465 88.3408 13.8789C88.8786 14.1113 89.4437 14.2275 90.0361 14.2275C90.5192 14.2275 90.9863 14.1501 91.4375 13.9951C91.8932 13.8402 92.2988 13.6191 92.6543 13.332C92.987 13.054 93.3128 12.7054 93.6318 12.2861ZM104.07 7.34375C104.07 7.34375 104.07 9.89583 104.07 15C104.07 15 103.724 15 103.031 15C103.031 15 103.031 14.5511 103.031 13.6533C102.626 14.2002 102.195 14.5921 101.739 14.8291C101.288 15.0661 100.739 15.1846 100.092 15.1846C99.3125 15.1846 98.6084 15.0137 97.9795 14.6719C97.3551 14.3255 96.8652 13.8493 96.5098 13.2432C96.1543 12.6325 95.9766 11.9489 95.9766 11.1924C95.9766 10.4359 96.152 9.75 96.5029 9.13477C96.8538 8.51953 97.3369 8.03646 97.9521 7.68555C98.5674 7.33464 99.2533 7.15918 100.01 7.15918C100.68 7.15918 101.254 7.28223 101.732 7.52832C102.215 7.76986 102.648 8.15951 103.031 8.69727V7.34375H104.07ZM99.9961 8.10938C99.1758 8.10938 98.4762 8.4056 97.8975 8.99805C97.3187 9.59049 97.0293 10.3083 97.0293 11.1514C97.0293 12.0127 97.3255 12.7419 97.918 13.3389C98.5104 13.9313 99.2305 14.2275 100.078 14.2275C100.912 14.2275 101.612 13.9336 102.177 13.3457C102.746 12.7533 103.031 12.0218 103.031 11.1514C103.031 10.2809 102.742 9.55632 102.163 8.97754C101.584 8.39876 100.862 8.10938 99.9961 8.10938ZM112.492 15C112.492 15 112.146 15 111.453 15C111.453 15 111.453 13.8561 111.453 11.5684C111.453 11.5684 109.924 11.5684 106.866 11.5684C106.866 11.5684 106.866 12.7122 106.866 15C106.866 15 106.52 15 105.827 15C105.827 15 105.827 12.4479 105.827 7.34375C105.827 7.34375 106.174 7.34375 106.866 7.34375C106.866 7.34375 106.866 8.43978 106.866 10.6318C106.866 10.6318 108.395 10.6318 111.453 10.6318C111.453 10.6318 111.453 9.53581 111.453 7.34375C111.453 7.34375 111.799 7.34375 112.492 7.34375C112.492 7.34375 112.492 9.89583 112.492 15ZM114.249 7.34375C114.249 7.34375 114.595 7.34375 115.288 7.34375C115.288 7.34375 115.288 8.48079 115.288 10.7549C115.288 10.7549 116.455 9.61784 118.788 7.34375C118.788 7.34375 119.235 7.34375 120.128 7.34375C120.128 7.34375 118.854 8.57878 116.307 11.0488C116.307 11.0488 117.58 12.3659 120.128 15C120.128 15 119.677 15 118.774 15C118.774 15 117.612 13.7969 115.288 11.3906C115.288 11.3906 115.288 12.5938 115.288 15C115.288 15 114.942 15 114.249 15C114.249 15 114.249 12.4479 114.249 7.34375ZM125.412 8.28027C125.412 8.28027 124.749 8.28027 123.423 8.28027C123.423 8.28027 123.423 10.5202 123.423 15C123.423 15 123.076 15 122.384 15C122.384 15 122.384 12.7601 122.384 8.28027C122.384 8.28027 121.714 8.28027 120.374 8.28027C120.374 8.28027 120.374 7.9681 120.374 7.34375C120.374 7.34375 122.053 7.34375 125.412 7.34375C125.412 7.34375 125.412 7.65592 125.412 8.28027ZM125.829 10.8574C125.829 10.8574 127.094 10.8574 129.623 10.8574C129.623 10.8574 129.623 11.1514 129.623 11.7393C129.623 11.7393 128.358 11.7393 125.829 11.7393C125.829 11.7393 125.829 11.4453 125.829 10.8574ZM132.146 15C132.146 15 131.801 15 131.113 15C131.113 15 131.113 11.5524 131.113 4.65723C131.113 4.65723 133.524 4.65723 138.346 4.65723C138.346 4.65723 138.346 8.10482 138.346 15C138.346 15 138.002 15 137.313 15C137.313 15 137.313 11.8646 137.313 5.59375C137.313 5.59375 135.591 5.59375 132.146 5.59375C132.146 5.59375 132.146 8.72917 132.146 15ZM148.073 11.5137C148.073 11.5137 145.765 11.5137 141.148 11.5137C141.189 12.2702 141.499 12.9128 142.078 13.4414C142.657 13.9655 143.34 14.2275 144.129 14.2275C144.712 14.2275 145.25 14.068 145.742 13.749C146.234 13.4255 146.588 13.0016 146.802 12.4775H147.882C147.599 13.2842 147.116 13.9382 146.433 14.4395C145.749 14.9362 144.99 15.1846 144.156 15.1846C143.6 15.1846 143.072 15.0798 142.57 14.8701C142.069 14.6605 141.638 14.3757 141.278 14.0156C140.918 13.6556 140.633 13.2249 140.424 12.7236C140.214 12.2223 140.109 11.6937 140.109 11.1377C140.109 10.4085 140.285 9.73861 140.636 9.12793C140.987 8.51725 141.465 8.03646 142.071 7.68555C142.677 7.33464 143.345 7.15918 144.074 7.15918C144.831 7.15918 145.526 7.34603 146.159 7.71973C146.797 8.09342 147.283 8.60156 147.615 9.24414C147.784 9.56771 147.902 9.90039 147.971 10.2422C148.039 10.5794 148.073 11.0033 148.073 11.5137ZM141.176 10.5771H147.041C146.868 9.81608 146.515 9.21452 145.981 8.77246C145.453 8.3304 144.817 8.10938 144.074 8.10938C143.35 8.10938 142.721 8.33724 142.188 8.79297C141.654 9.24414 141.317 9.83887 141.176 10.5771ZM153.521 8.28027C153.521 8.28027 152.858 8.28027 151.532 8.28027C151.532 8.28027 151.532 10.5202 151.532 15C151.532 15 151.186 15 150.493 15C150.493 15 150.493 12.7601 150.493 8.28027C150.493 8.28027 149.823 8.28027 148.483 8.28027C148.483 8.28027 148.483 7.9681 148.483 7.34375C148.483 7.34375 150.163 7.34375 153.521 7.34375C153.521 7.34375 153.521 7.65592 153.521 8.28027ZM161.923 11.5137C161.923 11.5137 159.615 11.5137 154.998 11.5137C155.039 12.2702 155.349 12.9128 155.928 13.4414C156.507 13.9655 157.19 14.2275 157.979 14.2275C158.562 14.2275 159.1 14.068 159.592 13.749C160.084 13.4255 160.437 13.0016 160.651 12.4775H161.731C161.449 13.2842 160.966 13.9382 160.282 14.4395C159.599 14.9362 158.84 15.1846 158.006 15.1846C157.45 15.1846 156.921 15.0798 156.42 14.8701C155.919 14.6605 155.488 14.3757 155.128 14.0156C154.768 13.6556 154.483 13.2249 154.273 12.7236C154.064 12.2223 153.959 11.6937 153.959 11.1377C153.959 10.4085 154.134 9.73861 154.485 9.12793C154.836 8.51725 155.315 8.03646 155.921 7.68555C156.527 7.33464 157.195 7.15918 157.924 7.15918C158.68 7.15918 159.375 7.34603 160.009 7.71973C160.647 8.09342 161.132 8.60156 161.465 9.24414C161.633 9.56771 161.752 9.90039 161.82 10.2422C161.889 10.5794 161.923 11.0033 161.923 11.5137ZM155.025 10.5771H160.891C160.717 9.81608 160.364 9.21452 159.831 8.77246C159.302 8.3304 158.667 8.10938 157.924 8.10938C157.199 8.10938 156.57 8.33724 156.037 8.79297C155.504 9.24414 155.167 9.83887 155.025 10.5771ZM163.358 7.34375C163.358 7.34375 163.705 7.34375 164.397 7.34375C164.397 7.34375 164.397 7.78125 164.397 8.65625C164.716 8.16862 165.131 7.7972 165.642 7.54199C166.157 7.28678 166.744 7.15918 167.405 7.15918C168.157 7.15918 168.841 7.33464 169.456 7.68555C170.071 8.03646 170.554 8.51953 170.905 9.13477C171.261 9.74544 171.438 10.4268 171.438 11.1787C171.438 11.9215 171.261 12.6006 170.905 13.2158C170.55 13.8265 170.06 14.3073 169.436 14.6582C168.816 15.0091 168.13 15.1846 167.378 15.1846C166.744 15.1846 166.173 15.057 165.662 14.8018C165.156 14.542 164.735 14.1683 164.397 13.6807V17.6865H163.358V7.34375ZM167.323 8.10938C166.48 8.10938 165.769 8.4056 165.19 8.99805C164.612 9.59049 164.322 10.3174 164.322 11.1787C164.322 12.04 164.614 12.7646 165.197 13.3525C165.781 13.9359 166.503 14.2275 167.364 14.2275C168.226 14.2275 168.943 13.9404 169.518 13.3662C170.096 12.7874 170.386 12.0674 170.386 11.2061C170.386 10.3037 170.096 9.56315 169.518 8.98438C168.943 8.40104 168.212 8.10938 167.323 8.10938ZM180.25 4.91699C180.25 4.91699 179.19 5.01497 177.071 5.21094C175.905 5.32487 175.018 5.71908 174.412 6.39355C173.811 7.06348 173.498 7.98177 173.476 9.14844L173.517 9.16211C173.626 8.88867 173.767 8.63802 173.94 8.41016C174.118 8.17773 174.337 7.96582 174.597 7.77441C174.856 7.58301 175.169 7.43262 175.533 7.32324C175.902 7.21387 176.308 7.15918 176.75 7.15918C177.306 7.15918 177.832 7.264 178.329 7.47363C178.83 7.67871 179.259 7.95898 179.614 8.31445C179.974 8.66992 180.259 9.09603 180.469 9.59277C180.678 10.085 180.783 10.609 180.783 11.165C180.783 11.9215 180.608 12.6074 180.257 13.2227C179.906 13.8333 179.421 14.3141 178.801 14.665C178.186 15.0114 177.497 15.1846 176.736 15.1846C175.875 15.1846 175.118 14.959 174.467 14.5078C174.207 14.3301 173.984 14.1432 173.797 13.9473C173.61 13.7467 173.451 13.5234 173.318 13.2773C173.191 13.0312 173.086 12.7806 173.004 12.5254C172.922 12.2656 172.858 11.9557 172.812 11.5957C172.771 11.2311 172.742 10.8688 172.724 10.5088C172.71 10.1442 172.703 9.70443 172.703 9.18945C172.703 7.63086 173.052 6.45052 173.749 5.64844C174.451 4.84635 175.531 4.37923 176.989 4.24707L180.25 3.9668V4.91699ZM176.709 14.2275C177.57 14.2275 178.288 13.9336 178.862 13.3457C179.441 12.7533 179.73 12.0173 179.73 11.1377C179.73 10.2764 179.443 9.55632 178.869 8.97754C178.299 8.39876 177.584 8.10938 176.723 8.10938C175.875 8.10938 175.166 8.40104 174.597 8.98438C174.027 9.56771 173.742 10.2855 173.742 11.1377C173.742 12.0218 174.02 12.7578 174.576 13.3457C175.132 13.9336 175.843 14.2275 176.709 14.2275ZM182.902 17.6865C182.902 17.6865 183.319 16.7067 184.153 14.7471C184.153 14.7471 183.162 12.2793 181.18 7.34375C181.18 7.34375 181.558 7.34375 182.314 7.34375C182.314 7.34375 183.123 9.37858 184.741 13.4482C184.741 13.4482 185.605 11.4134 187.332 7.34375C187.332 7.34375 187.699 7.34375 188.433 7.34375C188.433 7.34375 186.958 10.7913 184.01 17.6865C184.01 17.6865 183.641 17.6865 182.902 17.6865ZM189.444 7.34375C189.444 7.34375 189.791 7.34375 190.483 7.34375C190.483 7.34375 190.483 7.78125 190.483 8.65625C190.802 8.16862 191.217 7.7972 191.728 7.54199C192.243 7.28678 192.83 7.15918 193.491 7.15918C194.243 7.15918 194.927 7.33464 195.542 7.68555C196.157 8.03646 196.64 8.51953 196.991 9.13477C197.347 9.74544 197.524 10.4268 197.524 11.1787C197.524 11.9215 197.347 12.6006 196.991 13.2158C196.636 13.8265 196.146 14.3073 195.521 14.6582C194.902 15.0091 194.216 15.1846 193.464 15.1846C192.83 15.1846 192.258 15.057 191.748 14.8018C191.242 14.542 190.821 14.1683 190.483 13.6807V17.6865H189.444V7.34375ZM193.409 8.10938C192.566 8.10938 191.855 8.4056 191.276 8.99805C190.698 9.59049 190.408 10.3174 190.408 11.1787C190.408 12.04 190.7 12.7646 191.283 13.3525C191.867 13.9359 192.589 14.2275 193.45 14.2275C194.312 14.2275 195.029 13.9404 195.604 13.3662C196.182 12.7874 196.472 12.0674 196.472 11.2061C196.472 10.3037 196.182 9.56315 195.604 8.98438C195.029 8.40104 194.298 8.10938 193.409 8.10938ZM202.904 7.34375C202.904 7.34375 202.904 7.65592 202.904 8.28027C202.904 8.28027 201.945 8.28027 200.026 8.28027C200.026 8.28027 200.026 10.5202 200.026 15C200.026 15 199.68 15 198.987 15C198.987 15 198.987 12.4479 198.987 7.34375C198.987 7.34375 200.293 7.34375 202.904 7.34375Z" fill="#444444"/>
<defs>
<linearGradient id="paint0_linear_360_11577" x1="238.619" y1="277.028" x2="-59.4442" y2="-62.0778" gradientUnits="userSpaceOnUse">
<stop stop-color="#C6BBBA"/>
<stop offset="1" stop-color="#C6BBBA" stop-opacity="0"/>
</linearGradient>
<linearGradient id="paint1_linear_360_11577" x1="53" y1="78" x2="53" y2="98" gradientUnits="userSpaceOnUse">
<stop stop-color="#ED213A"/>
<stop offset="1" stop-color="#93291E"/>
</linearGradient>
</defs>
</svg>
