<svg width="20" height="20" viewBox="0 0 20 20" fill="none" xmlns="http://www.w3.org/2000/svg">
<path d="M9.99996 1.0415C8.22817 1.0415 6.49617 1.5669 5.02298 2.55126C3.54979 3.53561 2.40158 4.93471 1.72354 6.57163C1.04551 8.20855 0.868103 10.0098 1.21376 11.7475C1.55942 13.4853 2.41262 15.0815 3.66547 16.3343C4.91831 17.5872 6.51453 18.4404 8.25228 18.786C9.99003 19.1317 11.7912 18.9543 13.4282 18.2763C15.0651 17.5982 16.4642 16.45 17.4485 14.9768C18.4329 13.5036 18.9583 11.7716 18.9583 9.99984C18.9557 7.62475 18.011 5.3477 16.3315 3.66826C14.6521 1.98882 12.375 1.04415 9.99996 1.0415ZM9.99996 17.7082C8.4754 17.7082 6.98507 17.2561 5.71744 16.4091C4.44981 15.5621 3.46182 14.3582 2.87839 12.9497C2.29497 11.5412 2.14232 9.99129 2.43974 8.49602C2.73717 7.00075 3.47132 5.62725 4.54935 4.54922C5.62738 3.47119 7.00087 2.73705 8.49614 2.43962C9.99141 2.14219 11.5413 2.29484 12.9498 2.87827C14.3583 3.46169 15.5622 4.44969 16.4092 5.71732C17.2562 6.98495 17.7083 8.47527 17.7083 9.99984C17.7061 12.0435 16.8933 14.0029 15.4481 15.448C14.003 16.8931 12.0437 17.706 9.99996 17.7082ZM7.49163 9.99984C7.49023 10.5217 7.63982 11.0328 7.92234 11.4715C8.20487 11.9103 8.60827 12.258 9.08393 12.4726C9.55958 12.6873 10.0872 12.7598 10.6031 12.6814C11.119 12.6029 11.6012 12.377 11.9916 12.0307C12.1161 11.9215 12.2788 11.8662 12.444 11.877C12.6091 11.8878 12.7633 11.9637 12.8725 12.0882C12.9816 12.2126 13.0369 12.3753 13.0261 12.5405C13.0154 12.7057 12.9394 12.8598 12.815 12.969C12.2436 13.4729 11.5391 13.8012 10.7858 13.9145C10.0325 14.0279 9.26247 13.9215 8.56816 13.608C7.87386 13.2946 7.28474 12.7875 6.87149 12.1476C6.45825 11.5076 6.23844 10.762 6.23844 10.0003C6.23844 9.23848 6.45825 8.49289 6.87149 7.85295C7.28474 7.21301 7.87386 6.7059 8.56816 6.39248C9.26247 6.07906 10.0325 5.97264 10.7858 6.08599C11.5391 6.19934 12.2436 6.52764 12.815 7.0315C12.9371 7.14174 13.0108 7.29565 13.0201 7.45987C13.0295 7.6241 12.9737 7.78538 12.8649 7.90876C12.7561 8.03213 12.6031 8.10764 12.439 8.11892C12.2749 8.1302 12.1129 8.07633 11.9883 7.969C11.5979 7.6234 11.116 7.39802 10.6005 7.32C10.085 7.24197 9.55791 7.31463 9.08275 7.52923C8.6076 7.74383 8.2046 8.09121 7.92231 8.52954C7.64001 8.96787 7.49045 9.47847 7.49163 9.99984Z" fill="#C6BBBA"/>
</svg>
