<svg width="24" height="24" viewBox="0 0 24 24" fill="none" xmlns="http://www.w3.org/2000/svg">
<path d="M16.9237 7.66527L21.8779 2.71137C21.9167 2.67273 21.9475 2.62678 21.9685 2.57618C21.9894 2.52558 22.0001 2.47133 22 2.41656C22 2.18645 21.8132 2 21.5831 2C21.5285 1.99994 21.4743 2.01069 21.4238 2.03164C21.3733 2.05259 21.3275 2.08332 21.2889 2.12207L16.0918 7.31891C14.8113 6.84281 13.4343 6.58344 12 6.58344C7.88133 6.58344 4.23512 8.71965 2 12C3.28481 13.886 5.03649 15.3936 7.0757 16.3347L2.12207 21.2889C2.08328 21.3275 2.05251 21.3733 2.03156 21.4238C2.01061 21.4743 1.99988 21.5285 2 21.5831C2 21.8138 2.18676 22 2.41625 22C2.5316 22 2.63598 21.953 2.71164 21.8779L7.9082 16.6808C9.18871 17.1569 10.5657 17.4169 12 17.4169C16.1187 17.4169 19.7649 15.2806 22 12C20.7152 10.114 18.9635 8.60645 16.9237 7.66527ZM15.4381 7.97258L15.3606 8.05039C15.3132 7.99957 15.2648 7.94972 15.2154 7.90086C15.2898 7.92375 15.3643 7.94789 15.4381 7.97258ZM15.75 11.1666C15.75 12.1684 15.36 13.1102 14.6514 13.8182C13.9434 14.5262 13.0016 14.9169 12 14.9169C11.3433 14.9169 10.7121 14.749 10.1555 14.4335L15.2672 9.32238C15.5821 9.87871 15.75 10.5098 15.75 11.1666ZM12 7.41656C13.0016 7.41656 13.9434 7.80688 14.6514 8.51488C14.6921 8.55576 14.732 8.59748 14.771 8.64L9.47313 13.9379C9.43074 13.8989 9.38922 13.859 9.34859 13.8182C8.64 13.1102 8.25 12.1684 8.25 11.1666C8.25 10.165 8.64 9.2232 9.34863 8.51488C10.0566 7.80688 10.9984 7.41656 12 7.41656ZM7.70742 15.703C7.36241 15.556 7.02525 15.3911 6.69727 15.2092C5.90746 14.7728 5.16527 14.2369 4.48961 13.6168C3.95346 13.1233 3.46317 12.5821 3.02477 12C3.46294 11.4178 3.95325 10.8767 4.48961 10.3835C5.16527 9.76336 5.90746 9.22746 6.69727 8.79078C7.36068 8.42329 8.06018 8.12509 8.78469 7.9009C7.94059 8.73219 7.41688 9.8882 7.41688 11.1666C7.41688 12.4944 7.98145 13.6901 8.88355 14.5275L7.70742 15.703ZM19.5104 13.6168C18.8347 14.237 18.0925 14.7729 17.3027 15.2093C16.5013 15.653 15.6499 15.9948 14.7741 16.2255C13.872 16.4629 12.9387 16.5832 12 16.5832C11.0612 16.5832 10.128 16.4629 9.22594 16.2255C9.00229 16.1668 8.78061 16.1009 8.56125 16.0278L9.54879 15.0402C10.258 15.4894 11.0985 15.75 12 15.75C14.5311 15.75 16.5831 13.698 16.5831 11.1666C16.5831 10.2654 16.3225 9.42492 15.8733 8.71602L16.2926 8.29672C16.6375 8.44413 16.9746 8.60903 17.3027 8.79078C18.0925 9.2275 18.8347 9.76336 19.5104 10.3835C20.0467 10.8767 20.537 11.4178 20.9752 12C20.5368 12.5821 20.0465 13.1233 19.5104 13.6168Z" fill="#C6BBBA"/>
<path d="M11.6249 8C10.1754 8 9 9.56713 9 11.5001C9 11.7763 9.16806 12 9.37514 12C9.58222 12 9.75028 11.7763 9.75028 11.5001C9.75028 10.1216 10.5912 9.00019 11.6249 9.00019C11.8319 9.00019 12 8.77606 12 8.49991C12 8.22375 11.8319 8 11.6249 8Z" fill="#C6BBBA"/>
</svg>
