<svg width="18" height="19" viewBox="0 0 18 19" fill="none" xmlns="http://www.w3.org/2000/svg">
<path d="M6.65578 11.8454C6.52639 11.716 6.40489 11.5742 6.29519 11.4246C6.11237 11.1737 6.1675 10.8215 6.41895 10.6387C6.66984 10.4559 7.02142 10.511 7.20481 10.7619C7.27738 10.862 7.35894 10.9582 7.45064 11.0494C7.90235 11.5011 8.50258 11.7497 9.14106 11.7497C9.77953 11.7497 10.3803 11.5011 10.8315 11.0494L13.9254 7.95542C14.8575 7.0233 14.8575 5.50614 13.9254 4.57402C12.9933 3.6419 11.4761 3.6419 10.544 4.57402L9.94886 5.16918C9.72891 5.38913 9.37338 5.38913 9.15343 5.16918C8.93348 4.94923 8.93348 4.59371 9.15343 4.37376L9.74859 3.7786C11.1195 2.40713 13.3499 2.40713 14.7208 3.7786C16.0917 5.14949 16.0917 7.37995 14.7208 8.75084L11.6269 11.8448C10.9631 12.5091 10.0799 12.8748 9.14106 12.8748C8.20219 12.8748 7.31901 12.5091 6.65578 11.8454ZM5.76585 16.25C6.70528 16.25 7.5879 15.8844 8.25169 15.22L8.84685 14.6248C9.0668 14.4054 9.0668 14.0494 8.84685 13.8294C8.62746 13.6095 8.27138 13.61 8.05143 13.8294L7.4557 14.4246C7.00399 14.8763 6.40376 15.1249 5.76528 15.1249C5.12681 15.1249 4.52658 14.8763 4.07486 14.4246C3.62315 13.9729 3.37451 13.3726 3.37451 12.7342C3.37451 12.0957 3.62315 11.4949 4.07486 11.0437L7.16881 7.94979C7.62052 7.49808 8.22075 7.24944 8.85923 7.24944C9.4977 7.24944 10.0985 7.49808 10.5496 7.94979C10.6397 8.04036 10.7218 8.13656 10.7949 8.23669C10.9772 8.48814 11.3288 8.54439 11.5808 8.36101C11.8322 8.17818 11.8879 7.8266 11.7051 7.57515C11.5982 7.42776 11.4773 7.28656 11.3456 7.15493C10.6813 6.49001 9.7981 6.12437 8.85923 6.12437C7.92035 6.12437 7.03717 6.49001 6.37338 7.15437L3.28 10.2483C2.61565 10.9121 2.25 11.7953 2.25 12.7342C2.25 13.673 2.61565 14.5562 3.28 15.22C3.94379 15.8844 4.82641 16.25 5.76585 16.25Z" fill="#FFFFFE"/>
</svg>
