<svg width="35" height="36" viewBox="0 0 35 36" fill="none" xmlns="http://www.w3.org/2000/svg">
<rect y="0.5" width="35" height="35" rx="3" fill="#CC261F"/>
<path d="M9.36054 31.5C8.81909 31.5 8.29538 31.2947 7.81606 30.8931C7.00831 30.2147 6.94618 29.465 7.02606 28.9562C7.41662 26.6624 11.6595 24.5649 14.1271 23.5295C15.4675 20.1557 16.6303 16.1838 17.3493 13.2027C15.9113 10.1056 15.4053 7.91881 15.8491 6.67817C16.0711 6.06231 16.5238 5.66066 17.1628 5.51785L17.2516 5.5L17.3404 5.50893C17.4114 5.51785 18.0416 5.61603 18.5564 6.31222C19.2222 7.22262 19.3731 8.69533 19.0003 10.6946C18.8937 11.2659 18.7162 12.087 18.4854 13.0688C19.7991 15.8179 21.6454 18.8526 23.1544 20.959C24.4148 20.7805 25.6131 20.718 26.625 20.8251C28.5157 21.0215 28.9151 21.8515 28.9861 22.3335C29.0927 23.0386 28.5778 23.7705 27.6991 24.1454C26.483 24.6631 24.4947 24.5292 22.8792 22.4228C22.8082 22.3335 22.7372 22.2353 22.6662 22.1371C20.5891 22.4852 18.1748 23.1457 15.7249 24.0651C15.4675 24.1632 15.2189 24.2614 14.9704 24.3596C13.3105 28.4475 11.6861 30.7949 10.1328 31.3572C9.88425 31.4554 9.61796 31.5 9.36054 31.5ZM13.5324 24.9755C10.0085 26.5731 8.25988 28.1529 8.1001 29.1437C8.0646 29.3579 8.0646 29.6881 8.51729 30.063C8.93448 30.4111 9.33391 30.5003 9.77773 30.3397C11.0115 29.8934 12.3252 27.7513 13.5324 24.9755ZM23.9177 21.9676C25.1161 23.3867 26.4653 23.5027 27.2819 23.1457C27.7079 22.9672 27.9476 22.6637 27.921 22.4942C27.8943 22.3157 27.4949 22.0122 26.5185 21.914C25.7907 21.8426 24.9119 21.8605 23.9177 21.9676ZM18.0949 14.7022C17.5534 16.7997 16.8167 19.3256 15.9557 21.7712C15.8048 22.1907 15.6627 22.5923 15.5118 22.9851C17.438 22.271 19.7636 21.5748 21.9738 21.1553C20.7844 19.4506 19.3198 17.0853 18.0949 14.7022ZM17.296 6.62461C17.0918 6.69602 16.9587 6.8299 16.8788 7.06196C16.5681 7.91881 16.9764 9.53433 17.7664 11.4444C17.8375 11.1052 17.8996 10.7928 17.9528 10.5072C18.3612 8.28476 17.9706 7.32973 17.6954 6.96378C17.5445 6.7585 17.3848 6.66032 17.296 6.62461Z" fill="white"/>
</svg>
