<svg width="27" height="27" viewBox="0 0 27 27" fill="none" xmlns="http://www.w3.org/2000/svg">
<path d="M5.43531 1.90622L3.29156 4.07913C2.71307 4.65144 2.25382 5.33279 1.94039 6.08375C1.62696 6.83472 1.46558 7.64039 1.46558 8.45413C1.46558 9.26788 1.62696 10.0736 1.94039 10.8245C2.25382 11.5755 2.71307 12.2568 3.29156 12.8291L14.1853 23.7083C14.7576 24.2868 15.439 24.746 16.1899 25.0595C16.9409 25.3729 17.7466 25.5343 18.5603 25.5343C19.3741 25.5343 20.1797 25.3729 20.9307 25.0595C21.6817 24.746 22.363 24.2868 22.9353 23.7083L25.1666 21.5646C25.3189 21.4214 25.4402 21.2485 25.5232 21.0567C25.6062 20.8648 25.649 20.658 25.649 20.4489C25.649 20.2399 25.6062 20.0331 25.5232 19.8412C25.4402 19.6493 25.3189 19.4765 25.1666 19.3333L21.8999 16.0521C21.6081 15.7653 21.2153 15.6046 20.8061 15.6046C20.397 15.6046 20.0042 15.7653 19.7124 16.0521L18.6186 17.1458C18.3268 17.4326 17.934 17.5933 17.5249 17.5933C17.1157 17.5933 16.723 17.4326 16.4311 17.1458L9.81031 10.5833C9.52353 10.2915 9.36283 9.8987 9.36283 9.48955C9.36283 9.0804 9.52353 8.68762 9.81031 8.3958L10.9041 7.30205C11.1909 7.01023 11.3516 6.61745 11.3516 6.2083C11.3516 5.79915 11.1909 5.40637 10.9041 5.11455L7.66656 1.90622C7.52338 1.75392 7.35053 1.63255 7.15866 1.54959C6.9668 1.46663 6.75997 1.42383 6.55094 1.42383C6.3419 1.42383 6.13508 1.46663 5.94321 1.54959C5.75135 1.63255 5.5785 1.75392 5.43531 1.90622Z" stroke="#CC261F" stroke-width="1.5" stroke-linecap="round" stroke-linejoin="round"/>
</svg>
