<svg width="21" height="20" viewBox="0 0 21 20" fill="none" xmlns="http://www.w3.org/2000/svg">
<path d="M17.7391 2.92891C15.8503 1.04023 13.339 0 10.668 0C7.99691 0 5.48563 1.0402 3.59688 2.92891C1.7082 4.81766 0.667969 7.32895 0.667969 10C0.667969 12.6711 1.70816 15.1823 3.59688 17.0711C5.48563 18.9598 7.99691 20 10.668 20C13.339 20 15.8503 18.9598 17.7391 17.0711C19.6277 15.1823 20.668 12.6711 20.668 10C20.668 7.32895 19.6278 4.81766 17.7391 2.92891ZM5.00801 16.7694C5.33824 13.9282 7.78102 11.7346 10.668 11.7346C12.1898 11.7346 13.621 12.3276 14.6975 13.4039C15.6069 14.3135 16.1805 15.5011 16.328 16.7693C14.7946 18.0536 12.8201 18.8281 10.668 18.8281C8.51586 18.8281 6.54152 18.0537 5.00801 16.7694ZM10.668 10.5276C8.99332 10.5276 7.6307 9.16504 7.6307 7.49039C7.6307 5.81559 8.99336 4.45312 10.668 4.45312C12.3426 4.45312 13.7052 5.81559 13.7052 7.49039C13.7052 9.16504 12.3426 10.5277 10.668 10.5277V10.5276ZM17.3367 15.7787C17.0356 14.5662 16.4096 13.4587 15.5261 12.5754C14.8059 11.8552 13.9538 11.3148 13.0245 10.9762C14.1416 10.2187 14.8771 8.93875 14.8771 7.49039C14.8771 5.16953 12.9888 3.28125 10.668 3.28125C8.34711 3.28125 6.45883 5.16953 6.45883 7.49039C6.45883 8.93953 7.19492 10.2199 8.31293 10.9773C7.45797 11.2889 6.66684 11.7706 5.98613 12.4048C5.00039 13.3227 4.3159 14.4932 3.99852 15.7777C2.65438 14.2282 1.83984 12.2075 1.83984 10C1.83984 5.13215 5.80012 1.17188 10.668 1.17188C15.5358 1.17188 19.4961 5.13215 19.4961 10C19.4961 12.2079 18.6812 14.2291 17.3367 15.7787Z" fill="#FFFFFE"/>
</svg>
