<svg width="28" height="28" viewBox="0 0 28 28" fill="none" xmlns="http://www.w3.org/2000/svg">
<path d="M23.5269 4.28561C20.9446 1.70345 17.5112 0.28125 13.8594 0.28125C10.2075 0.28125 6.77414 1.70339 4.19186 4.28561C1.6097 6.86789 0.1875 10.3013 0.1875 13.9531C0.1875 17.605 1.60964 21.0384 4.19186 23.6206C6.77414 26.2028 10.2075 27.625 13.8594 27.625C17.5112 27.625 20.9446 26.2029 23.5269 23.6206C26.1091 21.0384 27.5312 17.605 27.5312 13.9531C27.5312 10.3013 26.1091 6.86789 23.5269 4.28561ZM6.12115 23.2082C6.57264 19.3237 9.91237 16.3247 13.8594 16.3247C15.9401 16.3247 17.8967 17.1354 19.3685 18.607C20.6118 19.8505 21.396 21.4742 21.5978 23.208C19.5012 24.9639 16.8017 26.0228 13.8594 26.0228C10.917 26.0228 8.21775 24.9641 6.12115 23.2082ZM13.8594 14.6745C11.5698 14.6745 9.70686 12.8116 9.70686 10.522C9.70686 8.23225 11.5699 6.36951 13.8594 6.36951C16.1489 6.36951 18.0119 8.23225 18.0119 10.522C18.0119 12.8116 16.1489 14.6745 13.8594 14.6745V14.6745ZM22.9768 21.8537C22.5651 20.1959 21.7092 18.6818 20.5013 17.4742C19.5166 16.4895 18.3517 15.7508 17.0812 15.2878C18.6085 14.2521 19.6141 12.5022 19.6141 10.522C19.6141 7.34897 17.0324 4.76733 13.8594 4.76733C10.6863 4.76733 8.10469 7.34897 8.10469 10.522C8.10469 12.5033 9.11107 14.2537 10.6396 15.2893C9.4707 15.7153 8.38908 16.3739 7.45843 17.2409C6.11073 18.4959 5.1749 20.0962 4.74098 21.8524C2.90329 19.7339 1.78967 16.9712 1.78967 13.9531C1.78967 7.29786 7.20411 1.88342 13.8594 1.88342C20.5146 1.88342 25.9291 7.29786 25.9291 13.9531C25.9291 16.9718 24.815 19.7352 22.9768 21.8537Z" fill="#CC261F"/>
</svg>
