<svg width="22" height="23" viewBox="0 0 22 23" fill="none" xmlns="http://www.w3.org/2000/svg">
<g clip-path="url(#clip0_3051_1335)">
<path d="M15.1251 3.56525H6.87508C6.78392 3.56525 6.69648 3.52903 6.63202 3.46456C6.56755 3.4001 6.53133 3.31266 6.53133 3.2215V0.815247C6.53133 0.724078 6.56755 0.636644 6.63202 0.572179C6.69648 0.507713 6.78392 0.471497 6.87508 0.471497H15.1251C15.2163 0.471497 15.3037 0.507713 15.3682 0.572179C15.4326 0.636644 15.4688 0.724078 15.4688 0.815247V3.2215C15.4688 3.31266 15.4326 3.4001 15.3682 3.46456C15.3037 3.52903 15.2163 3.56525 15.1251 3.56525ZM7.21883 2.87775H14.7813V1.159H7.21883V2.87775ZM16.1563 13.8857C16.0652 13.8857 15.9777 13.8494 15.9133 13.785C15.8488 13.7205 15.8126 13.6331 15.8126 13.5419C15.8171 12.7404 15.6456 11.9478 15.3104 11.2198C14.9752 10.4918 14.4843 9.8462 13.8725 9.32856C13.8026 9.26985 13.759 9.1858 13.7511 9.0949C13.7432 9.004 13.7718 8.91371 13.8305 8.84387C13.8892 8.77404 13.9733 8.73038 14.0642 8.72252C14.1551 8.71465 14.2454 8.74322 14.3152 8.80193C15.0039 9.38415 15.5564 10.1103 15.9339 10.9293C16.3115 11.7483 16.5047 12.6401 16.5001 13.5419C16.5001 13.6331 16.4639 13.7205 16.3994 13.785C16.3349 13.8494 16.2475 13.8857 16.1563 13.8857ZM5.84383 13.8857C5.75267 13.8857 5.66523 13.8494 5.60077 13.785C5.5363 13.7205 5.50008 13.6331 5.50008 13.5419C5.49539 12.6401 5.68861 11.7482 6.06611 10.9291C6.44362 10.1101 6.99623 9.38382 7.68496 8.80159C7.71954 8.77252 7.7595 8.75054 7.80258 8.73692C7.84565 8.72329 7.89098 8.71828 7.93599 8.72218C7.981 8.72607 8.02479 8.73879 8.06489 8.75961C8.10498 8.78043 8.14058 8.80895 8.16965 8.84353C8.19872 8.87811 8.22069 8.91807 8.23432 8.96114C8.24795 9.00422 8.25295 9.04955 8.24906 9.09456C8.24517 9.13956 8.23244 9.18336 8.21162 9.22345C8.1908 9.26355 8.16229 9.29914 8.12771 9.32821C7.51579 9.84582 7.0249 10.4914 6.68968 11.2194C6.35445 11.9474 6.18306 12.7401 6.18758 13.5416C6.18758 13.6327 6.15137 13.7202 6.0869 13.7846C6.02244 13.8491 5.935 13.8857 5.84383 13.8857Z" fill="#CC261F"/>
<path d="M14.0938 9.409H7.90625C7.81508 9.409 7.72765 9.37278 7.66318 9.30831C7.59872 9.24385 7.5625 9.15641 7.5625 9.06525C7.5625 8.97408 7.59872 8.88664 7.66318 8.82218C7.72765 8.75771 7.81508 8.7215 7.90625 8.7215H14.0938C14.1849 8.7215 14.2724 8.75771 14.3368 8.82218C14.4013 8.88664 14.4375 8.97408 14.4375 9.06525C14.4375 9.15641 14.4013 9.24385 14.3368 9.30831C14.2724 9.37278 14.1849 9.409 14.0938 9.409Z" fill="#CC261F"/>
<path d="M14.0938 9.409H7.90625C7.81508 9.409 7.72765 9.37278 7.66318 9.30831C7.59872 9.24385 7.5625 9.15641 7.5625 9.06525V3.2215C7.5625 3.13033 7.59872 3.04289 7.66318 2.97843C7.72765 2.91396 7.81508 2.87775 7.90625 2.87775H14.0938C14.1849 2.87775 14.2724 2.91396 14.3368 2.97843C14.4013 3.04289 14.4375 3.13033 14.4375 3.2215V9.06525C14.4375 9.15641 14.4013 9.24385 14.3368 9.30831C14.2724 9.37278 14.1849 9.409 14.0938 9.409ZM8.25 8.7215H13.75V3.56525H8.25V8.7215ZM16.1562 13.8857H5.84375C5.75258 13.8857 5.66515 13.8494 5.60068 13.785C5.53622 13.7205 5.5 13.6331 5.5 13.5419C5.5 13.4507 5.53622 13.3633 5.60068 13.2988C5.66515 13.2344 5.75258 13.1982 5.84375 13.1982H16.1562C16.2474 13.1982 16.3349 13.2344 16.3993 13.2988C16.4638 13.3633 16.5 13.4507 16.5 13.5419C16.5 13.6331 16.4638 13.7205 16.3993 13.785C16.3349 13.8494 16.2474 13.8857 16.1562 13.8857Z" fill="#CC261F"/>
<path d="M10.3125 22.5286C10.2213 22.5286 10.1339 22.4923 10.0694 22.4279C10.005 22.3634 9.96875 22.276 9.96875 22.1848V13.534C9.96875 13.4428 10.005 13.3554 10.0694 13.2909C10.1339 13.2265 10.2213 13.1902 10.3125 13.1902C10.4037 13.1902 10.4911 13.2265 10.5556 13.2909C10.62 13.3554 10.6562 13.4428 10.6562 13.534V21.3302L11.3438 20.6146V13.534C11.3438 13.4428 11.38 13.3554 11.4444 13.2909C11.5089 13.2265 11.5963 13.1902 11.6875 13.1902C11.7787 13.1902 11.8661 13.2265 11.9306 13.2909C11.995 13.3554 12.0312 13.4428 12.0312 13.534V20.7527C12.0313 20.8414 11.997 20.9266 11.9357 20.9906L10.5607 22.4227C10.5286 22.4561 10.49 22.4827 10.4474 22.5009C10.4047 22.5191 10.3589 22.5285 10.3125 22.5286Z" fill="#CC261F"/>
</g>
<defs>
<clipPath id="clip0_3051_1335">
<rect width="22" height="22" fill="white" transform="translate(0 0.5)"/>
</clipPath>
</defs>
</svg>
