<svg width="22" height="23" viewBox="0 0 22 23" fill="none" xmlns="http://www.w3.org/2000/svg">
<g clip-path="url(#clip0_3051_1343)">
<path d="M4.46872 5.65653C4.27871 5.65653 4.12497 5.50279 4.12497 5.31279C4.12497 4.74415 3.66238 4.28155 3.09373 4.28155C2.52526 4.28155 2.06249 4.74415 2.06249 5.31279C2.06249 5.50279 1.90892 5.65653 1.71875 5.65653C1.52874 5.65653 1.375 5.50279 1.375 5.31279C1.375 4.36495 2.14607 3.59406 3.09373 3.59406C4.04153 3.59406 4.81247 4.36495 4.81247 5.31279C4.81247 5.50279 4.6589 5.65653 4.46872 5.65653ZM21.6561 5.65653C21.466 5.65653 21.3123 5.50279 21.3123 5.31279C21.3123 4.74415 20.8497 4.28155 20.2811 4.28155C20.0911 4.28155 19.9373 4.12781 19.9373 3.9378C19.9373 3.74762 20.0911 3.59406 20.2811 3.59406C21.2289 3.59406 21.9998 4.36495 21.9998 5.31279C21.9998 5.50279 21.8462 5.65653 21.6561 5.65653ZM20.2811 20.4376C20.0911 20.4376 19.9373 20.2839 19.9373 20.0939C19.9373 19.9037 20.0911 19.7501 20.2811 19.7501C20.8497 19.7501 21.3123 19.2874 21.3123 18.7189C21.3123 18.5287 21.466 18.3752 21.6561 18.3752C21.8462 18.3752 21.9998 18.5287 21.9998 18.7189C21.9998 19.6666 21.2289 20.4376 20.2811 20.4376ZM5.84371 20.4376C4.89604 20.4376 4.12497 19.6666 4.12497 18.7189C4.12497 18.5287 4.27871 18.3752 4.46872 18.3752C4.6589 18.3752 4.81247 18.5287 4.81247 18.7189C4.81247 19.2874 5.27524 19.7501 5.84371 19.7501C6.03388 19.7501 6.18745 19.9037 6.18745 20.0939C6.18745 20.2839 6.03388 20.4376 5.84371 20.4376ZM3.09373 20.4376C2.14607 20.4376 1.375 19.6666 1.375 18.7189C1.375 18.5287 1.52874 18.3752 1.71875 18.3752C1.90892 18.3752 2.06249 18.5287 2.06249 18.7189C2.06249 19.2874 2.52526 19.7501 3.09373 19.7501C3.28391 19.7501 3.43748 19.9037 3.43748 20.0939C3.43748 20.2839 3.28391 20.4376 3.09373 20.4376Z" fill="#CC261F"/>
<path d="M20.2811 4.28155H3.09373C2.90373 4.28155 2.74999 4.12781 2.74999 3.9378C2.74999 3.74762 2.90373 3.59406 3.09373 3.59406H20.2811C20.4712 3.59406 20.6248 3.74762 20.6248 3.9378C20.6248 4.12781 20.4712 4.28155 20.2811 4.28155ZM4.46872 19.0627C4.27871 19.0627 4.12497 18.9089 4.12497 18.7189V5.31279C4.12497 5.12261 4.27871 4.96904 4.46872 4.96904C4.6589 4.96904 4.81247 5.12261 4.81247 5.31279V18.7189C4.81247 18.9089 4.6589 19.0627 4.46872 19.0627ZM1.71875 7.37527C1.52874 7.37527 1.375 7.22153 1.375 7.03152V5.31279C1.375 5.12261 1.52874 4.96904 1.71875 4.96904C1.90892 4.96904 2.06249 5.12261 2.06249 5.31279V7.03152C2.06249 7.22153 1.90892 7.37527 1.71875 7.37527ZM21.6561 19.0627C21.466 19.0627 21.3123 18.9089 21.3123 18.7189V5.31279C21.3123 5.12261 21.466 4.96904 21.6561 4.96904C21.8462 4.96904 21.9998 5.12261 21.9998 5.31279V18.7189C21.9998 18.9089 21.8462 19.0627 21.6561 19.0627ZM20.2811 20.4376H3.09373C2.90373 20.4376 2.74999 20.2839 2.74999 20.0939C2.74999 19.9037 2.90373 19.7501 3.09373 19.7501H20.2811C20.4712 19.7501 20.6248 19.9037 20.6248 20.0939C20.6248 20.2839 20.4712 20.4376 20.2811 20.4376Z" fill="#CC261F"/>
<path d="M4.46875 18.7189H1.71875C1.52874 18.7189 1.375 18.5651 1.375 18.3751C1.375 18.1849 1.52874 18.0314 1.71875 18.0314H4.46875C4.65893 18.0314 4.8125 18.1849 4.8125 18.3751C4.8125 18.5651 4.65893 18.7189 4.46875 18.7189Z" fill="#CC261F"/>
<path d="M3.09375 18.7189C2.90374 18.7189 2.75 18.5651 2.75 18.3751V5.31274C2.75 5.12256 2.90374 4.96899 3.09375 4.96899C3.28392 4.96899 3.43749 5.12256 3.43749 5.31274V18.3751C3.43749 18.5651 3.28392 18.7189 3.09375 18.7189Z" fill="#CC261F"/>
<path d="M3.09375 7.37524H0.34375C0.153742 7.37524 0 7.2215 0 7.03149C0 6.84131 0.153742 6.68774 0.34375 6.68774H3.09375C3.28393 6.68774 3.4375 6.84131 3.4375 7.03149C3.4375 7.2215 3.28393 7.37524 3.09375 7.37524ZM3.09375 10.8127H0.34375C0.153742 10.8127 0 10.659 0 10.469C0 10.2788 0.153742 10.1252 0.34375 10.1252H3.09375C3.28393 10.1252 3.4375 10.2788 3.4375 10.469C3.4375 10.659 3.28393 10.8127 3.09375 10.8127Z" fill="#CC261F"/>
<path d="M1.03138 9.09398C0.962638 9.09396 0.895476 9.07334 0.838567 9.03478C0.781658 8.99621 0.737615 8.94147 0.712126 8.87763L0.0246258 7.15888C-0.045843 6.98262 0.0400945 6.78256 0.216481 6.71205C0.391364 6.64158 0.592802 6.72717 0.663313 6.9039L1.35081 8.62265C1.42128 8.79891 1.33534 8.99897 1.15896 9.06949C1.11841 9.08585 1.07511 9.09417 1.03138 9.09398Z" fill="#CC261F"/>
<path d="M0.34388 10.8127C0.301256 10.8127 0.257944 10.8051 0.216479 10.7882C0.0400941 10.7177 -0.0458425 10.5176 0.0246255 10.3414L0.712119 8.62265C0.782587 8.44592 0.984022 8.36033 1.15895 8.4308C1.33533 8.50127 1.42127 8.70137 1.3508 8.87763L0.663307 10.5964C0.637758 10.6602 0.593677 10.7149 0.536746 10.7535C0.479815 10.792 0.412641 10.8127 0.34388 10.8127ZM1.71887 19.0626C1.52886 19.0626 1.37512 18.9089 1.37512 18.7189V10.469C1.37512 10.2788 1.52886 10.1252 1.71887 10.1252C1.90904 10.1252 2.06261 10.2788 2.06261 10.469V18.7189C2.06261 18.9089 1.90904 19.0626 1.71887 19.0626ZM21.6562 11.5002H14.0937C13.9037 11.5002 13.75 11.3465 13.75 11.1565C13.75 10.9663 13.9037 10.8127 14.0937 10.8127H21.6562C21.8464 10.8127 21.9999 10.9663 21.9999 11.1565C21.9999 11.3465 21.8464 11.5002 21.6562 11.5002ZM12.0313 11.5002H4.46884C4.27883 11.5002 4.12509 11.3465 4.12509 11.1565C4.12509 10.9663 4.27883 10.8127 4.46884 10.8127H12.0313C12.2214 10.8127 12.375 10.9663 12.375 11.1565C12.375 11.3465 12.2214 11.5002 12.0313 11.5002ZM14.7812 1.1878H9.28129C9.09129 1.1878 8.93755 1.03406 8.93755 0.844052C8.93755 0.653874 9.09129 0.500305 9.28129 0.500305H14.7812C14.9714 0.500305 15.125 0.653874 15.125 0.844052C15.125 1.03406 14.9714 1.1878 14.7812 1.1878Z" fill="#CC261F"/>
<path d="M8.9375 1.53155C8.74749 1.53155 8.59375 1.3778 8.59375 1.1878C8.59375 0.808646 8.90209 0.500305 9.28124 0.500305C9.47142 0.500305 9.62499 0.653874 9.62499 0.844052C9.62499 1.03406 9.47142 1.1878 9.28124 1.1878C9.28124 1.3778 9.12767 1.53155 8.9375 1.53155ZM15.1249 1.53155C14.9349 1.53155 14.7812 1.3778 14.7812 1.1878V1.18711C14.5912 1.18711 14.4374 1.03371 14.4374 0.843708C14.4374 0.798581 14.4463 0.753896 14.4636 0.712208C14.4809 0.670519 14.5062 0.632645 14.5381 0.600752C14.5701 0.568858 14.608 0.543571 14.6497 0.526335C14.6914 0.5091 14.7361 0.500255 14.7812 0.500305C15.1603 0.500305 15.4687 0.808646 15.4687 1.1878C15.4687 1.3778 15.3151 1.53155 15.1249 1.53155Z" fill="#CC261F"/>
<path d="M15.1249 2.56279C14.9349 2.56279 14.7812 2.40905 14.7812 2.21904V1.1878C14.7812 0.997624 14.9349 0.844055 15.1249 0.844055C15.3151 0.844055 15.4687 0.997624 15.4687 1.1878V2.21904C15.4687 2.40905 15.3151 2.56279 15.1249 2.56279ZM8.9375 2.56279C8.74749 2.56279 8.59375 2.40905 8.59375 2.21904V1.1878C8.59375 0.997624 8.74749 0.844055 8.9375 0.844055C9.12767 0.844055 9.28124 0.997624 9.28124 1.1878V2.21904C9.28124 2.40905 9.12767 2.56279 8.9375 2.56279Z" fill="#CC261F"/>
<path d="M15.1249 2.5628H8.9375C8.74749 2.5628 8.59375 2.40906 8.59375 2.21905C8.59375 2.02887 8.74749 1.87531 8.9375 1.87531H15.1249C15.3151 1.87531 15.4687 2.02887 15.4687 2.21905C15.4687 2.40906 15.3151 2.5628 15.1249 2.5628Z" fill="#CC261F"/>
<path d="M15.1249 4.28153C14.9349 4.28153 14.7812 4.12779 14.7812 3.93778V2.21905C14.7812 2.02887 14.9349 1.87531 15.1249 1.87531C15.3151 1.87531 15.4687 2.02887 15.4687 2.21905V3.93778C15.4687 4.12779 15.3151 4.28153 15.1249 4.28153ZM13.7499 4.28153C13.5599 4.28153 13.4062 4.12779 13.4062 3.93778V2.21905C13.4062 2.02887 13.5599 1.87531 13.7499 1.87531C13.9401 1.87531 14.0937 2.02887 14.0937 2.21905V3.93778C14.0937 4.12779 13.9401 4.28153 13.7499 4.28153ZM10.3125 4.28153C10.1225 4.28153 9.96874 4.12779 9.96874 3.93778V2.21905C9.96874 2.02887 10.1225 1.87531 10.3125 1.87531C10.5027 1.87531 10.6562 2.02887 10.6562 2.21905V3.93778C10.6562 4.12779 10.5027 4.28153 10.3125 4.28153ZM8.9375 4.28153C8.74749 4.28153 8.59375 4.12779 8.59375 3.93778V2.21905C8.59375 2.02887 8.74749 1.87531 8.9375 1.87531C9.12767 1.87531 9.28124 2.02887 9.28124 2.21905V3.93778C9.28124 4.12779 9.12767 4.28153 8.9375 4.28153ZM14.0937 13.2189H12.0312C11.8412 13.2189 11.6875 13.0652 11.6875 12.8752V9.43773C11.6875 9.24755 11.8412 9.09398 12.0312 9.09398H14.0937C14.2839 9.09398 14.4374 9.24755 14.4374 9.43773V12.8752C14.4374 13.0652 14.2839 13.2189 14.0937 13.2189ZM12.375 12.5315H13.7499V9.78148H12.375V12.5315Z" fill="#CC261F"/>
<path d="M13.0625 12.1877C12.8725 12.1877 12.7188 12.0339 12.7188 11.8439V10.4689C12.7188 10.2788 12.8725 10.1252 13.0625 10.1252C13.2527 10.1252 13.4062 10.2788 13.4062 10.4689V11.8439C13.4062 12.0339 13.2527 12.1877 13.0625 12.1877Z" fill="#CC261F"/>
</g>
<defs>
<clipPath id="clip0_3051_1343">
<rect width="22" height="22" fill="white" transform="translate(0 0.5)"/>
</clipPath>
</defs>
</svg>
