<svg width="22" height="23" viewBox="0 0 22 23" fill="none" xmlns="http://www.w3.org/2000/svg">
<g clip-path="url(#clip0_3051_1359)">
<path d="M6.23047 22.5C5.47211 22.5 4.85547 21.8833 4.85547 21.125C4.85547 20.3667 5.47211 19.75 6.23047 19.75C6.42048 19.75 6.57422 19.9036 6.57422 20.0938C6.57422 20.2839 6.42048 20.4375 6.23047 20.4375C5.85131 20.4375 5.54297 20.7458 5.54297 21.125C5.54297 21.5042 5.85131 21.8125 6.23047 21.8125C6.42048 21.8125 6.57422 21.9661 6.57422 22.1562C6.57422 22.3464 6.42048 22.5 6.23047 22.5Z" fill="#CC261F"/>
<path d="M18.9492 20.4375H6.23047C6.04029 20.4375 5.88672 20.2839 5.88672 20.0938C5.88672 19.9036 6.04029 19.75 6.23047 19.75H18.9492C19.1392 19.75 19.293 19.9036 19.293 20.0938C19.293 20.2839 19.1392 20.4375 18.9492 20.4375ZM18.9492 22.5H6.23047C6.04029 22.5 5.88672 22.3464 5.88672 22.1562C5.88672 21.9661 6.04029 21.8125 6.23047 21.8125H18.9492C19.1392 21.8125 19.293 21.9661 19.293 22.1562C19.293 22.3464 19.1392 22.5 18.9492 22.5Z" fill="#CC261F"/>
<path d="M18.9492 20.4375C18.759 20.4375 18.6055 20.2839 18.6055 20.0938C18.6055 19.9036 18.759 19.75 18.9492 19.75C19.3282 19.75 19.6367 19.4417 19.6367 19.0625C19.6367 18.8723 19.7903 18.7188 19.9805 18.7188C20.1705 18.7188 20.3242 18.8723 20.3242 19.0625C20.3242 19.8208 19.7074 20.4375 18.9492 20.4375ZM19.9805 2.21875C19.9353 2.21881 19.8906 2.20995 19.8489 2.1927C19.8071 2.17544 19.7692 2.15013 19.7373 2.11819C19.7053 2.08626 19.68 2.04835 19.6628 2.00661C19.6455 1.96488 19.6367 1.92016 19.6367 1.875C19.6367 1.49584 19.3282 1.1875 18.9492 1.1875C18.759 1.1875 18.6055 1.03393 18.6055 0.84375C18.6055 0.65357 18.759 0.5 18.9492 0.5C19.7074 0.5 20.3242 1.11669 20.3242 1.875C20.3242 2.06518 20.1705 2.21875 19.9805 2.21875ZM5.19922 2.21875C5.15406 2.21881 5.10934 2.20995 5.0676 2.1927C5.02587 2.17544 4.98796 2.15013 4.95602 2.11819C4.92409 2.08626 4.89878 2.04835 4.88152 2.00661C4.86427 1.96488 4.85541 1.92016 4.85547 1.875C4.85547 1.11669 5.47211 0.5 6.23047 0.5C6.42048 0.5 6.57422 0.65357 6.57422 0.84375C6.57422 1.03393 6.42048 1.1875 6.23047 1.1875C5.85131 1.1875 5.54297 1.49584 5.54297 1.875C5.54297 2.06518 5.38923 2.21875 5.19922 2.21875ZM18.9492 22.5C18.759 22.5 18.6055 22.3464 18.6055 22.1562C18.6055 21.9661 18.759 21.8125 18.9492 21.8125C19.3282 21.8125 19.6367 21.5042 19.6367 21.125C19.6367 20.9348 19.7903 20.7812 19.9805 20.7812C20.1705 20.7812 20.3242 20.9348 20.3242 21.125C20.3242 21.8833 19.7074 22.5 18.9492 22.5Z" fill="#CC261F"/>
<path d="M19.9805 8.75C19.9353 8.75004 19.8906 8.74117 19.8489 8.72388C19.8072 8.7066 19.7693 8.68125 19.7374 8.64928C19.7055 8.61739 19.6801 8.57951 19.6628 8.53781C19.6455 8.4961 19.6366 8.4514 19.6366 8.40625C19.6366 8.3611 19.6455 8.3164 19.6628 8.27469C19.6801 8.23299 19.7055 8.19511 19.7374 8.16322L21.0117 6.88894V2.90625H19.9805C19.7903 2.90625 19.6367 2.75268 19.6367 2.5625C19.6367 2.37232 19.7903 2.21875 19.9805 2.21875H21.3555C21.5455 2.21875 21.6992 2.37232 21.6992 2.5625V7.03125C21.6992 7.12273 21.663 7.21 21.5983 7.27428L20.2233 8.64928C20.1915 8.68123 20.1536 8.70657 20.1119 8.72386C20.0703 8.74114 20.0256 8.75003 19.9805 8.75ZM18.9492 1.1875H6.23047C6.04029 1.1875 5.88672 1.03393 5.88672 0.84375C5.88672 0.65357 6.04029 0.5 6.23047 0.5H18.9492C19.1392 0.5 19.293 0.65357 19.293 0.84375C19.293 1.03393 19.1392 1.1875 18.9492 1.1875ZM5.19922 21.4688C5.15406 21.4688 5.10934 21.46 5.0676 21.4427C5.02587 21.4254 4.98796 21.4001 4.95602 21.3682C4.92409 21.3363 4.89878 21.2983 4.88152 21.2566C4.86427 21.2149 4.85541 21.1702 4.85547 21.125V1.875C4.85547 1.68482 5.00904 1.53125 5.19922 1.53125C5.38923 1.53125 5.54297 1.68482 5.54297 1.875V21.125C5.54297 21.3152 5.38923 21.4688 5.19922 21.4688ZM18.6055 21.4688H6.57422C6.38404 21.4688 6.23047 21.3152 6.23047 21.125C6.23047 20.9348 6.38404 20.7812 6.57422 20.7812H18.6055C18.7955 20.7812 18.9492 20.9348 18.9492 21.125C18.9492 21.3152 18.7955 21.4688 18.6055 21.4688Z" fill="#CC261F"/>
<path d="M18.6055 21.4688C18.5603 21.4688 18.5156 21.46 18.4739 21.4427C18.4321 21.4254 18.3942 21.4001 18.3623 21.3682C18.3303 21.3363 18.305 21.2983 18.2878 21.2566C18.2705 21.2149 18.2617 21.1702 18.2617 21.125V20.0938C18.2617 19.9036 18.4153 19.75 18.6055 19.75C18.7955 19.75 18.9492 19.9036 18.9492 20.0938V21.125C18.9492 21.3152 18.7955 21.4688 18.6055 21.4688ZM6.57422 21.4688C6.52906 21.4688 6.48434 21.46 6.4426 21.4427C6.40087 21.4254 6.36296 21.4001 6.33102 21.3682C6.29909 21.3363 6.27378 21.2983 6.25652 21.2566C6.23927 21.2149 6.23041 21.1702 6.23047 21.125V20.0938C6.23047 19.9036 6.38404 19.75 6.57422 19.75C6.76423 19.75 6.91797 19.9036 6.91797 20.0938V21.125C6.91797 21.3152 6.76423 21.4688 6.57422 21.4688ZM19.9805 21.4688C19.9353 21.4688 19.8906 21.46 19.8489 21.4427C19.8071 21.4254 19.7692 21.4001 19.7373 21.3682C19.7053 21.3363 19.68 21.2983 19.6628 21.2566C19.6455 21.2149 19.6367 21.1702 19.6367 21.125V1.875C19.6367 1.68482 19.7903 1.53125 19.9805 1.53125C20.1705 1.53125 20.3242 1.68482 20.3242 1.875V21.125C20.3242 21.3152 20.1705 21.4688 19.9805 21.4688ZM5.1987 2.90625H0.386719C0.196539 2.90625 0.0429688 2.75268 0.0429688 2.5625C0.0429688 2.37232 0.196539 2.21875 0.386719 2.21875H5.1987C5.38888 2.21875 5.54245 2.37232 5.54245 2.5625C5.54245 2.75268 5.38888 2.90625 5.1987 2.90625ZM5.1987 20.0938H2.10547C1.91529 20.0938 1.76172 19.9402 1.76172 19.75C1.76172 19.5598 1.91529 19.4062 2.10547 19.4062H5.1987C5.38888 19.4062 5.54245 19.5598 5.54245 19.75C5.54245 19.9402 5.38888 20.0938 5.1987 20.0938ZM17.5742 11.4997H7.60547C7.41529 11.4997 7.26172 11.3459 7.26172 11.1559V9.78091C7.26172 9.59073 7.41529 9.43716 7.60547 9.43716H17.5742C17.7642 9.43716 17.918 9.59073 17.918 9.78091V11.1559C17.918 11.3459 17.7642 11.4997 17.5742 11.4997ZM7.94922 10.8122H17.2305V10.1247H7.94922V10.8122Z" fill="#CC261F"/>
<path d="M0.386719 18.375C0.341561 18.3751 0.296836 18.3662 0.255105 18.3489C0.213374 18.3317 0.175456 18.3064 0.143525 18.2744C0.111594 18.2425 0.0862753 18.2046 0.0690202 18.1629C0.0517652 18.1211 0.0429125 18.0764 0.042969 18.0312V2.5625C0.042969 2.37232 0.196539 2.21875 0.386719 2.21875C0.576727 2.21875 0.730469 2.37232 0.730469 2.5625V18.0312C0.730469 18.2214 0.576727 18.375 0.386719 18.375Z" fill="#CC261F"/>
<path d="M2.10557 20.0937C2.06043 20.0938 2.01572 20.0849 1.97401 20.0676C1.9323 20.0503 1.89442 20.025 1.86254 19.993L0.143792 18.2743C0.111832 18.2424 0.0864756 18.2045 0.0691748 18.1628C0.0518741 18.1211 0.0429688 18.0764 0.0429688 18.0312C0.0429687 17.9861 0.0518741 17.9414 0.0691748 17.8997C0.0864756 17.858 0.111832 17.8201 0.143792 17.7882C0.175665 17.7562 0.21353 17.7309 0.255219 17.7136C0.296908 17.6963 0.341601 17.6874 0.386738 17.6874C0.431874 17.6874 0.476567 17.6963 0.518256 17.7136C0.559945 17.7309 0.597811 17.7562 0.629683 17.7882L2.34843 19.507C2.38039 19.5388 2.40575 19.5767 2.42305 19.6184C2.44035 19.6601 2.44926 19.7048 2.44926 19.75C2.44926 19.7951 2.44035 19.8398 2.42305 19.8815C2.40575 19.9232 2.38039 19.9611 2.34843 19.993C2.31658 20.025 2.27872 20.0503 2.23705 20.0676C2.19537 20.0849 2.15069 20.0938 2.10557 20.0937Z" fill="#CC261F"/>
<path d="M2.10547 20.0937C2.06031 20.0938 2.01559 20.085 1.97385 20.0677C1.93212 20.0504 1.89421 20.0251 1.86227 19.9932C1.83034 19.9613 1.80503 19.9233 1.78777 19.8816C1.77052 19.8399 1.76166 19.7952 1.76172 19.75V18.0312C1.76172 17.8411 1.91529 17.6875 2.10547 17.6875C2.29548 17.6875 2.44922 17.8411 2.44922 18.0312V19.75C2.44922 19.9402 2.29548 20.0937 2.10547 20.0937Z" fill="#CC261F"/>
<path d="M2.10547 18.375H0.386719C0.196539 18.375 0.0429688 18.2214 0.0429688 18.0312C0.0429688 17.8411 0.196539 17.6875 0.386719 17.6875H2.10547C2.29548 17.6875 2.44922 17.8411 2.44922 18.0312C2.44922 18.2214 2.29548 18.375 2.10547 18.375ZM5.19922 7.71875H2.79297C2.60279 7.71875 2.44922 7.56518 2.44922 7.375C2.44922 7.18482 2.60279 7.03125 2.79297 7.03125H5.19922C5.38923 7.03125 5.54297 7.18482 5.54297 7.375C5.54297 7.56518 5.38923 7.71875 5.19922 7.71875ZM5.19922 9.78125H2.79297C2.60279 9.78125 2.44922 9.62768 2.44922 9.4375C2.44922 9.24732 2.60279 9.09375 2.79297 9.09375H5.19922C5.38923 9.09375 5.54297 9.24732 5.54297 9.4375C5.54297 9.62768 5.38923 9.78125 5.19922 9.78125ZM5.19922 11.8438H2.79297C2.60279 11.8438 2.44922 11.6902 2.44922 11.5C2.44922 11.3098 2.60279 11.1562 2.79297 11.1562H5.19922C5.38923 11.1562 5.54297 11.3098 5.54297 11.5C5.54297 11.6902 5.38923 11.8438 5.19922 11.8438ZM5.19922 13.9062H2.79297C2.60279 13.9062 2.44922 13.7527 2.44922 13.5625C2.44922 13.3723 2.60279 13.2188 2.79297 13.2188H5.19922C5.38923 13.2188 5.54297 13.3723 5.54297 13.5625C5.54297 13.7527 5.38923 13.9062 5.19922 13.9062Z" fill="#CC261F"/>
</g>
<defs>
<clipPath id="clip0_3051_1359">
<rect width="22" height="22" fill="white" transform="translate(0 0.5)"/>
</clipPath>
</defs>
</svg>
