<svg width="39" height="40" viewBox="0 0 39 40" fill="none" xmlns="http://www.w3.org/2000/svg">
<path d="M0.625001 4.375C0.542895 4.3751 0.461577 4.35901 0.385702 4.32763C0.309827 4.29626 0.240887 4.25023 0.182829 4.19217C0.124772 4.13411 0.0787391 4.06517 0.0473664 3.9893C0.0159936 3.91342 -0.000102335 3.83211 4.8955e-07 3.75C4.8955e-07 1.6818 1.6818 0 3.75 0C4.09578 0 4.375 0.279219 4.375 0.625C4.375 0.970781 4.09578 1.25 3.75 1.25C2.37125 1.25 1.25 2.37125 1.25 3.75C1.25 4.09578 0.970782 4.375 0.625001 4.375ZM31.875 4.375C31.7929 4.3751 31.7116 4.35901 31.6357 4.32763C31.5598 4.29626 31.4909 4.25023 31.4328 4.19217C31.3748 4.13411 31.3287 4.06517 31.2974 3.9893C31.266 3.91342 31.2499 3.83211 31.25 3.75C31.25 2.37125 30.1287 1.25 28.75 1.25C27.3713 1.25 26.25 2.37125 26.25 3.75C26.25 4.09578 25.9708 4.375 25.625 4.375C25.2792 4.375 25 4.09578 25 3.75C25 1.6818 26.6818 0 28.75 0C30.8182 0 32.5 1.6818 32.5 3.75C32.5 4.09578 32.2208 4.375 31.875 4.375Z" fill="#CC261F"/>
<path d="M28.75 1.25H3.75C3.40422 1.25 3.125 0.970781 3.125 0.625C3.125 0.279219 3.40422 0 3.75 0H28.75C29.0958 0 29.375 0.279219 29.375 0.625C29.375 0.970781 29.0958 1.25 28.75 1.25ZM25.625 4.375H0.625C0.279219 4.375 0 4.09578 0 3.75C0 3.40422 0.279219 3.125 0.625 3.125H25.625C25.9708 3.125 26.25 3.40422 26.25 3.75C26.25 4.09578 25.9708 4.375 25.625 4.375ZM10 40C7.9318 40 6.25 38.3182 6.25 36.25C6.25 35.9042 6.52922 35.625 6.875 35.625C7.22078 35.625 7.5 35.9042 7.5 36.25C7.5 37.6287 8.62125 38.75 10 38.75C10.3458 38.75 10.625 39.0292 10.625 39.375C10.625 39.7208 10.3458 40 10 40ZM35 40C32.9318 40 31.25 38.3182 31.25 36.25C31.25 35.9042 31.5292 35.625 31.875 35.625C32.2208 35.625 32.5 35.9042 32.5 36.25C32.5 37.6287 33.6213 38.75 35 38.75C36.3787 38.75 37.5 37.6287 37.5 36.25C37.5 35.9042 37.7792 35.625 38.125 35.625C38.4708 35.625 38.75 35.9042 38.75 36.25C38.75 38.3182 37.0682 40 35 40Z" fill="#CC261F"/>
<path d="M35.0006 40H10.0006C9.65516 40 9.37563 39.7208 9.37563 39.375C9.37563 39.0292 9.65516 38.75 10.0006 38.75H35.0006C35.3464 38.75 35.6256 39.0292 35.6256 39.375C35.6256 39.7208 35.3464 40 35.0006 40ZM31.875 36.875C31.7929 36.8751 31.7116 36.859 31.6357 36.8276C31.5598 36.7963 31.4909 36.7502 31.4328 36.6922C31.3748 36.6341 31.3287 36.5652 31.2974 36.4893C31.266 36.4134 31.2499 36.3321 31.25 36.25V3.75C31.25 3.40422 31.5292 3.125 31.875 3.125C32.2208 3.125 32.5 3.40422 32.5 3.75V36.25C32.5 36.5958 32.2208 36.875 31.875 36.875ZM6.875 36.875C6.7929 36.8751 6.71158 36.859 6.6357 36.8276C6.55983 36.7963 6.49089 36.7502 6.43283 36.6922C6.37477 36.6341 6.32874 36.5652 6.29737 36.4893C6.26599 36.4134 6.2499 36.3321 6.25 36.25V3.75C6.25 3.40422 6.52922 3.125 6.875 3.125C7.22078 3.125 7.5 3.40422 7.5 3.75V36.25C7.5 36.5958 7.22078 36.875 6.875 36.875Z" fill="#CC261F"/>
<path d="M38.125 36.875H31.875C31.5292 36.875 31.25 36.5958 31.25 36.25C31.25 35.9042 31.5292 35.625 31.875 35.625H38.125C38.4708 35.625 38.75 35.9042 38.75 36.25C38.75 36.5958 38.4708 36.875 38.125 36.875ZM23.125 12.5C20.7132 12.5 18.75 10.5368 18.75 8.125C18.75 7.77922 19.0292 7.5 19.375 7.5C19.7208 7.5 20 7.77922 20 8.125C20 9.84805 21.402 11.25 23.125 11.25C23.4708 11.25 23.75 11.5292 23.75 11.875C23.75 12.2208 23.4708 12.5 23.125 12.5Z" fill="#CC261F"/>
<path d="M15.625 12.5C15.2792 12.5 15 12.2208 15 11.875C15 11.5292 15.2792 11.25 15.625 11.25C17.348 11.25 18.75 9.84805 18.75 8.125C18.75 7.77922 19.0292 7.5 19.375 7.5C19.7208 7.5 20 7.77922 20 8.125C20 10.5368 18.0368 12.5 15.625 12.5ZM14.375 12.5C13.3414 12.5 12.5 11.6586 12.5 10.625C12.5 10.2792 12.7792 10 13.125 10C13.4708 10 13.75 10.2792 13.75 10.625C13.75 10.9698 14.0302 11.25 14.375 11.25C14.7208 11.25 15 11.5292 15 11.875C15 12.2208 14.7208 12.5 14.375 12.5Z" fill="#CC261F"/>
<path d="M15.625 12.5H14.375C14.0292 12.5 13.75 12.2208 13.75 11.875C13.75 11.5292 14.0292 11.25 14.375 11.25H15.625C15.9708 11.25 16.25 11.5292 16.25 11.875C16.25 12.2208 15.9708 12.5 15.625 12.5ZM13.125 19.375C13.0429 19.3751 12.9616 19.359 12.8857 19.3276C12.8098 19.2963 12.7409 19.2502 12.6828 19.1922C12.6248 19.1341 12.5787 19.0652 12.5474 18.9893C12.516 18.9134 12.4999 18.8321 12.5 18.75V10.625C12.5 10.2792 12.7792 10 13.125 10C13.4708 10 13.75 10.2792 13.75 10.625V18.75C13.75 19.0958 13.4708 19.375 13.125 19.375ZM19.375 25.6256C19.2929 25.6257 19.2116 25.6096 19.1357 25.5783C19.0598 25.5469 18.9909 25.5009 18.9328 25.4428C18.8748 25.3847 18.8287 25.3158 18.7974 25.2399C18.766 25.164 18.7499 25.0827 18.75 25.0006C18.75 24.3112 19.3106 23.7506 20 23.7506C20.3458 23.7506 20.625 24.0302 20.625 24.3756C20.625 24.7214 20.3458 25.0006 20 25.0006C20 25.3464 19.7208 25.6256 19.375 25.6256Z" fill="#CC261F"/>
<path d="M19.375 25.6256C19.2929 25.6257 19.2116 25.6096 19.1357 25.5782C19.0598 25.5469 18.9909 25.5008 18.9328 25.4428C18.8748 25.3847 18.8287 25.3158 18.7974 25.2399C18.766 25.164 18.7499 25.0827 18.75 25.0006V24.9994C18.4042 24.9994 18.125 24.7208 18.125 24.375C18.125 24.2929 18.1412 24.2117 18.1726 24.1359C18.204 24.0601 18.25 23.9912 18.3081 23.9332C18.3661 23.8753 18.435 23.8293 18.5109 23.7979C18.5867 23.7666 18.668 23.7505 18.75 23.7506C19.4394 23.7506 20 24.3112 20 25.0006C20 25.3464 19.7208 25.6256 19.375 25.6256Z" fill="#CC261F"/>
<path d="M18.75 25C15.3037 25 12.5 22.1963 12.5 18.75C12.5 18.4042 12.7792 18.125 13.125 18.125C13.4708 18.125 13.75 18.4042 13.75 18.75C13.75 21.507 15.993 23.75 18.75 23.75C19.0958 23.75 19.375 24.0292 19.375 24.375C19.375 24.7208 19.0958 25 18.75 25ZM24.375 12.5C24.0292 12.5 23.75 12.2208 23.75 11.875C23.75 11.5292 24.0292 11.25 24.375 11.25C24.7198 11.25 25 10.9698 25 10.625C25 10.2792 25.2792 10 25.625 10C25.9708 10 26.25 10.2792 26.25 10.625C26.25 11.6586 25.4086 12.5 24.375 12.5Z" fill="#CC261F"/>
<path d="M24.375 12.5H23.125C22.7792 12.5 22.5 12.2208 22.5 11.875C22.5 11.5292 22.7792 11.25 23.125 11.25H24.375C24.7208 11.25 25 11.5292 25 11.875C25 12.2208 24.7208 12.5 24.375 12.5Z" fill="#CC261F"/>
<path d="M25.625 19.375C25.5429 19.3751 25.4616 19.359 25.3857 19.3276C25.3098 19.2963 25.2409 19.2502 25.1828 19.1922C25.1248 19.1341 25.0787 19.0652 25.0474 18.9893C25.016 18.9134 24.9999 18.8321 25 18.75V10.625C25 10.2792 25.2792 10 25.625 10C25.9708 10 26.25 10.2792 26.25 10.625V18.75C26.25 19.0958 25.9708 19.375 25.625 19.375Z" fill="#CC261F"/>
<path d="M20 25C19.6542 25 19.375 24.7208 19.375 24.375C19.375 24.0292 19.6542 23.75 20 23.75C22.757 23.75 25 21.507 25 18.75C25 18.4042 25.2792 18.125 25.625 18.125C25.9708 18.125 26.25 18.4042 26.25 18.75C26.25 22.1963 23.4463 25 20 25ZM19.375 20.625C19.2929 20.6251 19.2116 20.609 19.1357 20.5776C19.0598 20.5463 18.9909 20.5002 18.9328 20.4422C18.8748 20.3841 18.8287 20.3152 18.7974 20.2393C18.766 20.1634 18.7499 20.0821 18.75 20V15C18.75 14.6542 19.0292 14.375 19.375 14.375C19.7208 14.375 20 14.6542 20 15V20C20 20.3458 19.7208 20.625 19.375 20.625ZM26.875 29.375H11.875C11.5292 29.375 11.25 29.0958 11.25 28.75C11.25 28.4042 11.5292 28.125 11.875 28.125H26.875C27.2208 28.125 27.5 28.4042 27.5 28.75C27.5 29.0958 27.2208 29.375 26.875 29.375ZM26.875 31.875H11.875C11.5292 31.875 11.25 31.5958 11.25 31.25C11.25 30.9042 11.5292 30.625 11.875 30.625H26.875C27.2208 30.625 27.5 30.9042 27.5 31.25C27.5 31.5958 27.2208 31.875 26.875 31.875ZM22.5006 34.375H16.2494C15.9036 34.375 15.6244 34.0958 15.6244 33.75C15.6244 33.4042 15.9036 33.125 16.2494 33.125H22.5006C22.8464 33.125 23.1256 33.4042 23.1256 33.75C23.1256 34.0958 22.8464 34.375 22.5006 34.375Z" fill="#CC261F"/>
</svg>
