<svg width="40" height="39" viewBox="0 0 40 39" fill="none" xmlns="http://www.w3.org/2000/svg">
<path d="M36.25 34.9863C36.1679 34.9864 36.0866 34.9703 36.0107 34.9389C35.9348 34.9075 35.8659 34.8615 35.8078 34.8034C35.7498 34.7454 35.7037 34.6764 35.6724 34.6006C35.641 34.5247 35.6249 34.4434 35.625 34.3613V28.7363C35.625 28.3908 35.9042 28.1113 36.25 28.1113C36.5958 28.1113 36.875 28.3908 36.875 28.7363V34.3613C36.875 34.7064 36.5958 34.9863 36.25 34.9863Z" fill="#CC261F"/>
<path d="M33.1244 38.1113C33.0423 38.1114 32.961 38.0953 32.8851 38.0639C32.8092 38.0325 32.7403 37.9865 32.6822 37.9284C32.6241 37.8704 32.5781 37.8014 32.5467 37.7256C32.5154 37.6497 32.4993 37.5684 32.4994 37.4863C32.4994 37.1408 32.7786 36.8613 33.1244 36.8613C34.5031 36.8613 35.6244 35.7401 35.6244 34.3613C35.6244 34.0158 35.9036 33.7363 36.2494 33.7363C36.5952 33.7363 36.8744 34.0158 36.8744 34.3613C36.8744 36.4288 35.1926 38.1113 33.1244 38.1113ZM36.2494 15.6146C35.9036 15.6146 35.6244 15.3351 35.6244 14.9896C35.6244 13.6109 34.5031 12.4896 33.1244 12.4896C32.7786 12.4896 32.4994 12.2101 32.4994 11.8646C32.4994 11.5188 32.7786 11.2396 33.1244 11.2396C35.1926 11.2396 36.8744 12.9215 36.8744 14.9896C36.8744 15.3351 36.5952 15.6146 36.2494 15.6146ZM36.2494 9.36462C35.9036 9.36462 35.6244 9.08509 35.6244 8.73962C35.6244 7.36087 34.5031 6.23962 33.1244 6.23962C32.7786 6.23962 32.4994 5.96009 32.4994 5.61462C32.4994 5.26884 32.7786 4.98962 33.1244 4.98962C35.1926 4.98962 36.8744 6.6715 36.8744 8.73962C36.8744 9.08509 36.5952 9.36462 36.2494 9.36462ZM3.75 12.5006C1.6818 12.5006 0 10.8188 0 8.75064C0 8.40517 0.279531 8.12564 0.625 8.12564C0.970781 8.12564 1.25 8.40517 1.25 8.75064C1.25 10.1294 2.37117 11.2506 3.75 11.2506C4.09578 11.2506 4.375 11.5302 4.375 11.8756C4.375 12.2214 4.09578 12.5006 3.75 12.5006Z" fill="#CC261F"/>
<path d="M0.625 9.36462C0.279219 9.36462 0 9.08509 0 8.73962C0 6.6715 1.68242 4.98907 3.75062 4.98907C4.09641 4.98907 4.37562 5.26837 4.37562 5.61407C4.37562 5.95954 4.09641 6.23907 3.75062 6.23907C2.3718 6.23907 1.25 7.36095 1.25 8.73962C1.25 9.08509 0.970781 9.36462 0.625 9.36462ZM33.125 38.1256H3.75062C3.40516 38.1256 3.12562 37.8464 3.12562 37.5006C3.12562 37.1552 3.40516 36.8756 3.75062 36.8756H33.125C33.4708 36.8756 33.75 37.1552 33.75 37.5006C33.75 37.8464 33.4708 38.1256 33.125 38.1256ZM33.125 12.5006H3.75062C3.40516 12.5006 3.12562 12.2214 3.12562 11.8756C3.12562 11.5302 3.40516 11.2506 3.75062 11.2506H33.125C33.4708 11.2506 33.75 11.5302 33.75 11.8756C33.75 12.2214 33.4708 12.5006 33.125 12.5006Z" fill="#CC261F"/>
<path d="M13.8705 6.25061H3.75008C3.40461 6.25061 3.12508 5.97139 3.12508 5.62561C3.12508 5.28014 3.40461 5.00061 3.75008 5.00061H13.8705C14.2163 5.00061 14.4955 5.28014 14.4955 5.62561C14.4955 5.97139 14.2163 6.25061 13.8705 6.25061ZM0.625 34.9862C0.279531 34.9862 0 34.707 0 34.3612V8.75061C0 8.40514 0.279531 8.12561 0.625 8.12561C0.970781 8.12561 1.25 8.40514 1.25 8.75061V34.3612C1.25 34.7064 0.970781 34.9862 0.625 34.9862ZM31.8744 9.37561H5C4.65453 9.37561 4.375 9.09639 4.375 8.75061C4.375 8.40514 4.65453 8.12561 5 8.12561H31.8744C32.2202 8.12561 32.4994 8.40514 32.4994 8.75061C32.4994 9.09639 32.2202 9.37561 31.8744 9.37561ZM39.3744 19.3612C39.2923 19.3613 39.211 19.3452 39.1351 19.3139C39.0592 19.2825 38.9903 19.2365 38.9322 19.1784C38.8741 19.1204 38.8281 19.0514 38.7967 18.9755C38.7654 18.8997 38.7493 18.8183 38.7494 18.7362C38.7494 18.3914 38.4692 18.1112 38.1244 18.1112C38.0423 18.1113 37.961 18.0952 37.8851 18.0639C37.8092 18.0325 37.7403 17.9865 37.6822 17.9284C37.6241 17.8704 37.5781 17.8014 37.5467 17.7255C37.5154 17.6497 37.4993 17.5683 37.4994 17.4862C37.4994 17.1408 37.7786 16.8612 38.1244 16.8612C39.158 16.8612 39.9994 17.7026 39.9994 18.7362C39.9994 19.0814 39.7202 19.3612 39.3744 19.3612Z" fill="#CC261F"/>
<path d="M38.125 20.6113C38.0429 20.6114 37.9616 20.5953 37.8857 20.5639C37.8098 20.5325 37.7409 20.4865 37.6828 20.4284C37.6248 20.3704 37.5787 20.3014 37.5474 20.2256C37.516 20.1497 37.4999 20.0684 37.5 19.9863C37.5 19.6408 37.7792 19.3613 38.125 19.3613C38.4698 19.3613 38.75 19.0814 38.75 18.7363C38.75 18.3908 39.0292 18.1113 39.375 18.1113C39.7208 18.1113 40 18.3908 40 18.7363C40 19.7703 39.1586 20.6113 38.125 20.6113ZM38.125 18.1113H36.25C36.1679 18.1114 36.0866 18.0953 36.0107 18.0639C35.9348 18.0325 35.8659 17.9865 35.8078 17.9284C35.7498 17.8704 35.7037 17.8014 35.6724 17.7256C35.641 17.6497 35.6249 17.5684 35.625 17.4863C35.625 17.1408 35.9042 16.8613 36.25 16.8613H38.125C38.4708 16.8613 38.75 17.1408 38.75 17.4863C38.75 17.832 38.4708 18.1113 38.125 18.1113Z" fill="#CC261F"/>
<path d="M38.125 20.6113H30C29.9179 20.6114 29.8366 20.5953 29.7607 20.5639C29.6848 20.5325 29.6159 20.4865 29.5578 20.4284C29.4998 20.3704 29.4537 20.3014 29.4224 20.2256C29.391 20.1497 29.3749 20.0684 29.375 19.9863C29.375 19.6408 29.6542 19.3613 30 19.3613H38.125C38.4708 19.3613 38.75 19.6408 38.75 19.9863C38.75 20.332 38.4708 20.6113 38.125 20.6113ZM38.125 29.3613C38.0429 29.3614 37.9616 29.3453 37.8857 29.3139C37.8098 29.2825 37.7409 29.2365 37.6828 29.1784C37.6248 29.1204 37.5787 29.0514 37.5474 28.9756C37.516 28.8997 37.4999 28.8184 37.5 28.7363C37.5 28.3908 37.7792 28.1113 38.125 28.1113C38.4698 28.1113 38.75 27.8314 38.75 27.4863C38.75 27.1408 39.0292 26.8613 39.375 26.8613C39.7208 26.8613 40 27.1408 40 27.4863C40 28.5203 39.1586 29.3613 38.125 29.3613Z" fill="#CC261F"/>
<path d="M38.125 29.3613H30C29.9179 29.3614 29.8366 29.3453 29.7607 29.3139C29.6848 29.2825 29.6159 29.2365 29.5578 29.1784C29.4998 29.1204 29.4537 29.0514 29.4224 28.9756C29.391 28.8997 29.3749 28.8184 29.375 28.7363C29.375 28.3908 29.6542 28.1113 30 28.1113H38.125C38.4708 28.1113 38.75 28.3908 38.75 28.7363C38.75 29.082 38.4708 29.3613 38.125 29.3613ZM39.375 28.1113C39.2929 28.1114 39.2116 28.0953 39.1357 28.0639C39.0598 28.0325 38.9909 27.9865 38.9328 27.9284C38.8748 27.8704 38.8287 27.8014 38.7974 27.7256C38.766 27.6497 38.7499 27.5684 38.75 27.4863V18.7363C38.75 18.3908 39.0292 18.1113 39.375 18.1113C39.7208 18.1113 40 18.3908 40 18.7363V27.4863C40 27.8314 39.7208 28.1113 39.375 28.1113ZM36.25 20.6113C36.1679 20.6114 36.0866 20.5953 36.0107 20.5639C35.9348 20.5325 35.8659 20.4865 35.8078 20.4284C35.7498 20.3704 35.7037 20.3014 35.6724 20.2256C35.641 20.1497 35.6249 20.0684 35.625 19.9863V8.73962C35.625 8.39384 35.9042 8.11462 36.25 8.11462C36.5958 8.11462 36.875 8.39384 36.875 8.73962V19.9857C36.8751 20.0678 36.859 20.1492 36.8276 20.2251C36.7963 20.301 36.7503 20.37 36.6922 20.4281C36.6342 20.4862 36.5652 20.5323 36.4893 20.5637C36.4135 20.5951 36.3321 20.6113 36.25 20.6113Z" fill="#CC261F"/>
<path d="M30.0006 29.3612C29.9028 29.3614 29.8062 29.3387 29.7188 29.2947C29.6314 29.2508 29.5555 29.1869 29.4973 29.1083L26.3723 24.8883C26.1676 24.6115 26.2256 24.2203 26.503 24.0146C26.7801 23.8089 27.1713 23.8675 27.377 24.1452L30.502 28.3651C30.7067 28.6419 30.6488 29.0332 30.3714 29.2389C30.2642 29.3185 30.1341 29.3614 30.0006 29.3612Z" fill="#CC261F"/>
<path d="M26.8738 25.1413C26.7474 25.1413 26.624 25.1028 26.5201 25.0309C26.2357 24.8352 26.1642 24.4452 26.3599 24.1613L29.4849 19.6313C29.6808 19.3469 30.0705 19.2759 30.3543 19.4714C30.6387 19.667 30.7102 20.057 30.5145 20.3409L27.3895 24.8709C27.3317 24.9542 27.2546 25.0223 27.1648 25.0694C27.075 25.1165 26.9752 25.1411 26.8738 25.1412L26.8738 25.1413ZM32.4994 26.2362C31.4658 26.2362 30.6244 25.3952 30.6244 24.3612C30.6244 23.3276 31.4658 22.4862 32.4994 22.4862C33.533 22.4862 34.3744 23.3276 34.3744 24.3612C34.3744 25.3952 33.533 26.2362 32.4994 26.2362ZM32.4994 23.7362C32.1545 23.7362 31.8744 24.0164 31.8744 24.3612C31.8744 24.7064 32.1545 24.9862 32.4994 24.9862C32.8442 24.9862 33.1244 24.7064 33.1244 24.3612C33.1244 24.0164 32.8442 23.7362 32.4994 23.7362ZM3.75 38.1256C1.6818 38.1256 0 36.4437 0 34.3756C0 34.0302 0.279531 33.7506 0.625 33.7506C0.970781 33.7506 1.25 34.0302 1.25 34.3756C1.25 35.7544 2.37117 36.8756 3.75 36.8756C4.09578 36.8756 4.375 37.1552 4.375 37.5006C4.375 37.8464 4.09578 38.1256 3.75 38.1256ZM7.66445 9.37562C7.43617 9.37562 7.21555 9.25077 7.1057 9.03265C6.95008 8.72437 7.07305 8.34835 7.38125 8.1928L23.4607 0.0678033C23.7673 -0.0884467 24.1448 0.0350689 24.3005 0.34335L28.4052 8.46585C28.5608 8.77382 28.4375 9.15007 28.1293 9.30569C27.8207 9.46194 27.4445 9.33835 27.2895 9.03015L23.4668 1.46577L7.94555 9.30874C7.8584 9.35281 7.7621 9.37572 7.66445 9.37562Z" fill="#CC261F"/>
<path d="M23.7459 4.94962C23.2867 4.94945 22.8305 4.87582 22.3945 4.7315C21.2983 4.37134 20.4081 3.60509 19.8875 2.57384C19.7319 2.26626 19.8558 1.89025 20.164 1.73462C20.4688 1.57775 20.8476 1.70259 21.0032 2.01079C21.3731 2.74321 22.0057 3.28829 22.7845 3.544C23.5634 3.79884 24.3943 3.73626 25.1277 3.36642C25.4356 3.20954 25.8119 3.3347 25.9675 3.64196C26.1231 3.95025 25.9995 4.3265 25.692 4.48212C25.0776 4.79282 24.4138 4.94962 23.7459 4.94962ZM33.1257 6.23962H26.2709C25.9251 6.23962 25.6459 5.96009 25.6459 5.61462C25.6459 5.26884 25.9251 4.98962 26.2709 4.98962H33.1257C33.4715 4.98962 33.7507 5.26884 33.7507 5.61462C33.7507 5.96009 33.4715 6.23962 33.1257 6.23962Z" fill="#CC261F"/>
</svg>
