<svg width="38" height="38" viewBox="0 0 38 38" fill="none" xmlns="http://www.w3.org/2000/svg">
<path d="M36.82 16.6324L36.4941 16.2525C35.7741 15.4117 35.3206 13.7198 35.5234 12.6311L35.6158 12.1395C35.7707 11.3164 35.6101 10.438 35.1645 9.66665C34.719 8.89533 34.0389 8.31711 33.2493 8.03915L32.7765 7.87282C31.7318 7.50481 30.4934 6.2664 30.1253 5.22165L29.959 4.74995C29.4646 3.34514 28.0006 2.32547 26.4761 2.32547C26.2687 2.32547 26.0613 2.34487 25.8597 2.38242L25.3675 2.47473C25.1932 2.50718 24.9984 2.52373 24.7899 2.52373C23.7155 2.52373 22.4349 2.09476 21.7456 1.50406L21.3662 1.17878C20.7305 0.633511 19.8897 0.333313 18.9987 0.333313C18.1077 0.333313 17.2669 0.633511 16.6312 1.17871L16.2518 1.50399C15.5625 2.09476 14.2819 2.52366 13.2075 2.52366C12.9979 2.52366 12.8042 2.5071 12.6299 2.47466L12.1377 2.38234C11.934 2.34458 11.7273 2.32571 11.5201 2.32598C9.99684 2.32598 8.53282 3.34514 8.03721 4.74988L7.87198 5.22157C7.50397 6.26632 6.26439 7.50474 5.2208 7.87275L4.74801 8.03907C3.95847 8.31703 3.2783 8.89526 2.83278 9.66657C2.38726 10.4379 2.2267 11.3163 2.38157 12.1395L2.47272 12.6311C2.67667 13.7197 2.2232 15.4116 1.50315 16.2524L1.17728 16.6324C0.631646 17.2688 0.332031 18.1096 0.332031 19C0.332031 19.8904 0.632813 20.7318 1.17743 21.3675L1.50329 21.7469C2.22334 22.5877 2.67681 24.2796 2.47286 25.3688L2.38172 25.861C2.22677 26.6836 2.38741 27.562 2.83293 28.3333C3.27845 29.1046 3.95861 29.6823 4.74925 29.9602L5.22095 30.1266C6.26453 30.4946 7.50411 31.733 7.87213 32.7777L8.03845 33.2505C8.5329 34.6542 9.99692 35.6738 11.5202 35.6738C11.7299 35.6738 11.9372 35.6544 12.1378 35.6169L12.6299 35.5246C12.8043 35.4926 12.9979 35.4767 13.2076 35.4767C14.2819 35.4767 15.5626 35.9051 16.2507 36.4953L16.6312 36.8212C17.2669 37.3659 18.1077 37.6666 18.9987 37.6666C19.8897 37.6666 20.7305 37.3659 21.3662 36.8213L21.7456 36.4954C22.4349 35.9052 23.7155 35.4768 24.7899 35.4768C24.9995 35.4768 25.1932 35.4928 25.3675 35.5246L25.8586 35.6181C26.0602 35.6545 26.2675 35.6739 26.4761 35.6739C28.0005 35.6739 29.4645 34.6542 29.959 33.2506L30.1253 32.7778C30.4934 31.7331 31.7318 30.4946 32.7765 30.1266L33.2493 29.9603C34.0389 29.6823 34.719 29.1047 35.1645 28.3334C35.6101 27.5621 35.7695 26.6836 35.6158 25.8611L35.5234 25.3689C35.3207 24.2797 35.7741 22.5878 36.4941 21.7481L36.82 21.3676C37.3646 20.7318 37.6654 19.8909 37.6654 19C37.6654 18.1096 37.3646 17.2688 36.82 16.6324ZM35.6385 20.3558L35.3138 20.7341C34.2827 21.9372 33.704 24.0985 33.9945 25.6548L34.0868 26.1458C34.2645 27.0983 33.6447 28.1715 32.7321 28.4929L32.2604 28.6592C30.7668 29.1856 29.1842 30.7681 28.6579 32.2617L28.4927 32.7334C28.2135 33.5229 27.3477 34.1188 26.4761 34.1188C26.3644 34.1188 26.2528 34.1085 26.1457 34.0892L25.6535 33.9958C25.3858 33.9456 25.0953 33.9206 24.7899 33.9206C23.3361 33.9206 21.7057 34.4812 20.7339 35.3152L20.3533 35.641C19.999 35.9441 19.5182 36.1105 18.9987 36.1105C18.4792 36.1105 17.9984 35.9441 17.6441 35.641L17.2635 35.3152C16.2905 34.4811 14.6613 33.9206 13.2075 33.9206C12.9021 33.9206 12.6116 33.9457 12.3439 33.9958L11.8517 34.0881C11.7424 34.1088 11.6314 34.1191 11.5201 34.1189C10.6497 34.1189 9.78269 33.523 9.50466 32.7335L9.33833 32.2618C8.81312 30.767 7.2306 29.1856 5.73691 28.6593L5.26521 28.4929C4.35273 28.1715 3.73177 27.0983 3.91064 26.1458L4.00295 25.6548C4.29345 24.0974 3.71471 21.9372 2.68359 20.7341L2.3589 20.3558C1.72882 19.6204 1.72882 18.3796 2.3589 17.6448L2.68359 17.2648C3.71471 16.0628 4.29345 13.9015 4.00178 12.3452L3.91064 11.853C3.73177 10.9022 4.35266 9.82787 5.26528 9.50652L5.73698 9.3402C7.2306 8.81381 8.81319 7.23189 9.33841 5.73826L9.50473 5.26656C9.78269 4.47702 10.6497 3.88115 11.5202 3.88115C11.633 3.88115 11.7447 3.89143 11.8518 3.91133L12.344 4.00365C12.6117 4.05381 12.9022 4.07941 13.2076 4.07941C14.6614 4.07941 16.2906 3.51882 17.2636 2.68546L17.6441 2.35959C17.9984 2.05597 18.4792 1.88906 18.9988 1.88906C19.5183 1.88906 19.9991 2.05597 20.3534 2.35959L20.734 2.68546C21.7058 3.5189 23.3362 4.07941 24.79 4.07941C25.0953 4.07941 25.3858 4.05374 25.6536 4.00365L26.1458 3.91133C26.2529 3.89143 26.3645 3.88115 26.4762 3.88115C27.3477 3.88115 28.2148 4.47644 28.4927 5.26656L28.658 5.73826C29.1844 7.23189 30.7669 8.81389 32.2605 9.3402L32.7322 9.50652C33.6448 9.82779 34.2657 10.9022 34.0868 11.853L33.9945 12.3452C33.704 13.9015 34.2828 16.0628 35.3139 17.2654L35.6386 17.6448C36.2686 18.3796 36.2686 19.6204 35.6385 20.3558Z" fill="#CC261F"/>
<path d="M26.2734 11C26.1778 10.9999 26.0832 11.0187 25.9949 11.0552C25.9066 11.0918 25.8264 11.1454 25.7588 11.2131L11.2131 25.7579C11.1454 25.8252 11.0918 25.9052 11.0552 25.9933C11.0186 26.0814 10.9999 26.1759 11 26.2713C11 26.674 11.325 27 11.7266 27C11.9279 27 12.109 26.918 12.2412 26.7869L26.7869 12.2416C26.8547 12.1743 26.9084 12.0942 26.9449 12.0059C26.9815 11.9177 27.0002 11.8231 27 11.7276C27 11.326 26.675 11 26.2734 11ZM14.6362 11C12.6279 11 11 12.6283 11 14.6363C11 16.6444 12.6279 18.2727 14.6362 18.2727C16.6444 18.2727 18.2723 16.6444 18.2723 14.6363C18.2723 12.6283 16.6444 11 14.6362 11ZM14.6362 16.818C13.4333 16.818 12.4542 15.8395 12.4542 14.6363C12.4542 13.4331 13.4333 12.4546 14.6362 12.4546C15.839 12.4546 16.8181 13.4331 16.8181 14.6363C16.8181 15.8395 15.839 16.818 14.6362 16.818ZM23.3638 19.7268C21.3556 19.7268 19.7277 21.3551 19.7277 23.3631C19.7277 25.3712 21.3556 27 23.3638 27C25.3721 27 27 25.3712 27 23.3631C27 21.3551 25.3721 19.7268 23.3638 19.7268ZM23.3638 25.5448C22.161 25.5448 21.1819 24.5669 21.1819 23.3631C21.1819 22.1594 22.161 21.1814 23.3638 21.1814C24.5667 21.1814 25.5458 22.1594 25.5458 23.3631C25.5458 24.5669 24.5667 25.5448 23.3638 25.5448Z" fill="#CC261F"/>
</svg>
