<svg width="24" height="24" viewBox="0 0 24 24" fill="none" xmlns="http://www.w3.org/2000/svg">
<path d="M12 3C7.03725 3 3 7.03725 3 12C3 16.9628 7.03725 21 12 21C16.9628 21 21 16.9628 21 12C21 7.03725 16.9628 3 12 3ZM9 18.873V18.75C9 17.0955 10.3455 15.75 12 15.75C13.6545 15.75 15 17.0955 15 18.75V18.873C14.0805 19.2757 13.0665 19.5 12 19.5C10.9335 19.5 9.9195 19.2757 9 18.873ZM16.4437 18.0382C16.1017 15.894 14.2395 14.25 12 14.25C9.7605 14.25 7.899 15.894 7.55625 18.0382C5.70375 16.671 4.5 14.4735 4.5 12C4.5 7.8645 7.8645 4.5 12 4.5C16.1355 4.5 19.5 7.8645 19.5 12C19.5 14.4735 18.2962 16.671 16.4437 18.0382ZM12 6.75C10.3455 6.75 9 8.0955 9 9.75C9 11.4045 10.3455 12.75 12 12.75C13.6545 12.75 15 11.4045 15 9.75C15 8.0955 13.6545 6.75 12 6.75ZM12 11.25C11.1727 11.25 10.5 10.5773 10.5 9.75C10.5 8.92275 11.1727 8.25 12 8.25C12.8273 8.25 13.5 8.92275 13.5 9.75C13.5 10.5773 12.8273 11.25 12 11.25Z" fill="#CC261F"/>
</svg>
