<svg width="24" height="24" viewBox="0 0 24 24" fill="none" xmlns="http://www.w3.org/2000/svg">
<path d="M15.8333 3.66667H15.6908C15.3467 2.69667 14.42 2 13.3333 2H11.6667C10.58 2 9.65333 2.69667 9.30917 3.66667H9.16667C6.86917 3.66667 5 5.53583 5 7.83333V17.8333C5 20.1308 6.86917 22 9.16667 22H15.8333C18.1308 22 20 20.1308 20 17.8333V7.83333C20 5.53583 18.1308 3.66667 15.8333 3.66667ZM18.3333 17.8333C18.3333 19.2117 17.2117 20.3333 15.8333 20.3333H9.16667C7.78833 20.3333 6.66667 19.2117 6.66667 17.8333V7.83333C6.66667 6.455 7.78833 5.33333 9.16667 5.33333H10C10.4608 5.33333 10.8333 4.96 10.8333 4.5C10.8333 4.04 11.2067 3.66667 11.6667 3.66667H13.3333C13.7933 3.66667 14.1667 4.04083 14.1667 4.5C14.1667 4.95917 14.5392 5.33333 15 5.33333H15.8333C17.2117 5.33333 18.3333 6.455 18.3333 7.83333V17.8333ZM12.6725 8.6975C12.9983 9.0225 12.9983 9.55 12.6725 9.87583L11.1367 11.4117C10.7425 11.8058 10.23 12.0033 9.7175 12.0033C9.2225 12.0033 8.7275 11.8192 8.3375 11.45L7.79667 10.9375C7.4625 10.6208 7.44833 10.0933 7.765 9.75917C8.08167 9.42417 8.60833 9.41167 8.9425 9.72667L9.4825 10.2383C9.61917 10.3667 9.82833 10.3625 9.95833 10.2317L11.4942 8.69583C11.82 8.37 12.3467 8.37 12.6725 8.69583V8.6975ZM12.6725 13.6975C12.9983 14.0225 12.9983 14.55 12.6725 14.8758L11.1367 16.4117C10.7425 16.8058 10.23 17.0033 9.7175 17.0033C9.2225 17.0033 8.7275 16.8192 8.3375 16.45L7.79667 15.9375C7.4625 15.6208 7.44833 15.0933 7.765 14.7592C8.08167 14.425 8.60833 14.4108 8.9425 14.7267L9.4825 15.2383C9.61917 15.3667 9.82833 15.3633 9.95833 15.2317L11.4942 13.6958C11.82 13.37 12.3467 13.37 12.6725 13.6958V13.6975ZM16.6667 11.1667C16.6667 11.6267 16.2942 12 15.8333 12H14.1667C13.7058 12 13.3333 11.6267 13.3333 11.1667C13.3333 10.7067 13.7058 10.3333 14.1667 10.3333H15.8333C16.2942 10.3333 16.6667 10.7067 16.6667 11.1667ZM16.6667 16.1667C16.6667 16.6267 16.2942 17 15.8333 17H14.1667C13.7058 17 13.3333 16.6267 13.3333 16.1667C13.3333 15.7067 13.7058 15.3333 14.1667 15.3333H15.8333C16.2942 15.3333 16.6667 15.7067 16.6667 16.1667Z" fill="#444444"/>
</svg>
