<svg width="24" height="24" viewBox="0 0 24 24" fill="none" xmlns="http://www.w3.org/2000/svg">
<path d="M20.4633 5.43326C20.247 5.149 19.9762 4.92038 19.6702 4.76363C19.3642 4.60689 19.0304 4.52586 18.6926 4.52632H6.26153L6.22924 4.23074C6.16316 3.61635 5.89354 3.04988 5.47152 2.63872C5.04949 2.22756 4.50439 2.00029 3.93956 2L3.76887 2C3.56495 2 3.36939 2.08872 3.2252 2.24665C3.08101 2.40457 3 2.61877 3 2.84211C3 3.06545 3.08101 3.27964 3.2252 3.43756C3.36939 3.59549 3.56495 3.68421 3.76887 3.68421H3.93956C4.12788 3.68424 4.30964 3.75996 4.45037 3.89702C4.5911 4.03408 4.68101 4.22295 4.70304 4.42779L5.761 14.2804C5.87084 15.3051 6.32033 16.2499 7.02418 16.9356C7.72802 17.6213 8.63722 18 9.5792 18H17.6085C17.8124 18 18.008 17.9113 18.1521 17.7534C18.2963 17.5954 18.3773 17.3812 18.3773 17.1579C18.3773 16.9346 18.2963 16.7204 18.1521 16.5624C18.008 16.4045 17.8124 16.3158 17.6085 16.3158H9.5792C9.10331 16.3143 8.63949 16.1517 8.25131 15.8502C7.86314 15.5486 7.56962 15.123 7.41099 14.6316H16.5759C17.4772 14.6316 18.3499 14.2848 19.0415 13.6517C19.7331 13.0186 20.1996 12.1395 20.3595 11.168L20.963 7.50147C21.0233 7.13769 21.0097 6.76385 20.9234 6.40643C20.837 6.04902 20.6799 5.71678 20.4633 5.43326ZM19.4538 7.20253L18.8494 10.8691C18.7534 11.4526 18.473 11.9806 18.0574 12.3606C17.6417 12.7406 17.1173 12.9483 16.5759 12.9474H7.16649L6.44299 6.21053H18.6926C18.8055 6.20979 18.9172 6.23631 19.0198 6.28821C19.1223 6.34012 19.2131 6.41612 19.2858 6.51083C19.3584 6.60553 19.4112 6.71661 19.4402 6.83616C19.4692 6.95571 19.4739 7.0808 19.4538 7.20253Z" fill="#444444"/>
<path d="M8.5 22C9.32843 22 10 21.3284 10 20.5C10 19.6716 9.32843 19 8.5 19C7.67157 19 7 19.6716 7 20.5C7 21.3284 7.67157 22 8.5 22Z" fill="#444444"/>
<path d="M16.5 22C17.3284 22 18 21.3284 18 20.5C18 19.6716 17.3284 19 16.5 19C15.6716 19 15 19.6716 15 20.5C15 21.3284 15.6716 22 16.5 22Z" fill="#444444"/>
</svg>
