<svg width="24" height="24" viewBox="0 0 24 24" fill="none" xmlns="http://www.w3.org/2000/svg">
<path d="M17.25 3H10.5C8.43225 3 6.75 4.68225 6.75 6.75V7.5H6.375C4.51425 7.5 3 9.01425 3 10.875V18.375C3 19.8218 4.17675 20.9993 5.62425 21H17.25C19.3177 21 21 19.3177 21 17.25V6.75C21 4.68225 19.3177 3 17.25 3ZM6.75 18.375C6.75 18.9952 6.24525 19.5 5.625 19.5C5.00475 19.5 4.5 18.9952 4.5 18.375V10.875C4.5 9.8415 5.3415 9 6.375 9H6.75V18.375ZM19.5 17.25C19.5 18.4905 18.4905 19.5 17.25 19.5H7.9965C8.1585 19.1588 8.25 18.7778 8.25 18.375V6.75C8.25 5.5095 9.2595 4.5 10.5 4.5H17.25C18.4905 4.5 19.5 5.5095 19.5 6.75V17.25ZM18 8.25C18 8.664 17.664 9 17.25 9H15C14.586 9 14.25 8.664 14.25 8.25C14.25 7.836 14.586 7.5 15 7.5H17.25C17.664 7.5 18 7.836 18 8.25ZM18 11.25C18 11.664 17.664 12 17.25 12H10.5C10.086 12 9.75 11.664 9.75 11.25C9.75 10.836 10.086 10.5 10.5 10.5H17.25C17.664 10.5 18 10.836 18 11.25ZM18 14.25C18 14.664 17.664 15 17.25 15H10.5C10.086 15 9.75 14.664 9.75 14.25C9.75 13.836 10.086 13.5 10.5 13.5H17.25C17.664 13.5 18 13.836 18 14.25ZM18 17.25C18 17.664 17.664 18 17.25 18H10.5C10.086 18 9.75 17.664 9.75 17.25C9.75 16.836 10.086 16.5 10.5 16.5H17.25C17.664 16.5 18 16.836 18 17.25ZM9.75 8.25V6.75C9.75 6.336 10.086 6 10.5 6H12C12.414 6 12.75 6.336 12.75 6.75V8.25C12.75 8.664 12.414 9 12 9H10.5C10.086 9 9.75 8.664 9.75 8.25Z" fill="#444444"/>
</svg>
