<svg width="60" height="60" viewBox="0 0 60 60" fill="none" xmlns="http://www.w3.org/2000/svg">
<path d="M56.7319 26.4487L56.2431 25.8787C55.163 24.6175 54.4828 22.0797 54.7871 20.4468L54.9256 19.7093C55.158 18.4746 54.917 17.157 54.2488 16C53.5805 14.843 52.5602 13.9757 51.3759 13.5588L50.6667 13.3093C49.0996 12.7572 47.242 10.8996 46.69 9.3325L46.4405 8.62495C45.6988 6.51773 43.5028 4.98823 41.2161 4.98823C40.905 4.98823 40.594 5.01733 40.2915 5.07366L39.5532 5.21213C39.2917 5.2608 38.9996 5.28562 38.6868 5.28562C37.0752 5.28562 35.1543 4.64217 34.1204 3.75612L33.5513 3.2682C32.5977 2.4503 31.3365 2 30 2C28.6635 2 27.4023 2.4503 26.4487 3.26809L25.8796 3.75602C24.8457 4.64217 22.9248 5.28552 21.3132 5.28552C20.9988 5.28552 20.7083 5.26069 20.4468 5.21202L19.7085 5.07355C19.403 5.01689 19.0929 4.98859 18.7822 4.989C16.4972 4.989 14.3012 6.51773 13.5578 8.62484L13.3099 9.33239C12.7579 10.8995 10.8985 12.7571 9.33316 13.3092L8.62397 13.5586C7.43966 13.9756 6.41941 14.8429 5.75113 15.9999C5.08284 17.1569 4.842 18.4745 5.07431 19.7092L5.21103 20.4466C5.51695 22.0796 4.83675 24.6174 3.75667 25.8786L3.26787 26.4486C2.44942 27.4032 2 28.6644 2 30C2 31.3356 2.45117 32.5977 3.26809 33.5513L3.75689 34.1204C4.83697 35.3816 5.51717 37.9194 5.21125 39.5532L5.07453 40.2915C4.84211 41.5254 5.08306 42.843 5.75134 44C6.41963 45.157 7.43987 46.0234 8.62583 46.4404L9.33337 46.6899C10.8987 47.2419 12.7581 49.0995 13.3101 50.6666L13.5596 51.3758C14.3013 53.4813 16.4973 55.0108 18.7823 55.0108C19.0967 55.0108 19.4078 54.9817 19.7086 54.9254L20.4469 54.7869C20.7084 54.739 20.9989 54.7151 21.3133 54.7151C22.9249 54.7151 24.8458 55.3577 25.878 56.243L26.4488 56.7318C27.4023 57.5488 28.6635 58 30 58C31.3365 58 32.5977 57.5488 33.5513 56.7319L34.1204 56.2431C35.1543 55.3578 37.0752 54.7152 38.6868 54.7152C39.0012 54.7152 39.2917 54.7392 39.5532 54.787L40.2898 54.9271C40.5923 54.9818 40.9033 55.0109 41.2161 55.0109C43.5027 55.0109 45.6987 53.4814 46.4405 51.3759L46.69 50.6667C47.242 49.0996 49.0996 47.242 50.6667 46.69L51.3759 46.4405C52.5602 46.0235 53.5805 45.1571 54.2488 44.0001C54.917 42.8431 55.1562 41.5255 54.9256 40.2916L54.7871 39.5534C54.4829 37.9195 55.1631 35.3817 56.2431 34.1222L56.7319 33.5514C57.5488 32.5977 58 31.3365 58 30C58 28.6644 57.5488 27.4032 56.7319 26.4487ZM54.9597 32.0337L54.4727 32.6012C52.926 34.4058 52.0579 37.6478 52.4936 39.9822L52.6321 40.7188C52.8988 42.1474 51.9691 43.7573 50.6001 44.2393L49.8926 44.4888C47.6521 45.2784 45.2783 47.6521 44.4888 49.8926L44.241 50.6001C43.8223 51.7844 42.5234 52.6782 41.2161 52.6782C41.0486 52.6782 40.8812 52.6628 40.7205 52.6338L39.9822 52.4937C39.5806 52.4185 39.1448 52.381 38.6868 52.381C36.5061 52.381 34.0605 53.2218 32.6028 54.4728L32.032 54.9616C31.5005 55.4161 30.7793 55.6657 30 55.6657C29.2207 55.6657 28.4995 55.4162 27.968 54.9616L27.3972 54.4728C25.9377 53.2217 23.4938 52.381 21.3132 52.381C20.8552 52.381 20.4194 52.4186 20.0178 52.4937L19.2795 52.6322C19.1156 52.6633 18.949 52.6787 18.7822 52.6784C17.4765 52.6784 16.176 51.7845 15.7589 50.6002L15.5095 49.8927C14.7216 47.6505 12.3479 45.2784 10.1073 44.4889L9.39977 44.2394C8.03105 43.7573 7.09961 42.1474 7.36791 40.7188L7.50638 39.9822C7.94213 37.6461 7.07402 34.4058 5.52734 32.6012L5.0403 32.0337C4.09519 30.9306 4.09519 29.0694 5.0403 27.9672L5.52734 27.3972C7.07402 25.5943 7.94212 22.3523 7.50462 20.0178L7.36791 19.2795C7.09961 17.8534 8.03094 16.2418 9.39987 15.7598L10.1074 15.5103C12.3479 14.7207 14.7217 12.3479 15.5096 10.1074L15.759 9.39987C16.176 8.21556 17.4766 7.32175 18.7823 7.32175C18.9515 7.32175 19.1189 7.33717 19.2796 7.36703L20.0179 7.5055C20.4195 7.58075 20.8553 7.61914 21.3133 7.61914C23.494 7.61914 25.9378 6.77827 27.3973 5.52822L27.9681 5.03942C28.4996 4.58398 29.2208 4.33363 30.0001 4.33363C30.7794 4.33363 31.5006 4.58398 32.0321 5.03942L32.6029 5.52822C34.0607 6.77838 36.5063 7.61914 38.6869 7.61914C39.145 7.61914 39.5807 7.58064 39.9823 7.5055L40.7206 7.36703C40.8813 7.33717 41.0487 7.32175 41.2162 7.32175C42.5235 7.32175 43.8241 8.21469 44.2411 9.39987L44.4889 10.1074C45.2785 12.3479 47.6523 14.7209 49.8927 15.5103L50.6002 15.7598C51.9692 16.2417 52.9005 17.8534 52.6322 19.2795L52.4937 20.0178C52.058 22.3523 52.9261 25.5942 54.4728 27.3981L54.9598 27.9672C55.9048 29.0694 55.9048 30.9306 54.9597 32.0337Z" fill="#CC261F"/>
<path d="M40.9101 18C40.7668 17.9998 40.6248 18.028 40.4923 18.0828C40.3598 18.1377 40.2395 18.2181 40.1382 18.3196L18.3196 40.1368C18.2181 40.2377 18.1377 40.3578 18.0828 40.4899C18.028 40.6221 17.9998 40.7639 18 40.907C18 41.511 18.4875 42 19.0899 42C19.3919 42 19.6635 41.877 19.8618 41.6804L41.6804 19.8624C41.782 19.7614 41.8626 19.6412 41.9174 19.5089C41.9723 19.3766 42.0003 19.2347 42 19.0914C42 18.4889 41.5125 18 40.9101 18ZM23.4542 18C20.4419 18 18 20.4424 18 23.4545C18 26.4666 20.4419 28.909 23.4542 28.909C26.4666 28.909 28.9085 26.4666 28.9085 23.4545C28.9085 20.4424 26.4666 18 23.4542 18ZM23.4542 26.7271C21.65 26.7271 20.1814 25.2593 20.1814 23.4545C20.1814 21.6497 21.65 20.182 23.4542 20.182C25.2585 20.182 26.7271 21.6497 26.7271 23.4545C26.7271 25.2593 25.2585 26.7271 23.4542 26.7271ZM36.5457 31.0902C33.5334 31.0902 31.0915 33.5326 31.0915 36.5447C31.0915 39.5567 33.5334 42 36.5457 42C39.5581 42 42 39.5567 42 36.5447C42 33.5326 39.5581 31.0902 36.5457 31.0902ZM36.5457 39.8172C34.7415 39.8172 33.2729 38.3503 33.2729 36.5447C33.2729 34.739 34.7415 33.2721 36.5457 33.2721C38.35 33.2721 39.8186 34.739 39.8186 36.5447C39.8186 38.3503 38.35 39.8172 36.5457 39.8172Z" fill="#CC261F"/>
</svg>
