<svg width="60" height="60" viewBox="0 0 60 60" fill="none" xmlns="http://www.w3.org/2000/svg">
<path d="M8.08785 51.5139H8.07941C7.61366 51.5139 7.24072 51.8911 7.24072 52.3577C7.24072 52.8243 7.6221 53.2014 8.08869 53.2014C8.31247 53.2013 8.52703 53.1123 8.68519 52.954C8.84334 52.7957 8.93213 52.581 8.93202 52.3573C8.93191 52.1335 8.84291 51.9189 8.68459 51.7608C8.52628 51.6026 8.31162 51.5138 8.08785 51.5139Z" fill="#CC261F"/>
<path d="M52.7812 36.3264C52.5416 36.3264 52.3012 36.3458 52.0649 36.3855L52.0556 36.3889L36.626 38.7379C36.4423 37.9379 36.0276 37.2095 35.4334 36.6432C34.8392 36.0769 34.0918 35.6977 33.2839 35.5527C33.2797 35.5519 33.2763 35.5485 33.2721 35.5476L20.0353 32.9666C20.0075 32.9607 19.9813 32.97 19.9526 32.9666C19.9256 32.9641 19.9012 32.9506 19.8733 32.9506H13.1233V32.1068C13.1233 31.8831 13.0344 31.6684 12.8762 31.5102C12.7179 31.352 12.5033 31.2631 12.2796 31.2631H3.84375C3.61997 31.2631 3.40536 31.352 3.24713 31.5102C3.08889 31.6684 3 31.8831 3 32.1068V54.8881C3 55.1119 3.08889 55.3265 3.24713 55.4847C3.40536 55.6429 3.61997 55.7318 3.84375 55.7318H12.2812C12.505 55.7318 12.7196 55.6429 12.8779 55.4847C13.0361 55.3265 13.125 55.1119 13.125 54.8881V54.1616L31.5787 56.5688C31.615 56.5738 31.6517 56.5764 31.6883 56.5764C31.7787 56.5746 31.8682 56.5581 31.9533 56.5275L32.0191 56.5022C32.041 56.4921 32.0647 56.487 32.0866 56.476L54.8678 44.2104L54.8721 44.2071L54.8915 44.1986C55.5318 43.8273 56.0636 43.2945 56.4336 42.6534C56.8036 42.0123 56.9989 41.2854 57 40.5452C57 38.219 55.1075 36.3264 52.7812 36.3264ZM11.4375 54.0452H4.6875V32.9514H11.4375V54.0452ZM54.0595 42.7288L31.5263 54.8611L13.125 52.4606V34.6389H19.7932L32.9497 37.2039L32.9616 37.2048C32.9641 37.2056 32.9649 37.2073 32.9675 37.2073C33.5551 37.3084 34.0879 37.6144 34.4714 38.0709C34.855 38.5275 35.0644 39.1052 35.0625 39.7014C35.0618 40.0554 34.987 40.4054 34.8429 40.7287C34.6987 41.052 34.4884 41.3416 34.2256 41.5787C33.9627 41.8158 33.6531 41.9952 33.3166 42.1054C32.9802 42.2156 32.6244 42.254 32.2722 42.2183C32.2663 42.2175 32.2621 42.22 32.2562 42.2192C32.2503 42.2192 32.2461 42.2158 32.2402 42.215L21.6266 41.3906C21.5162 41.3821 21.4051 41.3954 21.2998 41.4298C21.1944 41.4642 21.0969 41.519 21.0128 41.5911C20.9286 41.6631 20.8595 41.7511 20.8093 41.8499C20.7592 41.9487 20.729 42.0564 20.7204 42.1669C20.7119 42.2773 20.7252 42.3884 20.7596 42.4937C20.794 42.5991 20.8488 42.6966 20.9209 42.7807C20.993 42.8649 21.0809 42.934 21.1797 42.9842C21.2785 43.0343 21.3862 43.0645 21.4967 43.0731L32.1102 43.8974L32.176 43.8999H32.1777C32.2942 43.91 32.4106 43.9193 32.5304 43.9193C34.6043 43.9193 36.3239 42.4116 36.6749 40.4363L52.3315 38.0527L52.34 38.0494H52.3433C52.7073 37.986 53.0808 38.003 53.4375 38.0992C53.7942 38.1953 54.1256 38.3683 54.4085 38.606C54.6913 38.8437 54.9188 39.1403 55.075 39.4751C55.2311 39.81 55.3122 40.1749 55.3125 40.5443C55.3118 40.986 55.1958 41.4198 54.9761 41.8029C54.7563 42.186 54.4404 42.5052 54.0595 42.7288ZM24.9383 3.42355C23.077 3.42355 21.5633 4.93724 21.5633 6.79855V28.7344C21.5633 30.5957 23.077 32.1094 24.9383 32.1094H46.8742C48.7355 32.1094 50.2492 30.5957 50.2492 28.7344V6.79855C50.2492 4.93724 48.7355 3.42355 46.8742 3.42355H24.9383ZM48.5617 6.79855V28.7344C48.5617 29.665 47.8048 30.4219 46.8742 30.4219H24.9383C24.0077 30.4219 23.2508 29.665 23.2508 28.7344V6.79855C23.2508 5.8679 24.0077 5.11105 24.9383 5.11105H46.8742C47.8048 5.11105 48.5617 5.8679 48.5617 6.79855Z" fill="#CC261F"/>
<path d="M46.0297 6.80531H25.7822C25.5585 6.80531 25.3438 6.89421 25.1856 7.05244C25.0274 7.21068 24.9385 7.42529 24.9385 7.64906V27.8957C24.9385 28.1195 25.0274 28.3341 25.1856 28.4923C25.3438 28.6505 25.5585 28.7394 25.7822 28.7394H35.8895L35.9064 28.7403L35.9233 28.7394H46.0305C46.2543 28.7394 46.4689 28.6505 46.6272 28.4923C46.7854 28.3341 46.8743 28.1195 46.8743 27.8957V7.64906C46.8743 7.53819 46.8524 7.4284 46.81 7.32598C46.7675 7.22356 46.7053 7.1305 46.6269 7.05214C46.5484 6.97378 46.4553 6.91165 46.3528 6.8693C46.2504 6.82694 46.1406 6.8052 46.0297 6.80531ZM45.1859 8.49281V11.867H38.4376V10.1795C38.4376 9.95569 38.3487 9.74108 38.1905 9.58285C38.0323 9.42461 37.8177 9.33572 37.5939 9.33572H34.2189C33.9951 9.33572 33.7805 9.42461 33.6223 9.58285C33.464 9.74108 33.3751 9.95569 33.3751 10.1795V11.867H26.626V8.49281H45.1859ZM35.0626 14.3982V11.0232H36.7501V14.3982H35.0626ZM32.9524 24.0997C32.9524 22.4712 34.2771 21.1465 35.9055 21.1465C37.534 21.1465 38.8587 22.4712 38.8587 24.0997C38.8578 24.8811 38.5475 25.6303 37.9957 26.1836C37.4438 26.7368 36.6954 27.049 35.914 27.0519H35.8971C35.1157 27.049 34.3672 26.7368 33.8154 26.1836C33.2636 25.6303 32.9533 24.8811 32.9524 24.0997ZM39.483 27.0519C40.1709 26.222 40.547 25.1776 40.5462 24.0997C40.5462 21.5414 38.4638 19.459 35.9055 19.459C33.3473 19.459 31.2649 21.5414 31.2649 24.0997C31.2649 25.2202 31.6649 26.2495 32.328 27.0519H26.626V13.5545H33.3751V15.242C33.3751 15.4657 33.464 15.6804 33.6223 15.8386C33.7805 15.9968 33.9951 16.0857 34.2189 16.0857H35.0626C35.0626 16.3095 35.1515 16.5241 35.3098 16.6823C35.468 16.8406 35.6826 16.9295 35.9064 16.9295C36.1302 16.9295 36.3448 16.8406 36.503 16.6823C36.6612 16.5241 36.7501 16.3095 36.7501 16.0857H37.5939C37.8177 16.0857 38.0323 15.9968 38.1905 15.8386C38.3487 15.6804 38.4376 15.4657 38.4376 15.242V13.5545H45.1859V27.0519H39.483Z" fill="#CC261F"/>
</svg>
