<svg width="60" height="60" viewBox="0 0 60 60" fill="none" xmlns="http://www.w3.org/2000/svg">
<path d="M0.937501 6.5625C0.814343 6.56265 0.692365 6.53851 0.578553 6.49145C0.46474 6.44439 0.36133 6.37534 0.274244 6.28826C0.187158 6.20117 0.118109 6.09776 0.0710495 5.98395C0.0239904 5.87014 -0.000153502 5.74816 7.34325e-07 5.625C7.34325e-07 2.5227 2.5227 0 5.625 0C6.14367 0 6.5625 0.418828 6.5625 0.9375C6.5625 1.45617 6.14367 1.875 5.625 1.875C3.55688 1.875 1.875 3.55687 1.875 5.625C1.875 6.14367 1.45617 6.5625 0.937501 6.5625ZM47.8125 6.5625C47.6893 6.56265 47.5674 6.53851 47.4536 6.49145C47.3397 6.44439 47.2363 6.37534 47.1492 6.28826C47.0622 6.20117 46.9931 6.09776 46.946 5.98395C46.899 5.87014 46.8748 5.74816 46.875 5.625C46.875 3.55687 45.1931 1.875 43.125 1.875C41.0569 1.875 39.375 3.55687 39.375 5.625C39.375 6.14367 38.9562 6.5625 38.4375 6.5625C37.9188 6.5625 37.5 6.14367 37.5 5.625C37.5 2.5227 40.0227 0 43.125 0C46.2273 0 48.75 2.5227 48.75 5.625C48.75 6.14367 48.3312 6.5625 47.8125 6.5625Z" fill="#CC261F"/>
<path d="M43.125 1.875H5.625C5.10633 1.875 4.6875 1.45617 4.6875 0.9375C4.6875 0.418828 5.10633 0 5.625 0H43.125C43.6437 0 44.0625 0.418828 44.0625 0.9375C44.0625 1.45617 43.6437 1.875 43.125 1.875ZM38.4375 6.5625H0.9375C0.418828 6.5625 0 6.14367 0 5.625C0 5.10633 0.418828 4.6875 0.9375 4.6875H38.4375C38.9562 4.6875 39.375 5.10633 39.375 5.625C39.375 6.14367 38.9562 6.5625 38.4375 6.5625ZM15 60C11.8977 60 9.375 57.4773 9.375 54.375C9.375 53.8563 9.79383 53.4375 10.3125 53.4375C10.8312 53.4375 11.25 53.8563 11.25 54.375C11.25 56.4431 12.9319 58.125 15 58.125C15.5187 58.125 15.9375 58.5438 15.9375 59.0625C15.9375 59.5812 15.5187 60 15 60ZM52.5 60C49.3977 60 46.875 57.4773 46.875 54.375C46.875 53.8563 47.2938 53.4375 47.8125 53.4375C48.3312 53.4375 48.75 53.8563 48.75 54.375C48.75 56.4431 50.4319 58.125 52.5 58.125C54.5681 58.125 56.25 56.4431 56.25 54.375C56.25 53.8563 56.6688 53.4375 57.1875 53.4375C57.7062 53.4375 58.125 53.8563 58.125 54.375C58.125 57.4773 55.6023 60 52.5 60Z" fill="#CC261F"/>
<path d="M52.5009 60H15.0009C14.4827 60 14.0634 59.5812 14.0634 59.0625C14.0634 58.5438 14.4827 58.125 15.0009 58.125H52.5009C53.0196 58.125 53.4384 58.5438 53.4384 59.0625C53.4384 59.5812 53.0196 60 52.5009 60ZM47.8125 55.3125C47.6893 55.3127 47.5674 55.2885 47.4536 55.2415C47.3397 55.1944 47.2363 55.1253 47.1492 55.0383C47.0622 54.9512 46.9931 54.8478 46.9461 54.7339C46.899 54.6201 46.8748 54.4982 46.875 54.375V5.625C46.875 5.10633 47.2938 4.6875 47.8125 4.6875C48.3312 4.6875 48.75 5.10633 48.75 5.625V54.375C48.75 54.8937 48.3312 55.3125 47.8125 55.3125ZM10.3125 55.3125C10.1893 55.3127 10.0674 55.2885 9.95355 55.2415C9.83974 55.1944 9.73633 55.1253 9.64924 55.0383C9.56216 54.9512 9.49311 54.8478 9.44605 54.7339C9.39899 54.6201 9.37485 54.4982 9.375 54.375V5.625C9.375 5.10633 9.79383 4.6875 10.3125 4.6875C10.8312 4.6875 11.25 5.10633 11.25 5.625V54.375C11.25 54.8937 10.8312 55.3125 10.3125 55.3125Z" fill="#CC261F"/>
<path d="M57.1875 55.3125H47.8125C47.2938 55.3125 46.875 54.8937 46.875 54.375C46.875 53.8563 47.2938 53.4375 47.8125 53.4375H57.1875C57.7062 53.4375 58.125 53.8563 58.125 54.375C58.125 54.8937 57.7062 55.3125 57.1875 55.3125ZM34.6875 18.75C31.0698 18.75 28.125 15.8052 28.125 12.1875C28.125 11.6688 28.5438 11.25 29.0625 11.25C29.5812 11.25 30 11.6688 30 12.1875C30 14.7721 32.1029 16.875 34.6875 16.875C35.2062 16.875 35.625 17.2938 35.625 17.8125C35.625 18.3312 35.2062 18.75 34.6875 18.75Z" fill="#CC261F"/>
<path d="M23.4375 18.75C22.9188 18.75 22.5 18.3312 22.5 17.8125C22.5 17.2938 22.9188 16.875 23.4375 16.875C26.0221 16.875 28.125 14.7721 28.125 12.1875C28.125 11.6688 28.5438 11.25 29.0625 11.25C29.5812 11.25 30 11.6688 30 12.1875C30 15.8052 27.0552 18.75 23.4375 18.75ZM21.5625 18.75C20.0121 18.75 18.75 17.4879 18.75 15.9375C18.75 15.4188 19.1688 15 19.6875 15C20.2062 15 20.625 15.4188 20.625 15.9375C20.625 16.4548 21.0452 16.875 21.5625 16.875C22.0812 16.875 22.5 17.2938 22.5 17.8125C22.5 18.3312 22.0812 18.75 21.5625 18.75Z" fill="#CC261F"/>
<path d="M23.4375 18.75H21.5625C21.0438 18.75 20.625 18.3312 20.625 17.8125C20.625 17.2938 21.0438 16.875 21.5625 16.875H23.4375C23.9562 16.875 24.375 17.2938 24.375 17.8125C24.375 18.3312 23.9562 18.75 23.4375 18.75ZM19.6875 29.0625C19.5643 29.0627 19.4424 29.0385 19.3286 28.9915C19.2147 28.9444 19.1113 28.8753 19.0242 28.7883C18.9372 28.7012 18.8681 28.5978 18.821 28.4839C18.774 28.3701 18.7498 28.2482 18.75 28.125V15.9375C18.75 15.4188 19.1688 15 19.6875 15C20.2062 15 20.625 15.4188 20.625 15.9375V28.125C20.625 28.6437 20.2062 29.0625 19.6875 29.0625ZM29.0625 38.4384C28.9393 38.4386 28.8174 38.4144 28.7036 38.3674C28.5897 38.3203 28.4863 38.2513 28.3992 38.1642C28.3122 38.0771 28.2431 37.9737 28.196 37.8599C28.149 37.7461 28.1248 37.6241 28.125 37.5009C28.125 36.4669 28.9659 35.6259 30 35.6259C30.5187 35.6259 30.9375 36.0452 30.9375 36.5634C30.9375 37.0821 30.5187 37.5009 30 37.5009C30 38.0196 29.5812 38.4384 29.0625 38.4384Z" fill="#CC261F"/>
<path d="M29.0625 38.4384C28.9393 38.4386 28.8174 38.4144 28.7036 38.3674C28.5897 38.3203 28.4863 38.2513 28.3992 38.1642C28.3122 38.0771 28.2431 37.9737 28.196 37.8599C28.149 37.7461 28.1248 37.6241 28.125 37.5009V37.4991C27.6063 37.4991 27.1875 37.0812 27.1875 36.5625C27.1875 36.4394 27.2117 36.3176 27.2589 36.2039C27.306 36.0902 27.375 35.9869 27.4621 35.8999C27.5492 35.8129 27.6525 35.7439 27.7663 35.6969C27.88 35.6499 28.0019 35.6258 28.125 35.6259C29.1591 35.6259 30 36.4669 30 37.5009C30 38.0196 29.5812 38.4384 29.0625 38.4384Z" fill="#CC261F"/>
<path d="M28.125 37.5C22.9555 37.5 18.75 33.2945 18.75 28.125C18.75 27.6063 19.1688 27.1875 19.6875 27.1875C20.2062 27.1875 20.625 27.6063 20.625 28.125C20.625 32.2605 23.9895 35.625 28.125 35.625C28.6437 35.625 29.0625 36.0438 29.0625 36.5625C29.0625 37.0812 28.6437 37.5 28.125 37.5ZM36.5625 18.75C36.0438 18.75 35.625 18.3312 35.625 17.8125C35.625 17.2938 36.0438 16.875 36.5625 16.875C37.0798 16.875 37.5 16.4548 37.5 15.9375C37.5 15.4188 37.9188 15 38.4375 15C38.9562 15 39.375 15.4188 39.375 15.9375C39.375 17.4879 38.1129 18.75 36.5625 18.75Z" fill="#CC261F"/>
<path d="M36.5625 18.75H34.6875C34.1688 18.75 33.75 18.3312 33.75 17.8125C33.75 17.2938 34.1688 16.875 34.6875 16.875H36.5625C37.0812 16.875 37.5 17.2938 37.5 17.8125C37.5 18.3312 37.0812 18.75 36.5625 18.75Z" fill="#CC261F"/>
<path d="M38.4375 29.0625C38.3143 29.0627 38.1924 29.0385 38.0786 28.9915C37.9647 28.9444 37.8613 28.8753 37.7742 28.7883C37.6872 28.7012 37.6181 28.5978 37.5711 28.4839C37.524 28.3701 37.4998 28.2482 37.5 28.125V15.9375C37.5 15.4188 37.9188 15 38.4375 15C38.9562 15 39.375 15.4188 39.375 15.9375V28.125C39.375 28.6437 38.9562 29.0625 38.4375 29.0625Z" fill="#CC261F"/>
<path d="M30 37.5C29.4813 37.5 29.0625 37.0812 29.0625 36.5625C29.0625 36.0438 29.4813 35.625 30 35.625C34.1355 35.625 37.5 32.2605 37.5 28.125C37.5 27.6063 37.9188 27.1875 38.4375 27.1875C38.9562 27.1875 39.375 27.6063 39.375 28.125C39.375 33.2945 35.1695 37.5 30 37.5ZM29.0625 30.9375C28.9393 30.9377 28.8174 30.9135 28.7036 30.8665C28.5897 30.8194 28.4863 30.7503 28.3992 30.6633C28.3122 30.5762 28.2431 30.4728 28.196 30.3589C28.149 30.2451 28.1248 30.1232 28.125 30V22.5C28.125 21.9813 28.5438 21.5625 29.0625 21.5625C29.5812 21.5625 30 21.9813 30 22.5V30C30 30.5187 29.5812 30.9375 29.0625 30.9375ZM40.3125 44.0625H17.8125C17.2938 44.0625 16.875 43.6437 16.875 43.125C16.875 42.6063 17.2938 42.1875 17.8125 42.1875H40.3125C40.8312 42.1875 41.25 42.6063 41.25 43.125C41.25 43.6437 40.8312 44.0625 40.3125 44.0625ZM40.3125 47.8125H17.8125C17.2938 47.8125 16.875 47.3937 16.875 46.875C16.875 46.3563 17.2938 45.9375 17.8125 45.9375H40.3125C40.8312 45.9375 41.25 46.3563 41.25 46.875C41.25 47.3937 40.8312 47.8125 40.3125 47.8125ZM33.7509 51.5625H24.3741C23.8554 51.5625 23.4366 51.1437 23.4366 50.625C23.4366 50.1063 23.8554 49.6875 24.3741 49.6875H33.7509C34.2696 49.6875 34.6884 50.1063 34.6884 50.625C34.6884 51.1437 34.2696 51.5625 33.7509 51.5625Z" fill="#CC261F"/>
</svg>
