<svg width="60" height="60" viewBox="0 0 60 60" fill="none" xmlns="http://www.w3.org/2000/svg">
<path d="M2.8125 23.0661C2.68934 23.0663 2.56736 23.0421 2.45355 22.9951C2.33974 22.948 2.23633 22.879 2.14924 22.7919C2.06216 22.7048 1.99311 22.6014 1.94605 22.4876C1.89899 22.3738 1.87485 22.2518 1.875 22.1286V18.5037C1.875 17.985 2.29383 17.5662 2.8125 17.5662C3.33117 17.5662 3.75 17.985 3.75 18.5037V22.1286C3.75 22.6473 3.33117 23.0661 2.8125 23.0661ZM15.9375 23.0661C15.8143 23.0663 15.6924 23.0421 15.5786 22.9951C15.4647 22.948 15.3613 22.879 15.2742 22.7919C15.1872 22.7048 15.1181 22.6014 15.071 22.4876C15.024 22.3738 14.9998 22.2518 15 22.1286V17.9099C15 17.3917 15.4188 16.9724 15.9375 16.9724C16.4562 16.9724 16.875 17.3917 16.875 17.9099V22.1286C16.875 22.6473 16.4562 23.0661 15.9375 23.0661Z" fill="#CC261F"/>
<path d="M15.9375 18.8474C15.8143 18.8475 15.6924 18.8234 15.5786 18.7763C15.4647 18.7293 15.3613 18.6602 15.2742 18.5731C15.1872 18.4861 15.1181 18.3826 15.071 18.2688C15.024 18.155 14.9998 18.033 15 17.9099C15 14.5499 12.2662 11.8161 8.90531 11.8161C5.54531 11.8161 2.8125 14.55 2.8125 17.9099C2.8125 18.4286 2.39367 18.8474 1.875 18.8474C1.35633 18.8474 0.9375 18.4286 0.9375 17.9099C0.9375 13.5158 4.51219 9.94113 8.90531 9.94113C13.3003 9.94113 16.875 13.5158 16.875 17.9099C16.875 18.4286 16.4562 18.8474 15.9375 18.8474Z" fill="#CC261F"/>
<path d="M15.9384 20.1328C15.7942 20.1331 15.652 20.1001 15.5227 20.0363C15.3934 19.9725 15.2806 19.8798 15.1931 19.7652C13.3828 17.4009 12.8896 17.5969 11.0549 18.3234C9.29432 19.0211 6.63382 20.0757 1.72893 19.3003C1.60726 19.2812 1.49055 19.2383 1.38549 19.174C1.28043 19.1098 1.18909 19.0254 1.1167 18.9257C1.04432 18.8261 0.99231 18.7131 0.963661 18.5934C0.935013 18.4736 0.930287 18.3493 0.949755 18.2277C1.02944 17.7168 1.5119 17.3652 2.02237 17.4491C6.421 18.1434 8.69972 17.239 10.3651 16.5798C12.6233 15.6845 14.1385 15.3021 16.6818 18.6246C16.7567 18.7223 16.8116 18.8339 16.8434 18.9528C16.8752 19.0718 16.8832 19.1958 16.867 19.3179C16.8508 19.44 16.8107 19.5576 16.749 19.6642C16.6873 19.7707 16.6051 19.8641 16.5073 19.9389C16.3445 20.065 16.1443 20.1332 15.9384 20.1328Z" fill="#CC261F"/>
<path d="M12.1866 17.8884C12.0437 17.8885 11.9029 17.8554 11.775 17.7918C11.6645 17.7376 11.5658 17.6621 11.4844 17.5697C11.4031 17.4774 11.3407 17.3699 11.3009 17.2534C11.2612 17.1369 11.2447 17.0137 11.2525 16.8909C11.2604 16.7681 11.2923 16.648 11.3466 16.5375L13.2216 12.7198C13.4496 12.2543 14.0089 12.0639 14.4758 12.2918C14.9411 12.5193 15.1323 13.0819 14.9044 13.5461L13.0294 17.3633C12.952 17.5208 12.832 17.6535 12.683 17.7463C12.5341 17.8391 12.3621 17.8884 12.1866 17.8884ZM0.937501 35.25C0.814343 35.2502 0.692365 35.226 0.578553 35.179C0.46474 35.1319 0.36133 35.0628 0.274244 34.9758C0.187158 34.8887 0.118109 34.7853 0.0710495 34.6714C0.0239904 34.5576 -0.000153502 34.4357 7.34325e-07 34.3125C7.34325e-07 32.2444 1.68188 30.5625 3.75 30.5625C4.26867 30.5625 4.6875 30.9813 4.6875 31.5C4.6875 32.0187 4.26867 32.4375 3.75 32.4375C2.71594 32.4375 1.875 33.2784 1.875 34.3125C1.875 34.8312 1.45617 35.25 0.937501 35.25Z" fill="#CC261F"/>
<path d="M6.5625 32.443H3.75C3.62684 32.4432 3.50486 32.419 3.39105 32.372C3.27724 32.3249 3.17383 32.2558 3.08674 32.1688C2.99966 32.0817 2.93061 31.9783 2.88355 31.8645C2.83649 31.7506 2.81235 31.6287 2.8125 31.5055C2.8125 30.9873 3.23133 30.568 3.75 30.568H6.5625C7.08117 30.568 7.5 30.9873 7.5 31.5055C7.5 32.0242 7.08117 32.443 6.5625 32.443ZM0.937501 39.0036C0.814343 39.0038 0.692365 38.9796 0.578553 38.9326C0.46474 38.8855 0.36133 38.8165 0.274244 38.7294C0.187158 38.6423 0.118109 38.5389 0.0710495 38.4251C0.0239904 38.3113 -0.000153502 38.1893 7.34325e-07 38.0661V34.3125C7.34325e-07 33.7938 0.418829 33.375 0.937501 33.375C1.45617 33.375 1.875 33.7938 1.875 34.3125V38.0661C1.875 38.5848 1.45617 39.0036 0.937501 39.0036ZM17.8125 35.25C17.6893 35.2502 17.5674 35.226 17.4536 35.179C17.3397 35.1319 17.2363 35.0628 17.1492 34.9758C17.0622 34.8887 16.9931 34.7853 16.946 34.6714C16.899 34.5576 16.8748 34.4357 16.875 34.3125C16.875 33.2784 16.0341 32.4375 15 32.4375C14.4813 32.4375 14.0625 32.0187 14.0625 31.5C14.0625 30.9813 14.4813 30.5625 15 30.5625C17.0681 30.5625 18.75 32.2444 18.75 34.3125C18.75 34.8312 18.3312 35.25 17.8125 35.25Z" fill="#CC261F"/>
<path d="M15 32.443H12.1875C12.0643 32.4432 11.9424 32.419 11.8286 32.372C11.7147 32.3249 11.6113 32.2559 11.5242 32.1688C11.4372 32.0817 11.3681 31.9783 11.321 31.8645C11.274 31.7506 11.2498 31.6287 11.25 31.5055C11.25 30.9873 11.6688 30.568 12.1875 30.568H15C15.5187 30.568 15.9375 30.9873 15.9375 31.5055C15.9375 32.0242 15.5187 32.443 15 32.443ZM17.8125 39.0036C17.6893 39.0038 17.5674 38.9796 17.4536 38.9326C17.3397 38.8855 17.2363 38.8165 17.1492 38.7294C17.0622 38.6423 16.9931 38.5389 16.946 38.4251C16.899 38.3113 16.8748 38.1893 16.875 38.0661V34.3125C16.875 33.7938 17.2938 33.375 17.8125 33.375C18.3312 33.375 18.75 33.7938 18.75 34.3125V38.0661C18.75 38.5848 18.3312 39.0036 17.8125 39.0036Z" fill="#CC261F"/>
<path d="M17.8125 39.0036H0.937501C0.814343 39.0038 0.692365 38.9796 0.578553 38.9326C0.46474 38.8855 0.36133 38.8165 0.274244 38.7294C0.187158 38.6423 0.118109 38.5389 0.0710495 38.4251C0.0239904 38.3113 -0.000153502 38.1893 7.34325e-07 38.0661C7.34325e-07 37.5479 0.418829 37.1286 0.937501 37.1286H17.8125C18.3312 37.1286 18.75 37.5479 18.75 38.0661C18.75 38.5848 18.3312 39.0036 17.8125 39.0036ZM6.5625 32.443C6.43934 32.4432 6.31737 32.419 6.20355 32.372C6.08974 32.3249 5.98633 32.2559 5.89924 32.1688C5.81216 32.0817 5.74311 31.9783 5.69605 31.8645C5.64899 31.7506 5.62485 31.6287 5.625 31.5055V28.0516C5.625 27.5334 6.04383 27.1141 6.5625 27.1141C7.08117 27.1141 7.5 27.5334 7.5 28.0516V31.5055C7.5 32.0242 7.08117 32.443 6.5625 32.443ZM12.1875 32.4375C12.0643 32.4377 11.9424 32.4135 11.8286 32.3665C11.7147 32.3194 11.6113 32.2503 11.5242 32.1633C11.4372 32.0762 11.3681 31.9728 11.321 31.8589C11.274 31.7451 11.2498 31.6232 11.25 31.5V28.0516C11.25 27.5334 11.6688 27.1141 12.1875 27.1141C12.7062 27.1141 13.125 27.5334 13.125 28.0516V31.5C13.125 32.0187 12.7062 32.4375 12.1875 32.4375Z" fill="#CC261F"/>
<path d="M9.375 29.6214C5.23945 29.6214 1.875 26.2586 1.875 22.125C1.875 21.6063 2.29383 21.1875 2.8125 21.1875C3.33117 21.1875 3.75 21.6063 3.75 22.125C3.75 25.2254 6.2727 27.7464 9.375 27.7464C12.4773 27.7464 15 25.2254 15 22.125C15 21.6063 15.4188 21.1875 15.9375 21.1875C16.4562 21.1875 16.875 21.6063 16.875 22.125C16.875 26.2586 13.5105 29.6214 9.375 29.6214ZM7.50094 33.375C7.28957 33.3753 7.08428 33.3043 6.91836 33.1733C6.75245 33.0423 6.63564 32.8592 6.58688 32.6535C6.53812 32.4478 6.56027 32.2317 6.64974 32.0402C6.7392 31.8487 6.89074 31.693 7.07977 31.5984L8.95477 30.6609C9.41801 30.4311 9.98156 30.617 10.2131 31.0798C10.3244 31.3022 10.3427 31.5598 10.2641 31.7958C10.1854 32.0318 10.0163 32.2268 9.79383 32.3381L7.91883 33.2756C7.7892 33.3409 7.64608 33.3749 7.50094 33.375ZM11.25 33.375C11.1269 33.3751 11.005 33.3509 10.8912 33.3037C10.7775 33.2566 10.6742 33.1875 10.5872 33.1003C10.5 33.0133 10.4309 32.91 10.3837 32.7963C10.3365 32.6826 10.3122 32.5606 10.3122 32.4375C10.3122 32.3144 10.3365 32.1924 10.3837 32.0787C10.4309 31.965 10.5 31.8617 10.5872 31.7747L11.5247 30.8372C11.8914 30.4704 12.4836 30.4704 12.8503 30.8372C13.217 31.204 13.2171 31.7961 12.8503 32.1628L11.9128 33.1003C11.8258 33.1875 11.7225 33.2566 11.6088 33.3037C11.495 33.3509 11.3731 33.3751 11.25 33.375Z" fill="#CC261F"/>
<path d="M7.50004 33.375C7.37692 33.3751 7.255 33.3509 7.14126 33.3037C7.02752 33.2566 6.9242 33.1875 6.83723 33.1003L5.89973 32.1628C5.53293 31.7961 5.53293 31.2039 5.89973 30.8372C6.26653 30.4705 6.85868 30.4704 7.22536 30.8372L8.16286 31.7747C8.25002 31.8617 8.31918 31.965 8.36636 32.0787C8.41354 32.1924 8.43783 32.3144 8.43783 32.4375C8.43783 32.5606 8.41354 32.6826 8.36636 32.7963C8.31918 32.91 8.25002 33.0133 8.16286 33.1003C8.07588 33.1875 7.97257 33.2566 7.85883 33.3037C7.74509 33.3509 7.62316 33.3751 7.50004 33.375ZM11.2491 33.375C11.1086 33.375 10.9648 33.343 10.8312 33.2766L8.95622 32.3391C8.84608 32.284 8.74787 32.2078 8.6672 32.1148C8.58652 32.0218 8.52496 31.9138 8.48602 31.797C8.44708 31.6802 8.43154 31.5568 8.44027 31.434C8.449 31.3112 8.48185 31.1913 8.53692 31.0812C8.76942 30.6179 9.33297 30.432 9.79528 30.6619L11.6703 31.5994C12.1332 31.8309 12.3207 32.3945 12.0891 32.8577C12.0109 33.0134 11.8908 33.1442 11.7425 33.2356C11.5942 33.3269 11.4233 33.3752 11.2491 33.375ZM44.0625 23.0661C43.9394 23.0663 43.8174 23.0421 43.7036 22.9951C43.5898 22.948 43.4864 22.879 43.3993 22.7919C43.3122 22.7048 43.2432 22.6014 43.1961 22.4876C43.149 22.3738 43.1249 22.2518 43.125 22.1286V14.625C43.125 14.1063 43.5439 13.6875 44.0625 13.6875C44.5812 13.6875 45 14.1063 45 14.625V22.1286C45 22.6473 44.5812 23.0661 44.0625 23.0661ZM57.1875 23.0661C57.0644 23.0663 56.9424 23.0421 56.8286 22.9951C56.7148 22.948 56.6114 22.879 56.5243 22.7919C56.4372 22.7048 56.3682 22.6014 56.3211 22.4876C56.274 22.3738 56.2499 22.2518 56.25 22.1286V21.8539C56.25 21.3359 56.6689 20.9164 57.1875 20.9164C57.7062 20.9164 58.125 21.3359 58.125 21.8539V22.1286C58.125 22.6473 57.7062 23.0661 57.1875 23.0661ZM42.1875 35.25C42.0644 35.2502 41.9424 35.226 41.8286 35.179C41.7148 35.1319 41.6114 35.0628 41.5243 34.9758C41.4372 34.8887 41.3682 34.7853 41.3211 34.6714C41.274 34.5576 41.2499 34.4357 41.25 34.3125C41.25 32.2444 42.9319 30.5625 45 30.5625C45.5187 30.5625 45.9375 30.9813 45.9375 31.5C45.9375 32.0187 45.5187 32.4375 45 32.4375C43.966 32.4375 43.125 33.2784 43.125 34.3125C43.125 34.8312 42.7062 35.25 42.1875 35.25Z" fill="#CC261F"/>
<path d="M47.8125 32.443H45C44.8768 32.4432 44.7549 32.419 44.6411 32.372C44.5272 32.3249 44.4238 32.2558 44.3367 32.1688C44.2497 32.0817 44.1806 31.9783 44.1336 31.8645C44.0865 31.7506 44.0623 31.6287 44.0625 31.5055C44.0625 30.9873 44.4813 30.568 45 30.568H47.8125C48.3312 30.568 48.75 30.9873 48.75 31.5055C48.75 32.0242 48.3312 32.443 47.8125 32.443ZM42.1875 39.0036C42.0643 39.0038 41.9424 38.9796 41.8286 38.9326C41.7147 38.8855 41.6113 38.8165 41.5242 38.7294C41.4372 38.6423 41.3681 38.5389 41.3211 38.4251C41.274 38.3113 41.2498 38.1893 41.25 38.0661V34.3125C41.25 33.7938 41.6688 33.375 42.1875 33.375C42.7062 33.375 43.125 33.7938 43.125 34.3125V38.0661C43.125 38.5848 42.7062 39.0036 42.1875 39.0036ZM59.0625 35.25C58.9393 35.2502 58.8174 35.226 58.7036 35.179C58.5897 35.1319 58.4863 35.0628 58.3992 34.9758C58.3122 34.8887 58.2431 34.7853 58.1961 34.6714C58.149 34.5576 58.1248 34.4357 58.125 34.3125C58.125 33.2784 57.2841 32.4375 56.25 32.4375C55.7313 32.4375 55.3125 32.0187 55.3125 31.5C55.3125 30.9813 55.7313 30.5625 56.25 30.5625C58.3181 30.5625 60 32.2444 60 34.3125C60 34.8312 59.5812 35.25 59.0625 35.25Z" fill="#CC261F"/>
<path d="M56.25 32.443H53.4375C53.3143 32.4432 53.1924 32.419 53.0786 32.372C52.9647 32.3249 52.8613 32.2559 52.7742 32.1688C52.6872 32.0817 52.6181 31.9783 52.5711 31.8645C52.524 31.7506 52.4998 31.6287 52.5 31.5055C52.5 30.9873 52.9188 30.568 53.4375 30.568H56.25C56.7687 30.568 57.1875 30.9873 57.1875 31.5055C57.1875 32.0242 56.7687 32.443 56.25 32.443ZM59.0625 39.0036C58.9393 39.0038 58.8174 38.9796 58.7036 38.9326C58.5897 38.8855 58.4863 38.8165 58.3992 38.7294C58.3122 38.6423 58.2431 38.5389 58.1961 38.4251C58.149 38.3113 58.1248 38.1893 58.125 38.0661V34.3125C58.125 33.7938 58.5438 33.375 59.0625 33.375C59.5812 33.375 60 33.7938 60 34.3125V38.0661C60 38.5848 59.5812 39.0036 59.0625 39.0036Z" fill="#CC261F"/>
<path d="M59.0625 39.0036H42.1875C42.0643 39.0038 41.9424 38.9796 41.8286 38.9326C41.7147 38.8855 41.6113 38.8165 41.5242 38.7294C41.4372 38.6423 41.3681 38.5389 41.3211 38.4251C41.274 38.3113 41.2498 38.1893 41.25 38.0661C41.25 37.5479 41.6688 37.1286 42.1875 37.1286H59.0625C59.5812 37.1286 60 37.5479 60 38.0661C60 38.5848 59.5812 39.0036 59.0625 39.0036ZM47.8125 32.443C47.6893 32.4432 47.5674 32.419 47.4536 32.372C47.3397 32.3249 47.2363 32.2559 47.1492 32.1688C47.0622 32.0817 46.9931 31.9783 46.9461 31.8645C46.899 31.7506 46.8748 31.6287 46.875 31.5055V28.0516C46.875 27.5334 47.2938 27.1141 47.8125 27.1141C48.3312 27.1141 48.75 27.5334 48.75 28.0516V31.5055C48.75 32.0242 48.3312 32.443 47.8125 32.443ZM53.4375 32.4375C53.3143 32.4377 53.1924 32.4135 53.0786 32.3665C52.9647 32.3194 52.8613 32.2503 52.7742 32.1633C52.6872 32.0762 52.6181 31.9728 52.5711 31.8589C52.524 31.7451 52.4998 31.6232 52.5 31.5V28.0516C52.5 27.5334 52.9188 27.1141 53.4375 27.1141C53.9562 27.1141 54.375 27.5334 54.375 28.0516V31.5C54.375 32.0187 53.9562 32.4375 53.4375 32.4375Z" fill="#CC261F"/>
<path d="M50.625 29.6214C46.4895 29.6214 43.125 26.2586 43.125 22.125C43.125 21.6063 43.5438 21.1875 44.0625 21.1875C44.5812 21.1875 45 21.6063 45 22.125C45 25.2254 47.5227 27.7464 50.625 27.7464C53.7273 27.7464 56.25 25.2254 56.25 22.125C56.25 21.6063 56.6688 21.1875 57.1875 21.1875C57.7062 21.1875 58.125 21.6063 58.125 22.125C58.125 26.2586 54.7605 29.6214 50.625 29.6214ZM50.6241 34.3125C50.4392 34.312 50.2586 34.2572 50.1046 34.155L47.2921 32.28C47.1896 32.2117 47.1015 32.1239 47.033 32.0216C46.9644 31.9192 46.9168 31.8044 46.8926 31.6836C46.8685 31.5628 46.8685 31.4385 46.8925 31.3177C46.9165 31.1969 46.9641 31.082 47.0325 30.9796C47.3186 30.5493 47.8995 30.4321 48.3329 30.72L51.1454 32.595C51.2479 32.6633 51.336 32.7511 51.4045 32.8534C51.4731 32.9558 51.5207 33.0706 51.5449 33.1914C51.569 33.3122 51.569 33.4365 51.545 33.5573C51.521 33.6781 51.4734 33.793 51.405 33.8954C51.3194 34.024 51.2033 34.1294 51.067 34.2022C50.9307 34.275 50.7785 34.3129 50.6241 34.3125Z" fill="#CC261F"/>
<path d="M50.6259 34.3125C50.4715 34.3129 50.3193 34.275 50.183 34.2022C50.0467 34.1294 49.9306 34.024 49.845 33.8954C49.7766 33.793 49.729 33.6781 49.705 33.5573C49.681 33.4365 49.681 33.3122 49.7051 33.1914C49.7293 33.0706 49.7769 32.9558 49.8455 32.8534C49.914 32.7511 50.0021 32.6633 50.1046 32.595L52.9171 30.72C53.0195 30.6516 53.1344 30.6041 53.2552 30.5802C53.376 30.5562 53.5003 30.5563 53.6211 30.5804C53.7418 30.6045 53.8567 30.6521 53.959 30.7206C54.0613 30.7891 54.1492 30.8771 54.2175 30.9796C54.2859 31.082 54.3335 31.1969 54.3575 31.3177C54.3815 31.4385 54.3815 31.5628 54.3574 31.6836C54.3332 31.8044 54.2856 31.9192 54.217 32.0216C54.1485 32.1239 54.0604 32.2117 53.9579 32.28L51.1454 34.155C50.9914 34.2572 50.8108 34.312 50.6259 34.3125ZM18.75 45.5661C18.6268 45.5663 18.5049 45.5421 18.3911 45.4951C18.2772 45.448 18.1738 45.379 18.0867 45.2919C17.9997 45.2048 17.9306 45.1014 17.8835 44.9876C17.8365 44.8738 17.8123 44.7518 17.8125 44.6286C17.8125 41.5264 20.3352 39.0036 23.4375 39.0036C23.9562 39.0036 24.375 39.4229 24.375 39.9411C24.375 40.4598 23.9562 40.8786 23.4375 40.8786C21.3694 40.8786 19.6875 42.5605 19.6875 44.6286C19.6875 45.1473 19.2687 45.5661 18.75 45.5661Z" fill="#CC261F"/>
<path d="M26.25 40.8786H23.4375C23.3143 40.8788 23.1924 40.8546 23.0786 40.8076C22.9647 40.7605 22.8613 40.6915 22.7742 40.6044C22.6872 40.5173 22.6181 40.4139 22.571 40.3001C22.524 40.1863 22.4998 40.0643 22.5 39.9411C22.5 39.4229 22.9188 39.0036 23.4375 39.0036H26.25C26.7687 39.0036 27.1875 39.4229 27.1875 39.9411C27.1875 40.4598 26.7687 40.8786 26.25 40.8786ZM18.75 49.3161C18.6268 49.3163 18.5049 49.2921 18.3911 49.2451C18.2772 49.198 18.1738 49.129 18.0867 49.0419C17.9997 48.9548 17.9306 48.8514 17.8835 48.7376C17.8365 48.6238 17.8123 48.5018 17.8125 48.3786V44.6286C17.8125 44.1104 18.2313 43.6911 18.75 43.6911C19.2687 43.6911 19.6875 44.1104 19.6875 44.6286V48.3786C19.6875 48.8973 19.2687 49.3161 18.75 49.3161Z" fill="#CC261F"/>
<path d="M19.6875 50.2536C18.6534 50.2536 17.8125 49.4127 17.8125 48.3786C17.8125 47.8811 18.2044 47.5218 18.7015 47.4947C19.2293 47.4787 19.6313 47.8847 19.6875 48.3777C20.2048 48.3777 20.625 48.7979 20.625 49.3152C20.6252 49.4384 20.601 49.5604 20.554 49.6743C20.507 49.7882 20.4379 49.8917 20.3508 49.9788C20.2638 50.066 20.1604 50.1351 20.0465 50.1823C19.9327 50.2294 19.8107 50.2537 19.6875 50.2536ZM41.25 45.5661C41.1268 45.5663 41.0049 45.5421 40.8911 45.4951C40.7772 45.448 40.6738 45.379 40.5867 45.2919C40.4997 45.2048 40.4306 45.1014 40.3836 44.9876C40.3365 44.8738 40.3123 44.7518 40.3125 44.6286C40.3125 42.5605 38.6306 40.8786 36.5625 40.8786C36.4393 40.8788 36.3174 40.8546 36.2036 40.8076C36.0897 40.7605 35.9863 40.6915 35.8992 40.6044C35.8122 40.5173 35.7431 40.4139 35.6961 40.3001C35.649 40.1863 35.6248 40.0643 35.625 39.9411C35.625 39.4229 36.0438 39.0036 36.5625 39.0036C39.6648 39.0036 42.1875 41.5264 42.1875 44.6286C42.1875 45.1473 41.7687 45.5661 41.25 45.5661Z" fill="#CC261F"/>
<path d="M36.5625 40.8786H33.75C33.6268 40.8788 33.5049 40.8546 33.3911 40.8076C33.2772 40.7605 33.1738 40.6915 33.0867 40.6044C32.9997 40.5173 32.9306 40.4139 32.8836 40.3001C32.8365 40.1863 32.8123 40.0643 32.8125 39.9411C32.8125 39.4229 33.2313 39.0036 33.75 39.0036H36.5625C37.0812 39.0036 37.5 39.4229 37.5 39.9411C37.5 40.4598 37.0812 40.8786 36.5625 40.8786ZM41.25 49.3161C41.1268 49.3163 41.0049 49.2921 40.8911 49.2451C40.7772 49.198 40.6738 49.129 40.5867 49.0419C40.4997 48.9548 40.4306 48.8514 40.3836 48.7376C40.3365 48.6238 40.3123 48.5018 40.3125 48.3786V44.6286C40.3125 44.1104 40.7313 43.6911 41.25 43.6911C41.7687 43.6911 42.1875 44.1104 42.1875 44.6286V48.3786C42.1875 48.8973 41.7687 49.3161 41.25 49.3161Z" fill="#CC261F"/>
<path d="M40.3125 50.2536C40.1893 50.2538 40.0674 50.2296 39.9536 50.1826C39.8397 50.1355 39.7363 50.0665 39.6492 49.9794C39.5622 49.8923 39.4931 49.7889 39.4461 49.6751C39.399 49.5613 39.3748 49.4393 39.375 49.3161C39.375 48.7979 39.7938 48.3786 40.3125 48.3786C40.3125 47.8604 40.7313 47.4411 41.25 47.4411C41.7687 47.4411 42.1875 47.8604 42.1875 48.3786C42.1875 49.4119 41.3466 50.2536 40.3125 50.2536Z" fill="#CC261F"/>
<path d="M40.3125 50.2536H19.6875C19.5643 50.2538 19.4424 50.2296 19.3286 50.1826C19.2147 50.1355 19.1113 50.0665 19.0242 49.9794C18.9372 49.8923 18.8681 49.7889 18.821 49.6751C18.774 49.5613 18.7498 49.4393 18.75 49.3161C18.75 48.7979 19.1688 48.3786 19.6875 48.3786H40.3125C40.8312 48.3786 41.25 48.7979 41.25 49.3161C41.25 49.8348 40.8312 50.2536 40.3125 50.2536ZM26.25 40.8786C26.1268 40.8788 26.0049 40.8546 25.8911 40.8076C25.7772 40.7605 25.6738 40.6915 25.5867 40.6044C25.4997 40.5173 25.4306 40.4139 25.3835 40.3001C25.3365 40.1863 25.3123 40.0643 25.3125 39.9411V36.2511C25.3125 35.7329 25.7313 35.3136 26.25 35.3136C26.7687 35.3136 27.1875 35.7329 27.1875 36.2511V39.9411C27.1875 40.4598 26.7687 40.8786 26.25 40.8786ZM33.75 40.8786C33.6268 40.8788 33.5049 40.8546 33.3911 40.8076C33.2772 40.7605 33.1738 40.6915 33.0867 40.6044C32.9997 40.5173 32.9306 40.4139 32.8836 40.3001C32.8365 40.1863 32.8123 40.0643 32.8125 39.9411V36.2511C32.8125 35.7329 33.2313 35.3136 33.75 35.3136C34.2687 35.3136 34.6875 35.7329 34.6875 36.2511V39.9411C34.6875 40.4598 34.2687 40.8786 33.75 40.8786Z" fill="#CC261F"/>
<path d="M29.9991 38.0661C24.8296 38.0661 20.625 33.8616 20.625 28.693C20.625 28.1748 21.0438 27.7555 21.5625 27.7555C22.0812 27.7555 22.5 28.1748 22.5 28.693C22.5 32.8275 25.8636 36.1911 29.9991 36.1911C34.1354 36.1911 37.5 32.8275 37.5 28.693C37.5 28.1748 37.9188 27.7555 38.4375 27.7555C38.9562 27.7555 39.375 28.1748 39.375 28.693C39.375 33.8616 35.1695 38.0661 29.9991 38.0661Z" fill="#CC261F"/>
<path d="M21.5625 29.6767C21.0438 29.6767 20.625 29.2574 20.625 28.7392V23.0661C20.625 22.5479 21.0438 22.1286 21.5625 22.1286C22.0812 22.1286 22.5 22.5479 22.5 23.0661V28.7392C22.5 29.2564 22.0812 29.6767 21.5625 29.6767ZM38.4375 29.6305C38.3143 29.6307 38.1924 29.6065 38.0786 29.5595C37.9647 29.5124 37.8613 29.4434 37.7742 29.3563C37.6872 29.2692 37.6181 29.1658 37.5711 29.052C37.524 28.9381 37.4998 28.8162 37.5 28.693V23.066C37.5 22.5478 37.9188 22.1285 38.4375 22.1285C38.9562 22.1285 39.375 22.5478 39.375 23.066V28.6929C39.375 29.2116 38.9562 29.6305 38.4375 29.6305Z" fill="#CC261F"/>
<path d="M38.4375 24.0036C38.3143 24.0038 38.1924 23.9796 38.0786 23.9326C37.9647 23.8855 37.8613 23.8165 37.7742 23.7294C37.6872 23.6423 37.6181 23.5389 37.5711 23.4251C37.524 23.3113 37.4998 23.1893 37.5 23.0661C37.5 21.5157 36.2379 20.2536 34.6875 20.2536C34.5643 20.2538 34.4424 20.2296 34.3286 20.1826C34.2147 20.1355 34.1113 20.0665 34.0242 19.9794C33.9372 19.8923 33.8681 19.7889 33.8211 19.6751C33.774 19.5613 33.7498 19.4393 33.75 19.3161C33.75 18.7979 34.1688 18.3786 34.6875 18.3786C37.2721 18.3786 39.375 20.4817 39.375 23.0661C39.375 23.5848 38.9562 24.0036 38.4375 24.0036Z" fill="#CC261F"/>
<path d="M34.6875 20.2536C34.5643 20.2538 34.4424 20.2296 34.3286 20.1826C34.2147 20.1355 34.1113 20.0665 34.0242 19.9794C33.9372 19.8923 33.8681 19.7889 33.8211 19.6751C33.774 19.5613 33.7498 19.4393 33.75 19.3161V15.5661C33.75 15.0479 34.1688 14.6286 34.6875 14.6286C35.2062 14.6286 35.625 15.0479 35.625 15.5661V19.3161C35.625 19.8348 35.2062 20.2536 34.6875 20.2536Z" fill="#CC261F"/>
<path d="M34.6875 16.5036H29.0625C28.9393 16.5038 28.8174 16.4796 28.7036 16.4326C28.5897 16.3855 28.4863 16.3165 28.3992 16.2294C28.3122 16.1423 28.2431 16.0389 28.196 15.9251C28.149 15.8113 28.1248 15.6893 28.125 15.5661C28.125 15.0479 28.5438 14.6286 29.0625 14.6286H34.6875C35.2062 14.6286 35.625 15.0479 35.625 15.5661C35.625 16.0848 35.2062 16.5036 34.6875 16.5036Z" fill="#CC261F"/>
<path d="M21.5625 24.0036C21.4393 24.0038 21.3174 23.9796 21.2036 23.9326C21.0897 23.8855 20.9863 23.8165 20.8992 23.7294C20.8122 23.6423 20.7431 23.5389 20.696 23.4251C20.649 23.3113 20.6248 23.1893 20.625 23.0661C20.625 18.4134 24.4098 14.6286 29.0625 14.6286C29.5812 14.6286 30 15.0479 30 15.5661C30 16.0848 29.5812 16.5036 29.0625 16.5036C25.4448 16.5036 22.5 19.4486 22.5 23.0661C22.5 23.5848 22.0812 24.0036 21.5625 24.0036ZM38.4366 26.8395C38.2498 26.8393 38.0674 26.7835 37.9125 26.6793L35.1 24.7809C34.894 24.6416 34.7516 24.4263 34.7042 24.1821C34.6567 23.938 34.7081 23.685 34.8469 23.4786C35.1375 23.0493 35.7188 22.9379 36.1492 23.2255L38.9617 25.1243C39.1677 25.2635 39.3101 25.4788 39.3576 25.7229C39.405 25.967 39.3537 26.22 39.2148 26.4262C39.129 26.5537 39.0132 26.6581 38.8774 26.7302C38.7417 26.8023 38.5903 26.8398 38.4367 26.8395H38.4366Z" fill="#CC261F"/>
<path d="M30.4688 25.8786C27.0826 25.8786 24.1997 24.9339 24.0797 24.8936C23.5895 24.7293 23.323 24.1996 23.4851 23.7084C23.6486 23.2181 24.1772 22.9499 24.6703 23.1134C24.6977 23.1225 27.3967 24.0028 30.4697 24.0028C33.4493 24.0028 35.1947 23.1705 35.2125 23.1619C35.6759 22.938 36.2379 23.1271 36.4659 23.5903C36.5756 23.8123 36.5929 24.0686 36.514 24.3033C36.4352 24.538 36.2667 24.7319 36.0452 24.8427C35.9578 24.8849 33.9244 25.8786 30.4688 25.8786Z" fill="#CC261F"/>
<path d="M21.5634 26.8395C21.4098 26.8398 21.2585 26.8023 21.1228 26.7304C20.9871 26.6584 20.8712 26.5542 20.7853 26.427C20.4955 25.9977 20.6089 25.4154 21.0384 25.1252L23.8509 23.2263C24.282 22.938 24.8625 23.0502 25.1532 23.4795C25.4429 23.9089 25.3294 24.4911 24.9001 24.7819L22.0876 26.6803C21.9325 26.7843 21.75 26.8397 21.5634 26.8395ZM28.125 42.7536C28.0018 42.7537 27.8799 42.7295 27.7662 42.6823C27.6524 42.6352 27.5491 42.5661 27.4621 42.4789L25.5871 40.6039C25.2203 40.2374 25.2203 39.645 25.5871 39.2783C25.9539 38.9116 26.5461 38.9116 26.9128 39.2783L28.7878 41.1533C28.8749 41.2403 28.9441 41.3436 28.9913 41.4574C29.0385 41.5711 29.0628 41.693 29.0628 41.8162C29.0628 41.9393 29.0385 42.0613 28.9913 42.175C28.9441 42.2888 28.8749 42.3921 28.7878 42.4791C28.7008 42.5662 28.5974 42.6352 28.4837 42.6823C28.37 42.7294 28.2481 42.7536 28.125 42.7535V42.7536Z" fill="#CC261F"/>
<path d="M28.1259 42.7536C27.9516 42.7538 27.7806 42.7054 27.6323 42.6139C27.4839 42.5224 27.364 42.3913 27.2859 42.2354C27.0542 41.7722 27.242 41.2088 27.7047 40.9771L29.5797 40.0396C30.043 39.8099 30.6065 39.9956 30.8381 40.4589C30.8932 40.569 30.926 40.6889 30.9348 40.8117C30.9435 40.9346 30.928 41.0579 30.8891 41.1747C30.8501 41.2916 30.7885 41.3996 30.7079 41.4926C30.6272 41.5856 30.5289 41.6618 30.4188 41.7169L28.5438 42.6544C28.4142 42.7198 28.2711 42.7538 28.1259 42.7536ZM31.875 42.7536C31.7519 42.7537 31.6299 42.7295 31.5162 42.6823C31.4025 42.6352 31.2991 42.5661 31.2122 42.4789C31.125 42.392 31.0558 42.2887 31.0087 42.1749C30.9615 42.0612 30.9372 41.9393 30.9372 41.8161C30.9372 41.693 30.9615 41.5711 31.0087 41.4573C31.0558 41.3436 31.125 41.2403 31.2122 41.1533L33.0872 39.2783C33.4538 38.9116 34.0461 38.9116 34.4128 39.2783C34.7795 39.645 34.7796 40.2374 34.4128 40.6041L32.5378 42.4791C32.4508 42.5662 32.3475 42.6352 32.2337 42.6823C32.12 42.7294 31.9981 42.7536 31.875 42.7535V42.7536Z" fill="#CC261F"/>
<path d="M31.8741 42.7536C31.7336 42.7536 31.5898 42.722 31.4562 42.6552L29.5812 41.7177C29.471 41.6626 29.3728 41.5864 29.2922 41.4934C29.2115 41.4004 29.1499 41.2924 29.111 41.1756C29.072 41.0588 29.0565 40.9355 29.0652 40.8126C29.074 40.6898 29.1068 40.5699 29.1619 40.4598C29.3944 39.9966 29.957 39.8112 30.4202 40.0405L32.2952 40.978C32.7581 41.2096 32.9456 41.7731 32.7141 42.2364C32.6358 42.392 32.5158 42.5228 32.3675 42.6142C32.2191 42.7055 32.0483 42.7538 31.8741 42.7536ZM59.0625 18.375C58.9393 18.3752 58.8174 18.351 58.7036 18.304C58.5897 18.2569 58.4863 18.1878 58.3992 18.1008C58.3122 18.0137 58.2431 17.9103 58.196 17.7964C58.149 17.6826 58.1248 17.5607 58.125 17.4375C58.125 13.8198 55.1802 10.875 51.5625 10.875C49.8916 10.875 48.4107 11.7823 47.4619 12.5435C47.0568 12.8681 46.4681 12.8017 46.144 12.3994C45.8194 11.9951 45.8849 11.4047 46.2881 11.0815C47.985 9.72012 49.8084 9 51.5625 9C56.2152 9 60 12.7848 60 17.4375C60 17.9562 59.5812 18.375 59.0625 18.375ZM59.0625 27.75C58.9393 27.7502 58.8174 27.726 58.7036 27.679C58.5897 27.6319 58.4863 27.5628 58.3992 27.4758C58.3122 27.3887 58.2431 27.2853 58.196 27.1714C58.149 27.0576 58.1248 26.9357 58.125 26.8125C58.125 23.1948 55.1802 20.25 51.5625 20.25C51.0438 20.25 50.625 19.8312 50.625 19.3125C50.625 18.7938 51.0438 18.375 51.5625 18.375C56.2152 18.375 60 22.1598 60 26.8125C60 27.3312 59.5812 27.75 59.0625 27.75ZM44.0625 20.25C43.5438 20.25 43.125 19.8312 43.125 19.3125C43.125 18.7938 43.5438 18.375 44.0625 18.375C45.0966 18.375 45.9375 17.5341 45.9375 16.5C45.9375 15.9813 46.3563 15.5625 46.875 15.5625C47.3937 15.5625 47.8125 15.9813 47.8125 16.5C47.8125 18.5681 46.1306 20.25 44.0625 20.25Z" fill="#CC261F"/>
<path d="M44.0625 15.5625C43.9393 15.5627 43.8174 15.5385 43.7036 15.4915C43.5897 15.4444 43.4863 15.3753 43.3992 15.2883C43.3122 15.2012 43.2431 15.0978 43.1961 14.9839C43.149 14.8701 43.1248 14.7482 43.125 14.625C43.125 12.5569 44.8069 10.875 46.875 10.875C47.3937 10.875 47.8125 11.2938 47.8125 11.8125C47.8125 12.3312 47.3937 12.75 46.875 12.75C45.8409 12.75 45 13.5909 45 14.625C45 15.1437 44.5812 15.5625 44.0625 15.5625ZM49.6875 20.25C47.6194 20.25 45.9375 18.5681 45.9375 16.5C45.9375 15.9813 46.3563 15.5625 46.875 15.5625C47.3937 15.5625 47.8125 15.9813 47.8125 16.5C47.8125 17.5341 48.6534 18.375 49.6875 18.375C50.2062 18.375 50.625 18.7938 50.625 19.3125C50.625 19.8312 50.2062 20.25 49.6875 20.25Z" fill="#CC261F"/>
<path d="M46.875 17.4375C46.7518 17.4377 46.6299 17.4135 46.5161 17.3665C46.4022 17.3194 46.2988 17.2503 46.2117 17.1633C46.1247 17.0762 46.0556 16.9728 46.0085 16.8589C45.9615 16.7451 45.9373 16.6232 45.9375 16.5V11.8125C45.9375 11.2938 46.3563 10.875 46.875 10.875C47.3937 10.875 47.8125 11.2938 47.8125 11.8125V16.5C47.8125 17.0187 47.3937 17.4375 46.875 17.4375ZM59.0625 27.75C58.9393 27.7502 58.8174 27.726 58.7036 27.679C58.5897 27.6319 58.4863 27.5628 58.3992 27.4758C58.3122 27.3887 58.2431 27.2853 58.196 27.1714C58.149 27.0576 58.1248 26.9357 58.125 26.8125V17.4375C58.125 16.9188 58.5438 16.5 59.0625 16.5C59.5812 16.5 60 16.9188 60 17.4375V26.8125C60 27.3312 59.5812 27.75 59.0625 27.75ZM51.5625 20.25H49.6875C49.1688 20.25 48.75 19.8312 48.75 19.3125C48.75 18.7938 49.1688 18.375 49.6875 18.375H51.5625C52.0812 18.375 52.5 18.7938 52.5 19.3125C52.5 19.8312 52.0812 20.25 51.5625 20.25ZM1.875 19.3125C1.75184 19.3127 1.62986 19.2885 1.51605 19.2415C1.40224 19.1944 1.29883 19.1253 1.21174 19.0383C1.12466 18.9512 1.05561 18.8478 1.00855 18.7339C0.96149 18.6201 0.937346 18.4982 0.937501 18.375V17.9099C0.937501 17.3917 1.35633 16.9724 1.875 16.9724C2.39367 16.9724 2.8125 17.3917 2.8125 17.9099V18.375C2.8125 18.8937 2.39367 19.3125 1.875 19.3125Z" fill="#CC261F"/>
</svg>
