<svg width="60" height="60" viewBox="0 0 60 60" fill="none" xmlns="http://www.w3.org/2000/svg">
<path d="M18.469 57C16.5731 57 15.0315 55.4583 15.0315 53.5625C15.0315 51.6667 16.5731 50.125 18.469 50.125C18.944 50.125 19.3284 50.5089 19.3284 50.9844C19.3284 51.4598 18.944 51.8438 18.469 51.8438C17.5211 51.8438 16.7502 52.6146 16.7502 53.5625C16.7502 54.5104 17.5211 55.2812 18.469 55.2812C18.944 55.2812 19.3284 55.6652 19.3284 56.1406C19.3284 56.6161 18.944 57 18.469 57Z" fill="#CC261F"/>
<path d="M50.2659 51.8438H18.469C17.9935 51.8438 17.6096 51.4598 17.6096 50.9844C17.6096 50.5089 17.9935 50.125 18.469 50.125H50.2659C50.7409 50.125 51.1252 50.5089 51.1252 50.9844C51.1252 51.4598 50.7409 51.8438 50.2659 51.8438ZM50.2659 57H18.469C17.9935 57 17.6096 56.6161 17.6096 56.1406C17.6096 55.6652 17.9935 55.2812 18.469 55.2812H50.2659C50.7409 55.2812 51.1252 55.6652 51.1252 56.1406C51.1252 56.6161 50.7409 57 50.2659 57Z" fill="#CC261F"/>
<path d="M50.2659 51.8438C49.7904 51.8438 49.4065 51.4598 49.4065 50.9844C49.4065 50.5089 49.7904 50.125 50.2659 50.125C51.2133 50.125 51.9846 49.3541 51.9846 48.4062C51.9846 47.9308 52.3685 47.5469 52.844 47.5469C53.319 47.5469 53.7034 47.9308 53.7034 48.4062C53.7034 50.302 52.1612 51.8438 50.2659 51.8438ZM52.844 6.29688C52.3685 6.29688 51.9846 5.91166 51.9846 5.4375C51.9846 4.48961 51.2133 3.71875 50.2659 3.71875C49.7904 3.71875 49.4065 3.33354 49.4065 2.85938C49.4065 2.38521 49.7904 2 50.2659 2C52.1612 2 53.7034 3.54172 53.7034 5.4375C53.7034 5.66542 53.6128 5.88401 53.4517 6.04517C53.2905 6.20633 53.0719 6.29688 52.844 6.29688ZM15.8909 6.29688C15.4154 6.29688 15.0315 5.91166 15.0315 5.4375C15.0315 3.54172 16.5731 2 18.469 2C18.6969 2 18.9155 2.09054 19.0767 2.25171C19.2378 2.41287 19.3284 2.63145 19.3284 2.85938C19.3284 3.0873 19.2378 3.30588 19.0767 3.46704C18.9155 3.62821 18.6969 3.71875 18.469 3.71875C17.5211 3.71875 16.7502 4.48961 16.7502 5.4375C16.7502 5.66542 16.6597 5.88401 16.4985 6.04517C16.3374 6.20633 16.1188 6.29688 15.8909 6.29688ZM50.2659 57C49.7904 57 49.4065 56.6161 49.4065 56.1406C49.4065 55.6652 49.7904 55.2812 50.2659 55.2812C51.2133 55.2812 51.9846 54.5104 51.9846 53.5625C51.9846 53.0871 52.3685 52.7031 52.844 52.7031C53.319 52.7031 53.7034 53.0871 53.7034 53.5625C53.7034 55.4583 52.1612 57 50.2659 57ZM52.844 22.625C52.7311 22.6251 52.6194 22.6029 52.5151 22.5597C52.4108 22.5165 52.3161 22.4531 52.2364 22.3732C52.1565 22.2935 52.0931 22.1988 52.0499 22.0945C52.0066 21.9903 51.9844 21.8785 51.9844 21.7656C51.9844 21.6528 52.0066 21.541 52.0499 21.4367C52.0931 21.3325 52.1565 21.2378 52.2364 21.158L55.4221 17.9723V8.01562H52.844C52.3685 8.01562 51.9846 7.63041 51.9846 7.15625C51.9846 6.68209 52.3685 6.29688 52.844 6.29688H56.2815C56.5094 6.29688 56.728 6.38742 56.8892 6.54858C57.0503 6.70974 57.1409 6.92833 57.1409 7.15625V18.3281C57.1409 18.556 57.0502 18.775 56.8886 18.9357L53.4511 22.3732C53.3715 22.4531 53.2769 22.5164 53.1727 22.5596C53.0685 22.6029 52.9568 22.6251 52.844 22.625Z" fill="#CC261F"/>
<path d="M50.2659 3.71875H18.469C17.9935 3.71875 17.6096 3.33354 17.6096 2.85938C17.6096 2.38521 17.9935 2 18.469 2H50.2659C50.4938 2 50.7124 2.09054 50.8735 2.25171C51.0347 2.41287 51.1252 2.63145 51.1252 2.85938C51.1252 3.0873 51.0347 3.30588 50.8735 3.46704C50.7124 3.62821 50.4938 3.71875 50.2659 3.71875ZM15.8909 54.4219C15.778 54.422 15.6662 54.3999 15.5618 54.3567C15.4575 54.3136 15.3627 54.2503 15.2829 54.1705C15.2031 54.0907 15.1398 53.9959 15.0966 53.8915C15.0535 53.7872 15.0314 53.6754 15.0315 53.5625V5.4375C15.0315 4.96334 15.4154 4.57812 15.8909 4.57812C16.0037 4.57812 16.1155 4.60035 16.2197 4.64354C16.324 4.68673 16.4187 4.75003 16.4985 4.82983C16.5783 4.90963 16.6416 5.00437 16.6848 5.10863C16.728 5.2129 16.7502 5.32465 16.7502 5.4375V53.5625C16.7502 54.0379 16.3659 54.4219 15.8909 54.4219ZM49.4065 54.4219H19.3284C18.8529 54.4219 18.469 54.0379 18.469 53.5625C18.469 53.0871 18.8529 52.7031 19.3284 52.7031H49.4065C49.8815 52.7031 50.2659 53.0871 50.2659 53.5625C50.2659 54.0379 49.8815 54.4219 49.4065 54.4219Z" fill="#CC261F"/>
<path d="M49.4065 54.4219C49.2936 54.422 49.1818 54.3999 49.0775 54.3567C48.9731 54.3136 48.8783 54.2503 48.7985 54.1705C48.7187 54.0907 48.6554 53.9959 48.6122 53.8915C48.5691 53.7872 48.547 53.6754 48.5471 53.5625V50.9844C48.5471 50.5089 48.931 50.125 49.4065 50.125C49.8815 50.125 50.2659 50.5089 50.2659 50.9844V53.5625C50.2659 54.0379 49.8815 54.4219 49.4065 54.4219ZM19.3284 54.4219C19.2155 54.422 19.1037 54.3999 18.9993 54.3567C18.895 54.3136 18.8002 54.2503 18.7204 54.1705C18.6406 54.0907 18.5773 53.9959 18.5341 53.8915C18.491 53.7872 18.4689 53.6754 18.469 53.5625V50.9844C18.469 50.5089 18.8529 50.125 19.3284 50.125C19.8034 50.125 20.1877 50.5089 20.1877 50.9844V53.5625C20.1877 54.0379 19.8034 54.4219 19.3284 54.4219ZM52.844 54.4219C52.7311 54.422 52.6193 54.3999 52.515 54.3567C52.4106 54.3136 52.3158 54.2503 52.236 54.1705C52.1562 54.0907 52.0929 53.9959 52.0497 53.8915C52.0066 53.7872 51.9845 53.6754 51.9846 53.5625V5.4375C51.9846 4.96334 52.3685 4.57812 52.844 4.57812C53.0719 4.57812 53.2905 4.66867 53.4517 4.82983C53.6128 4.99099 53.7034 5.20958 53.7034 5.4375V53.5625C53.7034 54.0379 53.319 54.4219 52.844 54.4219ZM15.8896 8.01562H3.85962C3.38417 8.01562 3.00024 7.63041 3.00024 7.15625C3.00024 6.68209 3.38417 6.29688 3.85962 6.29688H15.8896C16.365 6.29688 16.749 6.68209 16.749 7.15625C16.749 7.63041 16.365 8.01562 15.8896 8.01562ZM15.8896 50.9844H8.15649C7.68105 50.9844 7.29712 50.6004 7.29712 50.125C7.29712 49.6496 7.68105 49.2656 8.15649 49.2656H15.8896C16.365 49.2656 16.749 49.6496 16.749 50.125C16.749 50.6004 16.365 50.9844 15.8896 50.9844Z" fill="#CC261F"/>
<path d="M3.85962 46.6875C3.74673 46.6876 3.63491 46.6655 3.53058 46.6224C3.42626 46.5792 3.33146 46.5159 3.25163 46.4361C3.17181 46.3563 3.10851 46.2615 3.06537 46.1572C3.02224 46.0528 3.0001 45.941 3.00024 45.8281V7.15625C3.00024 6.68209 3.38417 6.29688 3.85962 6.29688C4.08754 6.29688 4.30613 6.38742 4.46729 6.54858C4.62845 6.70974 4.71899 6.92833 4.71899 7.15625V45.8281C4.71899 46.3036 4.33464 46.6875 3.85962 46.6875Z" fill="#CC261F"/>
<path d="M8.15651 50.9844C8.04365 50.9845 7.93187 50.9623 7.8276 50.9191C7.72334 50.8759 7.62863 50.8125 7.54893 50.7326L3.25206 46.4357C3.17216 46.356 3.10877 46.2613 3.06552 46.157C3.02226 46.0528 3 45.941 3 45.8281C3 45.7152 3.02226 45.6035 3.06552 45.4992C3.10877 45.395 3.17216 45.3003 3.25206 45.2205C3.33174 45.1406 3.4264 45.0772 3.53063 45.034C3.63485 44.9907 3.74658 44.9685 3.85942 44.9685C3.97226 44.9685 4.084 44.9907 4.18822 45.034C4.29244 45.0772 4.3871 45.1406 4.46679 45.2205L8.76366 49.5174C8.84356 49.5971 8.90695 49.6918 8.9502 49.7961C8.99346 49.9004 9.01572 50.0121 9.01572 50.125C9.01572 50.2379 8.99346 50.3496 8.9502 50.4539C8.90695 50.5581 8.84356 50.6528 8.76366 50.7326C8.68402 50.8124 8.58939 50.8758 8.4852 50.919C8.38101 50.9622 8.26931 50.9844 8.15651 50.9844Z" fill="#CC261F"/>
<path d="M8.15649 50.9844C8.0436 50.9845 7.93179 50.9624 7.82746 50.9192C7.72313 50.8761 7.62834 50.8128 7.54851 50.733C7.46868 50.6532 7.40539 50.5584 7.36225 50.454C7.31911 50.3497 7.29698 50.2379 7.29712 50.125V45.8281C7.29712 45.3527 7.68105 44.9688 8.15649 44.9688C8.63151 44.9688 9.01587 45.3527 9.01587 45.8281V50.125C9.01587 50.6004 8.63151 50.9844 8.15649 50.9844Z" fill="#CC261F"/>
<path d="M8.15649 46.6875H3.85962C3.38417 46.6875 3.00024 46.3036 3.00024 45.8281C3.00024 45.3527 3.38417 44.9688 3.85962 44.9688H8.15649C8.63151 44.9688 9.01587 45.3527 9.01587 45.8281C9.01587 46.3036 8.63151 46.6875 8.15649 46.6875ZM15.8909 20.0469H9.87524C9.39979 20.0469 9.01587 19.6617 9.01587 19.1875C9.01587 18.7133 9.39979 18.3281 9.87524 18.3281H15.8909C16.1188 18.3281 16.3374 18.4187 16.4985 18.5798C16.6597 18.741 16.7502 18.9596 16.7502 19.1875C16.7502 19.4154 16.6597 19.634 16.4985 19.7952C16.3374 19.9563 16.1188 20.0469 15.8909 20.0469ZM15.8909 25.2031H9.87524C9.39979 25.2031 9.01587 24.8179 9.01587 24.3438C9.01587 23.8696 9.39979 23.4844 9.87524 23.4844H15.8909C16.1188 23.4844 16.3374 23.5749 16.4985 23.7361C16.6597 23.8973 16.7502 24.1158 16.7502 24.3438C16.7502 24.5717 16.6597 24.7903 16.4985 24.9514C16.3374 25.1126 16.1188 25.2031 15.8909 25.2031ZM15.8909 30.3594H9.87524C9.39979 30.3594 9.01587 29.9742 9.01587 29.5C9.01587 29.0258 9.39979 28.6406 9.87524 28.6406H15.8909C16.1188 28.6406 16.3374 28.7312 16.4985 28.8923C16.6597 29.0535 16.7502 29.2721 16.7502 29.5C16.7502 29.7279 16.6597 29.9465 16.4985 30.1077C16.3374 30.2688 16.1188 30.3594 15.8909 30.3594ZM15.8909 35.5156H9.87524C9.39979 35.5156 9.01587 35.1317 9.01587 34.6563C9.01587 34.1808 9.39979 33.7969 9.87524 33.7969H15.8909C16.3659 33.7969 16.7502 34.1808 16.7502 34.6563C16.7502 35.1317 16.3659 35.5156 15.8909 35.5156ZM42.5252 16.625H27.0581C26.8302 16.625 26.6116 16.5344 26.4505 16.3733C26.2893 16.2121 26.1987 15.9935 26.1987 15.7656C26.1987 15.5377 26.2893 15.3191 26.4505 15.1579C26.6116 14.9967 26.8302 14.9062 27.0581 14.9062H42.5252C43.0006 14.9062 43.3845 15.291 43.3845 15.7656C43.3845 16.2397 43.0006 16.625 42.5252 16.625Z" fill="#CC261F"/>
<path d="M34.7925 33.8158C34.3177 33.8158 33.9331 33.4319 33.9331 32.9564V13.1875C33.9331 12.7129 34.3177 12.3281 34.7925 12.3281C35.268 12.3281 35.6519 12.7129 35.6519 13.1875V32.9573C35.6519 33.0701 35.6297 33.1818 35.5865 33.2861C35.5433 33.3903 35.48 33.485 35.4002 33.5647C35.3204 33.6445 35.2256 33.7077 35.1213 33.7508C35.0171 33.7938 34.9053 33.8159 34.7925 33.8158Z" fill="#CC261F"/>
<path d="M41.6673 33.8158H27.9173C27.4425 33.8158 27.0579 33.4318 27.0579 32.9564C27.0579 32.4814 27.4425 32.097 27.9173 32.097H41.6673C42.1428 32.097 42.5267 32.4814 42.5267 32.9564C42.5267 33.4318 42.1428 33.8158 41.6673 33.8158ZM45.1082 39.8288H24.4766C24.0015 39.8288 23.6172 39.4445 23.6172 38.9694C23.6172 38.4941 24.0015 38.1101 24.4766 38.1101H45.1082C45.5837 38.1101 45.9676 38.4941 45.9676 38.9694C45.9676 39.4445 45.5837 39.8288 45.1082 39.8288ZM39.952 42.4062H29.6344C29.1594 42.4062 28.7751 42.0217 28.7751 41.5468C28.7751 41.0714 29.1594 40.6874 29.6344 40.6874H39.952C40.4274 40.6874 40.8113 41.0714 40.8113 41.5468C40.8113 42.0217 40.4274 42.4062 39.952 42.4062ZM27.0579 26.939C25.1621 26.939 23.6204 25.3974 23.6204 23.5015C23.6204 23.027 24.005 22.6422 24.4798 22.6422C24.9553 22.6422 25.3392 23.027 25.3392 23.5015C25.3392 24.4494 26.1101 25.2203 27.0579 25.2203C28.0059 25.2203 28.7767 24.4494 28.7767 23.5015C28.7767 23.027 29.1612 22.6422 29.636 22.6422C30.1116 22.6422 30.4954 23.027 30.4954 23.5015C30.4954 25.3965 28.9539 26.939 27.0579 26.939Z" fill="#CC261F"/>
<path d="M29.6362 24.3609H24.48C24.2521 24.3609 24.0335 24.2704 23.8723 24.1092C23.7111 23.9481 23.6206 23.7295 23.6206 23.5015C23.6206 23.2736 23.7111 23.055 23.8723 22.8939C24.0335 22.7327 24.2521 22.6422 24.48 22.6422H29.6362C30.1118 22.6422 30.4956 23.027 30.4956 23.5015C30.4956 23.9757 30.1118 24.3609 29.6362 24.3609Z" fill="#CC261F"/>
<path d="M24.48 24.3609C24.3877 24.3607 24.2961 24.3455 24.2086 24.316C23.7592 24.1659 23.515 23.6795 23.6656 23.2293L26.2437 15.4932C26.2791 15.3859 26.3354 15.2868 26.4092 15.2014C26.4831 15.1159 26.5731 15.046 26.6741 14.9955C26.7751 14.945 26.8851 14.915 26.9978 14.9071C27.1104 14.8993 27.2235 14.9138 27.3305 14.9498C27.7804 15.1004 28.0241 15.5868 27.874 16.0369L25.2958 23.7731C25.2386 23.9442 25.1291 24.0931 24.9827 24.1985C24.8363 24.304 24.6604 24.3608 24.48 24.3609Z" fill="#CC261F"/>
<path d="M29.6363 24.3609C29.2764 24.3609 28.9411 24.1332 28.8219 23.7731L26.2438 16.037C26.0932 15.5867 26.3365 15.1004 26.7868 14.9498C26.8939 14.914 27.0069 14.8996 27.1196 14.9075C27.2322 14.9154 27.3421 14.9455 27.4431 14.9959C27.5441 15.0464 27.6341 15.1163 27.7081 15.2016C27.782 15.287 27.8384 15.386 27.8739 15.4932L30.4521 23.2293C30.4878 23.3363 30.5021 23.4493 30.4941 23.5619C30.4862 23.6744 30.4561 23.7843 30.4056 23.8853C30.3552 23.9862 30.2853 24.0762 30.2 24.1501C30.1148 24.224 30.0158 24.2804 29.9087 24.316C29.821 24.3456 29.7289 24.3607 29.6363 24.3609ZM42.5253 26.9391C40.6295 26.9391 39.0878 25.3975 39.0878 23.5016C39.0878 23.027 39.4722 22.6422 39.9472 22.6422C40.4226 22.6422 40.8066 23.027 40.8066 23.5016C40.8066 24.4495 41.5774 25.2203 42.5253 25.2203C43.4733 25.2203 44.2441 24.4495 44.2441 23.5016C44.2441 23.027 44.6284 22.6422 45.1034 22.6422C45.5789 22.6422 45.9628 23.027 45.9628 23.5016C45.9628 25.3965 44.4212 26.9391 42.5253 26.9391Z" fill="#CC261F"/>
<path d="M45.1033 24.3609H39.947C39.7191 24.3609 39.5005 24.2704 39.3394 24.1092C39.1782 23.9481 39.0876 23.7295 39.0876 23.5015C39.0876 23.2736 39.1782 23.055 39.3394 22.8939C39.5005 22.7327 39.7191 22.6422 39.947 22.6422H45.1033C45.5787 22.6422 45.9626 23.027 45.9626 23.5015C45.9626 23.9757 45.5787 24.3609 45.1033 24.3609Z" fill="#CC261F"/>
<path d="M39.9471 24.3609C39.8548 24.3607 39.7631 24.3455 39.6757 24.316C39.2262 24.1659 38.982 23.6795 39.1326 23.2293L41.7108 15.4932C41.7461 15.3859 41.8024 15.2867 41.8762 15.2013C41.9501 15.1159 42.0401 15.0459 42.1411 14.9954C42.2421 14.9449 42.3521 14.9148 42.4648 14.907C42.5774 14.8992 42.6905 14.9138 42.7976 14.9498C43.247 15.1004 43.4913 15.5868 43.3411 16.0369L40.763 23.7731C40.7058 23.9443 40.5962 24.0931 40.4498 24.1986C40.3034 24.304 40.1276 24.3608 39.9471 24.3609Z" fill="#CC261F"/>
<path d="M45.1034 24.361C44.7435 24.361 44.4082 24.1332 44.289 23.7731L41.7108 16.037C41.5602 15.5867 41.8037 15.1004 42.2539 14.9498C42.7066 14.7988 43.1905 15.0438 43.3411 15.4932L45.9192 23.2293C45.9549 23.3363 45.9692 23.4493 45.9613 23.5619C45.9533 23.6745 45.9232 23.7844 45.8727 23.8853C45.8223 23.9862 45.7524 24.0762 45.6671 24.1501C45.5818 24.224 45.4828 24.2804 45.3758 24.3161C45.288 24.3456 45.196 24.3607 45.1034 24.361Z" fill="#CC261F"/>
</svg>
