<svg width="60" height="60" viewBox="0 0 60 60" fill="none" xmlns="http://www.w3.org/2000/svg">
<g clip-path="url(#clip0_3001_5544)">
<path d="M58.125 39.7241C57.8764 39.7241 57.6379 39.6164 57.4621 39.4248C57.2863 39.2331 57.1875 38.9732 57.1875 38.7021V33.5924C57.1875 33.3214 57.2863 33.0615 57.4621 32.8698C57.6379 32.6781 57.8764 32.5705 58.125 32.5705C58.3736 32.5705 58.6121 32.6781 58.7879 32.8698C58.9637 33.0615 59.0625 33.3214 59.0625 33.5924V38.7021C59.0625 38.9732 58.9637 39.2331 58.7879 39.4248C58.6121 39.6164 58.3736 39.7241 58.125 39.7241Z" fill="#CC261F"/>
<path d="M58.1258 34.6144C57.9515 34.6146 57.7805 34.5619 57.6321 34.4621C57.4837 34.3622 57.3638 34.2193 57.2858 34.0492L56.3483 32.0053C56.2372 31.7628 56.219 31.482 56.2978 31.2248C56.3765 30.9676 56.5458 30.755 56.7683 30.6339C56.9909 30.5127 57.2484 30.4929 57.4844 30.5788C57.7203 30.6646 57.9153 30.8491 58.0265 31.0917L58.964 33.1356C59.0354 33.2914 59.0691 33.4646 59.0619 33.6386C59.0546 33.8127 59.0067 33.9818 58.9227 34.13C58.8386 34.2782 58.7212 34.4004 58.5815 34.4852C58.4419 34.57 58.2857 34.6144 58.1258 34.6144Z" fill="#CC261F"/>
<path d="M57.1865 32.5705C57.0268 32.5704 56.8697 32.5258 56.7302 32.4409C56.5907 32.3561 56.4734 32.2338 56.3895 32.0857C56.3055 31.9375 56.2576 31.7685 56.2505 31.5945C56.2433 31.4206 56.277 31.2475 56.3484 31.0917L57.2859 29.0478C57.3409 28.9277 57.4171 28.8206 57.5101 28.7326C57.6031 28.6446 57.7111 28.5774 57.828 28.5349C57.9448 28.4924 58.0682 28.4754 58.191 28.4848C58.3139 28.4943 58.4338 28.53 58.544 28.59C58.6542 28.65 58.7525 28.7331 58.8332 28.8344C58.9139 28.9358 58.9756 29.0536 59.0146 29.1809C59.0536 29.3083 59.0692 29.4427 59.0605 29.5767C59.0518 29.7106 59.019 29.8413 58.964 29.9615L58.0265 32.0053C57.9486 32.1754 57.8287 32.3183 57.6803 32.4182C57.5319 32.518 57.3609 32.5708 57.1865 32.5705Z" fill="#CC261F"/>
<path d="M58.1259 30.5266C57.9836 30.5263 57.8432 30.4908 57.7153 30.4227C57.5874 30.3545 57.4754 30.2556 57.3878 30.1333C57.3002 30.011 57.2392 29.8686 57.2096 29.7168C57.1799 29.5651 57.1823 29.4079 57.2166 29.2573L58.1541 25.1696C58.2218 24.9159 58.3771 24.7008 58.5872 24.5692C58.7974 24.4376 59.0461 24.3999 59.2812 24.4638C59.5163 24.5278 59.7196 24.6885 59.8484 24.9123C59.9771 25.1361 60.0214 25.4056 59.9719 25.6642L59.0344 29.7519C58.9839 29.9732 58.867 30.1697 58.7022 30.3101C58.5373 30.4505 58.3351 30.5267 58.1259 30.5266Z" fill="#CC261F"/>
<path d="M59.0633 26.4388C58.889 26.4391 58.718 26.3864 58.5696 26.2865C58.4212 26.1867 58.3013 26.0437 58.2233 25.8737L57.2858 23.8298C57.2308 23.7097 57.198 23.5789 57.1893 23.445C57.1807 23.3111 57.1963 23.1766 57.2353 23.0493C57.2743 22.9219 57.3359 22.8042 57.4166 22.7028C57.4974 22.6014 57.5957 22.5184 57.7058 22.4584C57.816 22.3984 57.936 22.3626 58.0588 22.3532C58.1817 22.3437 58.3051 22.3607 58.4219 22.4032C58.5387 22.4458 58.6467 22.5129 58.7397 22.6009C58.8327 22.689 58.9089 22.7961 58.964 22.9162L59.9015 24.9601C59.9729 25.1159 60.0066 25.2891 59.9994 25.4631C59.9922 25.6372 59.9442 25.8063 59.8602 25.9545C59.7761 26.1026 59.6587 26.2249 59.519 26.3097C59.3794 26.3944 59.2232 26.4389 59.0633 26.4388Z" fill="#CC261F"/>
<path d="M58.1248 24.3949C57.9394 24.3949 57.7582 24.3349 57.6041 24.2226C57.4499 24.1103 57.3298 23.9507 57.2589 23.764C57.1879 23.5773 57.1693 23.3719 57.2055 23.1737C57.2417 22.9755 57.3309 22.7934 57.462 22.6505L58.3995 21.6285C58.486 21.5309 58.5894 21.4531 58.7038 21.3995C58.8182 21.346 58.9412 21.3178 59.0657 21.3166C59.1902 21.3154 59.3136 21.3413 59.4288 21.3926C59.544 21.444 59.6487 21.5199 59.7367 21.6159C59.8248 21.7118 59.8944 21.8259 59.9415 21.9515C59.9886 22.0771 60.0124 22.2117 60.0113 22.3474C60.0102 22.4831 59.9843 22.6172 59.9352 22.7418C59.8861 22.8665 59.8147 22.9793 59.7251 23.0736L58.7876 24.0955C58.7007 24.1905 58.5974 24.2659 58.4836 24.3173C58.3699 24.3687 58.2479 24.3951 58.1248 24.3949Z" fill="#CC261F"/>
<path d="M59.0633 23.373C58.889 23.3733 58.718 23.3205 58.5696 23.2207C58.4212 23.1209 58.3013 22.9779 58.2233 22.8079L57.2858 20.764C57.1747 20.5214 57.1565 20.2406 57.2353 19.9834C57.314 19.7262 57.4833 19.5137 57.7058 19.3925C57.9284 19.2714 58.1859 19.2516 58.4219 19.3374C58.6578 19.4233 58.8528 19.6078 58.964 19.8504L59.9015 21.8942C59.9729 22.0501 60.0066 22.2233 59.9994 22.3973C59.9921 22.5713 59.9442 22.7405 59.8602 22.8886C59.7761 23.0368 59.6587 23.1591 59.519 23.2438C59.3794 23.3286 59.2232 23.3731 59.0633 23.373Z" fill="#CC261F"/>
<path d="M54.374 22.3511C54.1454 22.3505 53.9249 22.259 53.7539 22.0937C53.5829 21.9283 53.4732 21.7006 53.4454 21.4532C53.4177 21.2059 53.4738 20.956 53.6032 20.7506C53.7326 20.5452 53.9263 20.3984 54.1481 20.3378L57.8981 19.3159C58.0186 19.2799 58.1445 19.2705 58.2683 19.2883C58.3922 19.306 58.5116 19.3506 58.6194 19.4194C58.7272 19.4881 58.8214 19.5797 58.8963 19.6887C58.9712 19.7977 59.0254 19.9219 59.0556 20.0541C59.0859 20.1862 59.0916 20.3236 59.0724 20.4582C59.0533 20.5928 59.0096 20.7218 58.944 20.8378C58.8785 20.9537 58.7923 21.0542 58.6906 21.1333C58.5889 21.2124 58.4737 21.2686 58.3518 21.2985L54.6018 22.3204C54.5273 22.3408 54.4508 22.3511 54.374 22.3511Z" fill="#CC261F"/>
<path d="M51.5623 25.4169C51.3769 25.4168 51.1957 25.3569 51.0416 25.2446C50.8874 25.1323 50.7673 24.9727 50.6964 24.786C50.6254 24.5993 50.6068 24.3938 50.643 24.1956C50.6792 23.9974 50.7684 23.8153 50.8995 23.6724L53.712 20.6066C53.7985 20.509 53.9019 20.4311 54.0163 20.3776C54.1307 20.324 54.2537 20.2958 54.3782 20.2946C54.5027 20.2935 54.6261 20.3193 54.7413 20.3707C54.8565 20.4221 54.9612 20.498 55.0492 20.5939C55.1373 20.6899 55.2069 20.804 55.254 20.9296C55.3011 21.0552 55.3249 21.1897 55.3238 21.3254C55.3227 21.4611 55.2968 21.5952 55.2477 21.7199C55.1986 21.8446 55.1272 21.9573 55.0376 22.0516L52.2251 25.1174C52.1382 25.2125 52.0349 25.2879 51.9211 25.3392C51.8074 25.3906 51.6854 25.417 51.5623 25.4169Z" fill="#CC261F"/>
<path d="M51.5623 25.4169C51.46 25.4169 51.3583 25.3986 51.2614 25.3627L48.4948 24.3408C48.2622 24.2514 48.0713 24.0656 47.9635 23.8238C47.8556 23.582 47.8396 23.3036 47.9188 23.049C47.9979 22.7943 48.166 22.584 48.3865 22.4635C48.607 22.343 48.8622 22.322 49.0967 22.4052L51.8633 23.4272C52.0737 23.505 52.2519 23.6617 52.3661 23.8694C52.4804 24.0771 52.5233 24.3222 52.4871 24.5612C52.451 24.8001 52.3382 25.0173 52.1688 25.1741C51.9994 25.3308 51.7845 25.4168 51.5623 25.4169Z" fill="#CC261F"/>
<path d="M41.251 28.4827C41.0393 28.4832 40.8338 28.4056 40.6678 28.2625C40.5017 28.1194 40.385 27.9193 40.3366 27.6948C40.2881 27.4702 40.3108 27.2344 40.4009 27.0257C40.491 26.8169 40.6432 26.6476 40.8328 26.5451L48.3788 22.4574C48.6012 22.3391 48.8574 22.3215 49.0917 22.4084C49.326 22.4952 49.5192 22.6795 49.6293 22.9211C49.7394 23.1626 49.7575 23.4418 49.6795 23.6978C49.6016 23.9538 49.4339 24.1658 49.2132 24.2876L41.6672 28.3754C41.538 28.4458 41.3955 28.4826 41.251 28.4827ZM22.501 28.4827C22.4491 28.4829 22.3974 28.4781 22.3463 28.4684L16.7213 27.4465C16.5969 27.4281 16.4772 27.3827 16.3693 27.313C16.2613 27.2432 16.1673 27.1506 16.0928 27.0405C16.0183 26.9304 15.9648 26.8052 15.9355 26.6721C15.9063 26.5391 15.9018 26.4011 15.9224 26.2661C15.943 26.1312 15.9882 26.0021 16.0554 25.8866C16.1226 25.771 16.2104 25.6714 16.3136 25.5935C16.4167 25.5157 16.5332 25.4612 16.6561 25.4333C16.7789 25.4054 16.9057 25.4047 17.0288 25.4312L22.6538 26.4531C22.8853 26.4958 23.0936 26.6316 23.2377 26.8336C23.3818 27.0357 23.4511 27.2893 23.4319 27.5444C23.4127 27.7994 23.3064 28.0374 23.134 28.2111C22.9616 28.3848 22.7357 28.4818 22.501 28.4827Z" fill="#CC261F"/>
<path d="M16.874 27.4608C16.7289 27.4607 16.5857 27.424 16.4558 27.3535L14.5808 26.3315C14.4707 26.2715 14.3724 26.1885 14.2916 26.0871C14.2109 25.9857 14.1493 25.868 14.1103 25.7406C14.0713 25.6133 14.0557 25.4788 14.0643 25.3449C14.073 25.2109 14.1058 25.0802 14.1608 24.9601C14.2159 24.84 14.2921 24.7328 14.3851 24.6448C14.4781 24.5568 14.5861 24.4896 14.7029 24.4471C14.8197 24.4046 14.9431 24.3876 15.066 24.3971C15.1888 24.4065 15.3088 24.4423 15.419 24.5022L17.294 25.5242C17.4831 25.627 17.6349 25.7964 17.7246 26.005C17.8143 26.2136 17.8368 26.4492 17.7882 26.6734C17.7397 26.8977 17.6231 27.0975 17.4573 27.2404C17.2915 27.3833 17.0853 27.461 16.874 27.4608Z" fill="#CC261F"/>
<path d="M14.9998 26.4388C14.8513 26.4387 14.705 26.4001 14.5729 26.3263C14.4407 26.2525 14.3266 26.1455 14.2398 26.0142C14.153 25.8829 14.0961 25.731 14.0737 25.571C14.0513 25.411 14.0641 25.2475 14.111 25.094L15.0485 22.0281C15.0838 21.8962 15.1432 21.7733 15.2231 21.6669C15.303 21.5606 15.4017 21.4729 15.5134 21.4091C15.6251 21.3453 15.7475 21.3067 15.8732 21.2956C15.9989 21.2846 16.1254 21.3013 16.245 21.3448C16.3646 21.3882 16.475 21.4576 16.5695 21.5486C16.664 21.6397 16.7406 21.7506 16.7949 21.8747C16.8491 21.9988 16.8798 22.1335 16.8852 22.2709C16.8905 22.4082 16.8704 22.5453 16.826 22.674L15.8885 25.7398C15.8264 25.9432 15.7071 26.1202 15.5476 26.2456C15.3881 26.3711 15.1965 26.4387 14.9998 26.4388Z" fill="#CC261F"/>
<path d="M15.9372 23.373C15.6978 23.3738 15.4672 23.2743 15.2932 23.095L13.4182 21.1666C13.3286 21.0745 13.2566 20.964 13.2062 20.8416C13.1558 20.7191 13.128 20.587 13.1244 20.4528C13.1208 20.3186 13.1416 20.185 13.1854 20.0595C13.2292 19.934 13.2952 19.8192 13.3797 19.7216C13.4643 19.624 13.5656 19.5454 13.678 19.4905C13.7903 19.4355 13.9115 19.4053 14.0346 19.4014C14.1577 19.3975 14.2803 19.4201 14.3954 19.4678C14.5105 19.5156 14.6158 19.5876 14.7054 19.6797L16.5804 21.6071C16.7171 21.7475 16.812 21.9294 16.8528 22.1293C16.8936 22.3292 16.8783 22.5378 16.809 22.7281C16.7397 22.9184 16.6195 23.0817 16.4641 23.1967C16.3086 23.3116 16.1251 23.3731 15.9372 23.373Z" fill="#CC261F"/>
<path d="M9.37484 26.4388C9.18846 26.439 9.00625 26.3786 8.8515 26.2654C8.69675 26.1522 8.57648 25.9912 8.50604 25.8031C8.43561 25.615 8.41821 25.4083 8.45607 25.2093C8.49393 25.0104 8.58533 24.8283 8.7186 24.6862L13.4061 19.692C13.4941 19.598 13.5983 19.5239 13.7126 19.4739C13.8269 19.4238 13.9491 19.3987 14.0723 19.4002C14.1955 19.4016 14.3172 19.4294 14.4305 19.4821C14.5438 19.5348 14.6465 19.6114 14.7327 19.7073C14.8188 19.8033 14.8868 19.9168 14.9328 20.0414C14.9787 20.166 15.0017 20.2992 15.0004 20.4335C14.9991 20.5678 14.9735 20.7005 14.9252 20.824C14.8768 20.9475 14.8066 21.0594 14.7186 21.1534L10.0311 26.1476C9.85594 26.3349 9.6202 26.4395 9.37484 26.4388Z" fill="#CC261F"/>
<path d="M5.62584 28.4827C5.41439 28.4832 5.20901 28.4057 5.04306 28.2628C4.87711 28.12 4.76032 27.9202 4.71167 27.6959C4.66303 27.4716 4.68537 27.2359 4.77508 27.0272C4.86479 26.8185 5.01659 26.6489 5.20584 26.5461L8.95584 24.5022C9.17837 24.3811 9.43594 24.3613 9.67189 24.4471C9.90783 24.533 10.1028 24.7175 10.214 24.9601C10.3251 25.2027 10.3433 25.4834 10.2645 25.7406C10.1858 25.9978 10.0165 26.2104 9.79397 26.3315L6.04397 28.3754C5.91408 28.4459 5.77095 28.4827 5.62584 28.4827Z" fill="#CC261F"/>
<path d="M4.68844 32.5705C4.5461 32.5702 4.40567 32.5347 4.27779 32.4665C4.1499 32.3984 4.03792 32.2994 3.9503 32.1772C3.86268 32.0549 3.80174 31.9125 3.77207 31.7607C3.74241 31.6089 3.7448 31.4518 3.77907 31.3012L4.71657 27.2134C4.74235 27.0788 4.79281 26.9512 4.8649 26.8384C4.937 26.7255 5.02926 26.6296 5.13615 26.5565C5.24304 26.4835 5.36236 26.4346 5.48697 26.413C5.61158 26.3914 5.73891 26.3975 5.86133 26.4308C5.98375 26.4641 6.09874 26.524 6.19942 26.6069C6.30009 26.6898 6.38438 26.794 6.44722 26.9133C6.51007 27.0325 6.55018 27.1644 6.56516 27.301C6.58013 27.4376 6.56967 27.576 6.53438 27.7081L5.59688 31.7958C5.54642 32.0171 5.42947 32.2136 5.26466 32.354C5.09985 32.4944 4.89761 32.5706 4.68844 32.5705Z" fill="#CC261F"/>
<path d="M5.62395 36.6582C5.41494 36.6581 5.21198 36.5818 5.04736 36.4414C4.88274 36.3011 4.76593 36.1047 4.71551 35.8836L3.77801 31.7958C3.74497 31.6645 3.73634 31.5273 3.75264 31.3922C3.76894 31.2572 3.80984 31.1271 3.87293 31.0095C3.93602 30.892 4.02003 30.7894 4.12002 30.7077C4.22001 30.626 4.33397 30.567 4.45519 30.534C4.57642 30.5011 4.70247 30.4948 4.82593 30.5157C4.94939 30.5366 5.06778 30.5842 5.17413 30.6557C5.28048 30.7272 5.37266 30.8211 5.44523 30.9319C5.51781 31.0428 5.56933 31.1684 5.59676 31.3012L6.53426 35.389C6.56855 35.5397 6.57092 35.6969 6.54121 35.8487C6.51149 36.0006 6.45046 36.143 6.36274 36.2653C6.27502 36.3876 6.16291 36.4866 6.03491 36.5547C5.90691 36.6227 5.76637 36.6582 5.62395 36.6582Z" fill="#CC261F"/>
<path d="M2.81233 37.6802C2.59008 37.6796 2.37523 37.593 2.20612 37.4358C2.03701 37.2786 1.92464 37.061 1.88905 36.8219C1.85346 36.5827 1.89697 36.3376 2.01182 36.1302C2.12667 35.9227 2.30539 35.7665 2.51608 35.6894L5.32858 34.6675C5.44662 34.6191 5.5724 34.5972 5.6984 34.603C5.82439 34.6088 5.94801 34.6423 6.06186 34.7015C6.1757 34.7606 6.27743 34.8442 6.36096 34.9472C6.44449 35.0501 6.5081 35.1704 6.54797 35.3009C6.58785 35.4313 6.60319 35.5691 6.59305 35.7061C6.58292 35.8432 6.54753 35.9766 6.489 36.0983C6.43047 36.2201 6.35001 36.3277 6.25243 36.4148C6.15484 36.5019 6.04215 36.5666 5.92108 36.6051L3.10858 37.627C3.0131 37.662 2.91306 37.68 2.81233 37.6802Z" fill="#CC261F"/>
<path d="M2.81147 37.6802C2.66635 37.6801 2.52323 37.6434 2.39334 37.5729L0.518341 36.5509C0.295808 36.4298 0.12654 36.2172 0.0477747 35.96C-0.0309906 35.7028 -0.0128014 35.4221 0.0983409 35.1795C0.209483 34.9369 0.404474 34.7524 0.640419 34.6665C0.876363 34.5807 1.13393 34.6005 1.35647 34.7217L3.23147 35.7436C3.42064 35.8464 3.5724 36.0158 3.66213 36.2244C3.75185 36.4331 3.77426 36.6686 3.72574 36.8929C3.67721 37.1171 3.56059 37.3169 3.3948 37.4598C3.229 37.6027 3.02283 37.6804 2.81147 37.6802Z" fill="#CC261F"/>
<path d="M4.68833 44.9329C4.53271 44.9332 4.37947 44.8912 4.24246 44.8107C4.10546 44.7303 3.98901 44.6138 3.90365 44.472L0.153645 38.2412C0.0860554 38.129 0.0393998 38.0034 0.0163421 37.8716C-0.00671553 37.7397 -0.00572366 37.6042 0.0192611 37.4728C0.0442459 37.3414 0.0927342 37.2166 0.161958 37.1056C0.231181 36.9946 0.319784 36.8995 0.422708 36.8258C0.525631 36.7522 0.64086 36.7013 0.761814 36.6762C0.882768 36.651 1.00708 36.6521 1.12765 36.6793C1.24822 36.7066 1.36269 36.7594 1.46452 36.8349C1.56636 36.9104 1.65356 37.0069 1.72115 37.1191L5.47114 43.3499C5.56397 43.504 5.61685 43.6825 5.62418 43.8666C5.63151 44.0508 5.59303 44.2336 5.5128 44.3959C5.43257 44.5581 5.31358 44.6937 5.16844 44.7882C5.0233 44.8828 4.85741 44.9327 4.68833 44.9329Z" fill="#CC261F"/>
<path d="M0.9375 38.7021C0.68886 38.7021 0.450403 38.5945 0.274587 38.4028C0.0987721 38.2112 0 37.9512 0 37.6802V35.6363C0 35.3653 0.0987721 35.1053 0.274587 34.9137C0.450403 34.722 0.68886 34.6144 0.9375 34.6144C1.18614 34.6144 1.4246 34.722 1.60041 34.9137C1.77623 35.1053 1.875 35.3653 1.875 35.6363V37.6802C1.875 37.9512 1.77623 38.2112 1.60041 38.4028C1.4246 38.5945 1.18614 38.7021 0.9375 38.7021ZM4.83844 44.8338C4.65635 44.8338 4.47819 44.776 4.32574 44.6674C4.17329 44.5589 4.05314 44.4043 3.97996 44.2225C3.90678 44.0408 3.88374 43.8397 3.91366 43.6439C3.94358 43.4481 4.02516 43.2661 4.14844 43.12L5.8725 41.0761C5.95585 40.9773 6.05623 40.8974 6.16791 40.8409C6.27959 40.7844 6.40038 40.7525 6.52339 40.7469C6.6464 40.7413 6.76921 40.7622 6.88482 40.8083C7.00043 40.8544 7.10658 40.9249 7.19719 41.0158C7.2878 41.1067 7.36111 41.2161 7.41293 41.3378C7.46475 41.4596 7.49406 41.5912 7.4992 41.7253C7.50433 41.8594 7.48519 41.9933 7.44286 42.1193C7.40053 42.2453 7.33585 42.361 7.2525 42.4598L5.52844 44.5037C5.44074 44.6079 5.3341 44.6911 5.2153 44.7479C5.09651 44.8047 4.96817 44.834 4.83844 44.8338Z" fill="#CC261F"/>
<path d="M6.56334 42.7899C6.35189 42.7903 6.14651 42.7128 5.98056 42.57C5.81461 42.4272 5.69782 42.2274 5.64917 42.0031C5.60053 41.7788 5.62287 41.5431 5.71258 41.3344C5.80229 41.1257 5.95409 40.9561 6.14334 40.8533L8.01834 39.8314C8.12853 39.7714 8.24848 39.7356 8.37134 39.7262C8.49419 39.7167 8.61756 39.7337 8.73439 39.7762C8.85122 39.8188 8.95922 39.8859 9.05223 39.974C9.14524 40.062 9.22143 40.1691 9.27647 40.2892C9.3315 40.4093 9.36429 40.5401 9.37296 40.674C9.38164 40.8079 9.36603 40.9424 9.32703 41.0697C9.28803 41.1971 9.2264 41.3148 9.14566 41.4162C9.06492 41.5176 8.96665 41.6007 8.85647 41.6606L6.98147 42.6826C6.85158 42.7531 6.70845 42.7898 6.56334 42.7899Z" fill="#CC261F"/>
<path d="M8.43834 41.7679C8.26397 41.7682 8.09297 41.7155 7.94458 41.6157C7.79619 41.5158 7.67629 41.3728 7.59834 41.2028L6.66084 39.1589C6.5497 38.9164 6.53151 38.6356 6.61027 38.3784C6.68904 38.1212 6.85831 37.9086 7.08084 37.7875C7.30337 37.6663 7.56094 37.6465 7.79689 37.7324C8.03283 37.8182 8.22782 38.0027 8.33897 38.2453L9.27647 40.2892C9.34791 40.445 9.38161 40.6182 9.37438 40.7922C9.36715 40.9663 9.31922 41.1354 9.23515 41.2836C9.15108 41.4317 9.03366 41.554 8.89403 41.6388C8.75441 41.7236 8.59722 41.768 8.4374 41.7679H8.43834Z" fill="#CC261F"/>
<path d="M11.25 39.7241H7.5C7.25136 39.7241 7.0129 39.6164 6.83709 39.4247C6.66127 39.2331 6.5625 38.9732 6.5625 38.7021C6.5625 38.4311 6.66127 38.1712 6.83709 37.9795C7.0129 37.7879 7.25136 37.6802 7.5 37.6802H11.25C11.4986 37.6802 11.7371 37.7879 11.9129 37.9795C12.0887 38.1712 12.1875 38.4311 12.1875 38.7021C12.1875 38.9732 12.0887 39.2331 11.9129 39.4247C11.7371 39.6164 11.4986 39.7241 11.25 39.7241Z" fill="#CC261F"/>
<path d="M14.0625 42.7899C13.9393 42.79 13.8174 42.7636 13.7036 42.7122C13.5899 42.6609 13.4866 42.5855 13.3996 42.4904L10.5871 39.4246C10.4164 39.2319 10.3219 38.9737 10.324 38.7058C10.3261 38.4378 10.4247 38.1815 10.5986 37.992C10.7724 37.8026 11.0075 37.6951 11.2533 37.6928C11.4991 37.6904 11.736 37.7934 11.9128 37.9796L14.7253 41.0454C14.8563 41.1883 14.9456 41.3704 14.9818 41.5686C15.0179 41.7668 14.9993 41.9723 14.9284 42.159C14.8575 42.3457 14.7373 42.5053 14.5832 42.6176C14.4291 42.7299 14.2478 42.7898 14.0625 42.7899Z" fill="#CC261F"/>
<path d="M14.0623 42.7899C13.8769 42.7898 13.6957 42.7299 13.5416 42.6176C13.3874 42.5053 13.2673 42.3457 13.1964 42.159C13.1254 41.9723 13.1068 41.7668 13.143 41.5686C13.1792 41.3704 13.2684 41.1883 13.3995 41.0454L15.2745 39.0015C15.4513 38.8154 15.6881 38.7124 15.9339 38.7147C16.1797 38.717 16.4149 38.8245 16.5887 39.014C16.7625 39.2035 16.8611 39.4598 16.8632 39.7277C16.8654 39.9957 16.7709 40.2538 16.6001 40.4466L14.7251 42.4904C14.6382 42.5855 14.5349 42.6609 14.4211 42.7122C14.3074 42.7636 14.1854 42.79 14.0623 42.7899Z" fill="#CC261F"/>
<path d="M19.6884 41.7679C19.6116 41.768 19.5351 41.7577 19.4606 41.7373L15.7106 40.7154C15.4744 40.6448 15.273 40.4762 15.1493 40.2458C15.0256 40.0154 14.9896 39.7414 15.0489 39.4824C15.1082 39.2234 15.258 39 15.4665 38.8599C15.6749 38.7198 15.9254 38.6742 16.1643 38.7328L19.9143 39.7547C20.136 39.8153 20.3298 39.9621 20.4592 40.1675C20.5886 40.3729 20.6447 40.6228 20.617 40.8701C20.5892 41.1174 20.4795 41.3452 20.3085 41.5105C20.1375 41.6759 19.917 41.7674 19.6884 41.7679Z" fill="#CC261F"/>
<path d="M20.6258 43.8118C20.4515 43.8121 20.2805 43.7594 20.1321 43.6595C19.9837 43.5597 19.8638 43.4167 19.7858 43.2467L18.8483 41.2028C18.7372 40.9602 18.719 40.6795 18.7978 40.4223C18.8765 40.1651 19.0458 39.9525 19.2683 39.8314C19.4909 39.7102 19.7484 39.6904 19.9844 39.7762C20.2203 39.8621 20.4153 40.0466 20.5265 40.2892L21.464 42.3331C21.5354 42.4889 21.5691 42.6621 21.5619 42.8361C21.5546 43.0102 21.5067 43.1793 21.4227 43.3275C21.3386 43.4756 21.2212 43.5979 21.0815 43.6827C20.9419 43.7675 20.7857 43.8119 20.6258 43.8118Z" fill="#CC261F"/>
<path d="M22.5 43.8118H20.625C20.3764 43.8118 20.1379 43.7042 19.9621 43.5125C19.7863 43.3209 19.6875 43.0609 19.6875 42.7899C19.6875 42.5189 19.7863 42.2589 19.9621 42.0673C20.1379 41.8756 20.3764 41.768 20.625 41.768H22.5C22.7486 41.768 22.9871 41.8756 23.1629 42.0673C23.3387 42.2589 23.4375 42.5189 23.4375 42.7899C23.4375 43.0609 23.3387 43.3209 23.1629 43.5125C22.9871 43.7042 22.7486 43.8118 22.5 43.8118Z" fill="#CC261F"/>
<path d="M23.4375 46.8777C23.2408 46.8775 23.0492 46.8099 22.8897 46.6845C22.7302 46.559 22.6109 46.3821 22.5488 46.1787L21.6113 43.1128C21.5669 42.9842 21.5468 42.847 21.5521 42.7097C21.5575 42.5724 21.5882 42.4376 21.6424 42.3135C21.6967 42.1894 21.7733 42.0785 21.8678 41.9875C21.9623 41.8964 22.0727 41.8271 22.1923 41.7836C22.3119 41.7401 22.4384 41.7234 22.5641 41.7345C22.6898 41.7455 22.8122 41.7841 22.9239 41.8479C23.0356 41.9117 23.1343 41.9994 23.2142 42.1058C23.2941 42.2121 23.3535 42.335 23.3888 42.467L24.3263 45.5328C24.3732 45.6863 24.386 45.8498 24.3636 46.0098C24.3412 46.1698 24.2843 46.3217 24.1975 46.453C24.1107 46.5844 23.9966 46.6913 23.8644 46.7652C23.7323 46.839 23.586 46.8775 23.4375 46.8777Z" fill="#CC261F"/>
<path d="M26.2489 48.9215C26.0641 48.9214 25.8834 48.8617 25.7296 48.7499L22.9171 46.706C22.7102 46.5556 22.5666 46.3217 22.5179 46.0559C22.4692 45.7901 22.5194 45.514 22.6574 45.2885C22.7954 45.063 23.0099 44.9065 23.2537 44.8534C23.4976 44.8004 23.7508 44.855 23.9577 45.0055L26.7702 47.0493C26.9377 47.1711 27.0648 47.3484 27.1327 47.5549C27.2005 47.7615 27.2056 47.9864 27.1472 48.1964C27.0887 48.4064 26.9698 48.5903 26.808 48.7208C26.6463 48.8514 26.4502 48.9218 26.2489 48.9215Z" fill="#CC261F"/>
<path d="M26.2498 48.9216C26.0276 48.921 25.8127 48.8344 25.6436 48.6772C25.4745 48.52 25.3621 48.3024 25.3266 48.0633C25.291 47.8241 25.3345 47.579 25.4493 47.3715C25.5642 47.1641 25.7429 47.0079 25.9536 46.9308L28.7661 45.9089C28.9989 45.8349 29.2489 45.862 29.4637 45.9847C29.6785 46.1074 29.8413 46.316 29.918 46.5668C29.9947 46.8175 29.9792 47.0909 29.8749 47.3295C29.7706 47.5681 29.5855 47.7534 29.3586 47.8465L26.5461 48.8684C26.4506 48.9034 26.3506 48.9213 26.2498 48.9216Z" fill="#CC261F"/>
<path d="M30.9365 48.9215C30.7914 48.9215 30.6482 48.8848 30.5183 48.8142L28.6433 47.7923C28.5332 47.7323 28.4349 47.6492 28.3541 47.5479C28.2734 47.4465 28.2118 47.3287 28.1728 47.2014C28.1338 47.074 28.1182 46.9396 28.1268 46.8056C28.1355 46.6717 28.1683 46.541 28.2233 46.4208C28.2784 46.3007 28.3546 46.1936 28.4476 46.1056C28.5406 46.0176 28.6486 45.9504 28.7654 45.9079C28.8822 45.8654 29.0056 45.8484 29.1285 45.8578C29.2513 45.8673 29.3713 45.903 29.4815 45.963L31.3565 46.985C31.5456 47.0877 31.6974 47.2572 31.7871 47.4658C31.8768 47.6744 31.8993 47.91 31.8507 48.1342C31.8022 48.3585 31.6856 48.5583 31.5198 48.7012C31.354 48.8441 31.1478 48.9218 30.9365 48.9215Z" fill="#CC261F"/>
<path d="M30.9373 48.9216C30.7519 48.9215 30.5707 48.8616 30.4166 48.7493C30.2624 48.637 30.1423 48.4774 30.0714 48.2907C30.0004 48.104 29.9818 47.8985 30.018 47.7003C30.0542 47.5021 30.1434 47.32 30.2745 47.1771L31.212 46.1552C31.3888 45.969 31.6256 45.866 31.8714 45.8683C32.1172 45.8707 32.3524 45.9781 32.5262 46.1676C32.7 46.3571 32.7986 46.6134 32.8007 46.8814C32.8029 47.1493 32.7084 47.4075 32.5376 47.6002L31.6001 48.6221C31.5132 48.7172 31.4099 48.7925 31.2961 48.8439C31.1824 48.8953 31.0604 48.9217 30.9373 48.9216Z" fill="#CC261F"/>
<path d="M37.5001 49.9435C37.3993 49.9433 37.2993 49.9253 37.2038 49.8903L31.5788 47.8464C31.4577 47.808 31.345 47.7432 31.2475 47.6562C31.1499 47.5691 31.0694 47.4614 31.0109 47.3397C30.9524 47.2179 30.917 47.0845 30.9068 46.9475C30.8967 46.8105 30.912 46.6726 30.9519 46.5422C30.9918 46.4118 31.0554 46.2915 31.1389 46.1885C31.2225 46.0855 31.3242 46.002 31.438 45.9428C31.5519 45.8837 31.6755 45.8502 31.8015 45.8444C31.9275 45.8385 32.0533 45.8605 32.1713 45.9088L37.7963 47.9527C38.007 48.0298 38.1857 48.186 38.3006 48.3935C38.4154 48.6009 38.4589 48.846 38.4233 49.0852C38.3878 49.3243 38.2754 49.5419 38.1063 49.6991C37.9372 49.8563 37.7223 49.9429 37.5001 49.9435Z" fill="#CC261F"/>
<path d="M37.5008 49.9435C37.2894 49.9439 37.084 49.8664 36.9181 49.7236C36.7521 49.5808 36.6353 49.381 36.5867 49.1567C36.538 48.9323 36.5604 48.6967 36.6501 48.488C36.7398 48.2793 36.8916 48.1097 37.0808 48.0069L38.9558 46.985C39.1784 46.8638 39.4359 46.844 39.6719 46.9298C39.7887 46.9724 39.8967 47.0395 39.9897 47.1275C40.0827 47.2156 40.1589 47.3227 40.214 47.4428C40.269 47.5629 40.3018 47.6937 40.3105 47.8276C40.3191 47.9615 40.3035 48.096 40.2645 48.2233C40.2255 48.3507 40.1639 48.4684 40.0832 48.5698C40.0024 48.6712 39.9042 48.7542 39.794 48.8142L37.919 49.8362C37.7891 49.9067 37.646 49.9434 37.5008 49.9435Z" fill="#CC261F"/>
<path d="M41.25 48.9215H39.375C39.1264 48.9215 38.8879 48.8139 38.7121 48.6222C38.5363 48.4306 38.4375 48.1706 38.4375 47.8996C38.4375 47.6286 38.5363 47.3686 38.7121 47.177C38.8879 46.9853 39.1264 46.8777 39.375 46.8777H41.25C41.4986 46.8777 41.7371 46.9853 41.9129 47.177C42.0887 47.3686 42.1875 47.6286 42.1875 47.8996C42.1875 48.1706 42.0887 48.4306 41.9129 48.6222C41.7371 48.8139 41.4986 48.9215 41.25 48.9215Z" fill="#CC261F"/>
<path d="M41.2498 48.9215C41.1013 48.9214 40.955 48.8829 40.8229 48.809C40.6907 48.7352 40.5766 48.6282 40.4898 48.4969C40.403 48.3656 40.3461 48.2137 40.3237 48.0537C40.3013 47.8937 40.3141 47.7302 40.361 47.5767L41.2985 44.5108C41.3338 44.3789 41.3932 44.256 41.4731 44.1497C41.553 44.0433 41.6517 43.9556 41.7634 43.8918C41.8751 43.828 41.9975 43.7894 42.1232 43.7783C42.2489 43.7673 42.3754 43.784 42.495 43.8275C42.6146 43.871 42.725 43.9403 42.8195 44.0313C42.914 44.1224 42.9906 44.2333 43.0449 44.3574C43.0991 44.4815 43.1298 44.6162 43.1352 44.7536C43.1405 44.8909 43.1204 45.028 43.076 45.1567L42.1385 48.2225C42.0764 48.4259 41.9571 48.6029 41.7976 48.7283C41.6381 48.8538 41.4465 48.9214 41.2498 48.9215Z" fill="#CC261F"/>
<path d="M44.0625 45.8557H42.1875C41.9389 45.8557 41.7004 45.7481 41.5246 45.5564C41.3488 45.3647 41.25 45.1048 41.25 44.8338C41.25 44.5627 41.3488 44.3028 41.5246 44.1112C41.7004 43.9195 41.9389 43.8118 42.1875 43.8118H44.0625C44.3111 43.8118 44.5496 43.9195 44.7254 44.1112C44.9012 44.3028 45 44.5627 45 44.8338C45 45.1048 44.9012 45.3647 44.7254 45.5564C44.5496 45.7481 44.3111 45.8557 44.0625 45.8557Z" fill="#CC261F"/>
<path d="M45.9375 47.8996C45.8143 47.8998 45.6924 47.8734 45.5786 47.822C45.4649 47.7706 45.3616 47.6952 45.2746 47.6002L43.3996 45.5563C43.2289 45.3636 43.1344 45.1054 43.1365 44.8375C43.1386 44.5695 43.2372 44.3132 43.4111 44.1237C43.5849 43.9343 43.82 43.8268 44.0658 43.8244C44.3116 43.8221 44.5485 43.9251 44.7253 44.1113L46.6003 46.1552C46.7313 46.2981 46.8206 46.4802 46.8568 46.6784C46.8929 46.8766 46.8743 47.082 46.8034 47.2687C46.7325 47.4554 46.6123 47.615 46.4582 47.7273C46.3041 47.8396 46.1228 47.8996 45.9375 47.8996Z" fill="#CC261F"/>
<path d="M47.8115 48.9215C47.6664 48.9215 47.5232 48.8848 47.3933 48.8142L45.5183 47.7923C45.2958 47.6711 45.1265 47.4586 45.0478 47.2014C44.969 46.9442 44.9872 46.6634 45.0983 46.4208C45.2095 46.1783 45.4045 45.9938 45.6404 45.9079C45.8764 45.822 46.1339 45.8419 46.3565 45.963L48.2315 46.985C48.4206 47.0877 48.5724 47.2572 48.6621 47.4658C48.7518 47.6744 48.7743 47.91 48.7257 48.1342C48.6772 48.3585 48.5606 48.5583 48.3948 48.7012C48.229 48.8441 48.0228 48.9218 47.8115 48.9215Z" fill="#CC261F"/>
<path d="M47.8133 48.9215C47.6019 48.922 47.3965 48.8445 47.2306 48.7017C47.0646 48.5588 46.9478 48.359 46.8992 48.1347C46.8505 47.9104 46.8729 47.6748 46.9626 47.466C47.0523 47.2573 47.2041 47.0878 47.3933 46.985L49.2683 45.963C49.4909 45.8419 49.7484 45.822 49.9844 45.9079C50.1012 45.9504 50.2092 46.0176 50.3022 46.1056C50.3952 46.1936 50.4714 46.3007 50.5265 46.4208C50.5815 46.541 50.6143 46.6717 50.623 46.8056C50.6316 46.9396 50.616 47.074 50.577 47.2014C50.538 47.3287 50.4764 47.4465 50.3957 47.5479C50.3149 47.6492 50.2167 47.7323 50.1065 47.7923L48.2315 48.8142C48.1016 48.8848 47.9585 48.9215 47.8133 48.9215Z" fill="#CC261F"/>
<path d="M49.6875 49.9435C49.4389 49.9435 49.2004 49.8358 49.0246 49.6442C48.8488 49.4525 48.75 49.1926 48.75 48.9215V46.8777C48.75 46.6066 48.8488 46.3467 49.0246 46.155C49.2004 45.9634 49.4389 45.8557 49.6875 45.8557C49.9361 45.8557 50.1746 45.9634 50.3504 46.155C50.5262 46.3467 50.625 46.6066 50.625 46.8777V48.9215C50.625 49.1926 50.5262 49.4525 50.3504 49.6442C50.1746 49.8358 49.9361 49.9435 49.6875 49.9435Z" fill="#CC261F"/>
<path d="M48.749 52.0375C48.6066 52.0377 48.4661 52.002 48.3384 51.9332C48.115 51.8143 47.9441 51.6036 47.8633 51.3474C47.7824 51.0912 47.7982 50.8104 47.9072 50.5669L48.8447 48.4739C48.8971 48.3506 48.9715 48.2398 49.0637 48.1482C49.1558 48.0566 49.2638 47.986 49.3814 47.9404C49.4989 47.8949 49.6235 47.8754 49.7481 47.883C49.8726 47.8907 49.9945 47.9253 50.1066 47.9849C50.2186 48.0446 50.3187 48.128 50.4008 48.2303C50.483 48.3326 50.5456 48.4517 50.5849 48.5807C50.6243 48.7097 50.6397 48.846 50.6301 48.9816C50.6206 49.1171 50.5863 49.2492 50.5293 49.3702L49.5918 51.4631C49.5149 51.6354 49.3951 51.7807 49.2461 51.8822C49.0971 51.9838 48.9248 52.0376 48.749 52.0375Z" fill="#CC261F"/>
<path d="M52.499 54.0313C52.3566 54.0312 52.2161 53.9956 52.0884 53.927L48.3384 51.9342C48.1149 51.8152 47.9438 51.6043 47.863 51.3479C47.7821 51.0915 47.798 50.8105 47.9071 50.5669C48.0163 50.3232 48.2098 50.1368 48.445 50.0486C48.6802 49.9605 48.938 49.9778 49.1615 50.0968L52.9115 52.0916C53.1017 52.1932 53.2548 52.362 53.3457 52.5706C53.4367 52.7792 53.4601 53.0151 53.4123 53.2401C53.3645 53.4651 53.2481 53.6657 53.0823 53.8094C52.9164 53.953 52.7108 54.0313 52.499 54.0313Z" fill="#CC261F"/>
<path d="M52.5 53.9658C52.2514 53.9658 52.0129 53.8582 51.8371 53.6665C51.6613 53.4749 51.5625 53.2149 51.5625 52.9439V44.8338C51.5625 44.5627 51.6613 44.3028 51.8371 44.1112C52.0129 43.9195 52.2514 43.8118 52.5 43.8118C52.7486 43.8118 52.9871 43.9195 53.1629 44.1112C53.3387 44.3028 53.4375 44.5627 53.4375 44.8338V52.9439C53.4375 53.2149 53.3387 53.4749 53.1629 53.6665C52.9871 53.8582 52.7486 53.9658 52.5 53.9658Z" fill="#CC261F"/>
<path d="M52.5008 45.8557C52.3265 45.856 52.1555 45.8033 52.0071 45.7034C51.8587 45.6036 51.7388 45.4606 51.6608 45.2906L49.7858 41.2028C49.6747 40.9602 49.6565 40.6795 49.7353 40.4223C49.814 40.1651 49.9833 39.9525 50.2058 39.8314C50.4284 39.7102 50.6859 39.6904 50.9219 39.7762C51.1578 39.8621 51.3528 40.0466 51.464 40.2892L53.339 44.377C53.4104 44.5328 53.4441 44.706 53.4369 44.88C53.4297 45.054 53.3817 45.2232 53.2977 45.3713C53.2136 45.5195 53.0962 45.6418 52.9565 45.7266C52.8169 45.8113 52.6607 45.8558 52.5008 45.8557Z" fill="#CC261F"/>
<path d="M50.625 41.768H48.75C48.5014 41.768 48.2629 41.6603 48.0871 41.4686C47.9113 41.277 47.8125 41.017 47.8125 40.746C47.8125 40.475 47.9113 40.215 48.0871 40.0234C48.2629 39.8317 48.5014 39.7241 48.75 39.7241H50.625C50.8736 39.7241 51.1121 39.8317 51.2879 40.0234C51.4637 40.215 51.5625 40.475 51.5625 40.746C51.5625 41.017 51.4637 41.277 51.2879 41.4686C51.1121 41.6603 50.8736 41.768 50.625 41.768Z" fill="#CC261F"/>
<path d="M48.7509 41.7679C48.6086 41.7677 48.4682 41.7322 48.3403 41.664C48.2124 41.5959 48.1004 41.4969 48.0128 41.3746C47.9252 41.2523 47.8642 41.1099 47.8346 40.9582C47.8049 40.8064 47.8073 40.6493 47.8416 40.4987L48.7791 36.4109C48.8468 36.1573 49.0021 35.9421 49.2122 35.8105C49.4224 35.679 49.6711 35.6412 49.9062 35.7052C50.1413 35.7692 50.3446 35.9299 50.4734 36.1537C50.6021 36.3775 50.6464 36.6469 50.5969 36.9055L49.6594 40.9933C49.6089 41.2146 49.492 41.4111 49.3272 41.5515C49.1623 41.6918 48.9601 41.7681 48.7509 41.7679Z" fill="#CC261F"/>
<path d="M49.6883 37.6802C49.4769 37.6806 49.2715 37.6031 49.1056 37.4603C48.9396 37.3175 48.8228 37.1177 48.7742 36.8934C48.7255 36.669 48.7479 36.4334 48.8376 36.2247C48.9273 36.016 49.0791 35.8464 49.2683 35.7436L53.0183 33.6997C53.2409 33.5786 53.4984 33.5587 53.7344 33.6446C53.9703 33.7305 54.1653 33.915 54.2765 34.1575C54.3876 34.4001 54.4058 34.6809 54.327 34.9381C54.2483 35.1953 54.079 35.4078 53.8565 35.529L50.1065 37.5729C49.9766 37.6434 49.8335 37.6801 49.6883 37.6802Z" fill="#CC261F"/>
<path d="M53.4373 35.6363C53.2888 35.6362 53.1425 35.5976 53.0104 35.5238C52.8782 35.45 52.7641 35.343 52.6773 35.2117C52.5905 35.0804 52.5336 34.9285 52.5112 34.7685C52.4888 34.6085 52.5016 34.445 52.5485 34.2914L53.486 31.2256C53.5213 31.0936 53.5807 30.9708 53.6606 30.8644C53.7405 30.758 53.8392 30.6703 53.9509 30.6065C54.0626 30.5427 54.185 30.5042 54.3107 30.4931C54.4364 30.4821 54.5629 30.4988 54.6825 30.5422C54.8021 30.5857 54.9125 30.6551 55.007 30.7461C55.1015 30.8372 55.1781 30.948 55.2324 31.0721C55.2866 31.1962 55.3173 31.331 55.3227 31.4683C55.328 31.6057 55.3079 31.7428 55.2635 31.8715L54.326 34.9373C54.2639 35.1407 54.1446 35.3177 53.9851 35.4431C53.8256 35.5686 53.634 35.6361 53.4373 35.6363ZM58.1248 39.7241C58.0016 39.7242 57.8797 39.6978 57.766 39.6464C57.6522 39.5951 57.5489 39.5197 57.462 39.4246L54.6495 36.3588C54.4787 36.1661 54.3842 35.9079 54.3863 35.64C54.3885 35.372 54.4871 35.1157 54.6609 34.9262C54.8347 34.7368 55.0698 34.6293 55.3156 34.627C55.5615 34.6246 55.7983 34.7276 55.9751 34.9138L58.7876 37.9796C58.9187 38.1225 59.0079 38.3046 59.0441 38.5028C59.0802 38.701 59.0617 38.9065 58.9907 39.0932C58.9198 39.2799 58.7997 39.4395 58.6455 39.5518C58.4914 39.6641 58.3102 39.724 58.1248 39.7241Z" fill="#CC261F"/>
<path d="M55.3116 36.6582C55.1026 36.6581 54.8996 36.5818 54.735 36.4414C54.5704 36.3011 54.4535 36.1047 54.4031 35.8836L53.4656 31.7958C53.4119 31.5354 53.4537 31.2624 53.5822 31.0352C53.7107 30.808 53.9157 30.6446 54.1533 30.5799C54.3909 30.5153 54.6423 30.5546 54.8536 30.6894C55.065 30.8242 55.2196 31.0438 55.2844 31.3012L56.2219 35.389C56.2562 35.5397 56.2585 35.6969 56.2288 35.8487C56.1991 36.0006 56.1381 36.143 56.0504 36.2653C55.9626 36.3877 55.8505 36.4866 55.7225 36.5547C55.5945 36.6227 55.454 36.6582 55.3116 36.6582ZM31.875 41.768C31.6558 41.7681 31.4435 41.6846 31.275 41.5319C30.8006 41.1017 19.6875 30.872 19.6875 19.2852C19.6875 15.7618 20.9715 12.3826 23.2571 9.89116C25.5427 7.39969 28.6427 6 31.875 6C35.1073 6 38.2073 7.39969 40.4929 9.89116C42.7785 12.3826 44.0625 15.7618 44.0625 19.2852C44.0625 30.872 32.9484 41.1017 32.475 41.5319C32.3065 41.6846 32.0942 41.7681 31.875 41.768ZM31.875 8.04388C29.1409 8.04713 26.5196 9.23252 24.5863 11.34C22.6529 13.4474 21.5655 16.3048 21.5625 19.2852C21.5625 28.4561 29.5875 37.1038 31.875 39.3807C34.1606 37.1018 42.1875 28.4429 42.1875 19.2852C42.1845 16.3048 41.0971 13.4474 39.1637 11.34C37.2304 9.23252 34.6091 8.04713 31.875 8.04388Z" fill="#CC261F"/>
<path d="M31.875 26.4388C30.5771 26.4388 29.3083 26.0193 28.2291 25.2332C27.1499 24.4472 26.3087 23.33 25.812 22.0228C25.3153 20.7157 25.1854 19.2773 25.4386 17.8896C25.6918 16.502 26.3168 15.2273 27.2346 14.2269C28.1524 13.2264 29.3217 12.5451 30.5947 12.2691C31.8677 11.9931 33.1872 12.1347 34.3864 12.6762C35.5855 13.2176 36.6104 14.1345 37.3315 15.3109C38.0526 16.4873 38.4375 17.8704 38.4375 19.2852C38.4355 21.1818 37.7435 23.0001 36.5132 24.3412C35.2829 25.6823 33.6149 26.4367 31.875 26.4388ZM31.875 14.1755C30.9479 14.1755 30.0416 14.4752 29.2708 15.0367C28.4999 15.5981 27.8991 16.3962 27.5443 17.3298C27.1895 18.2635 27.0967 19.2909 27.2776 20.2821C27.4584 21.2733 27.9049 22.1837 28.5604 22.8984C29.216 23.613 30.0512 24.0996 30.9605 24.2968C31.8698 24.4939 32.8123 24.3927 33.6688 24.006C34.5254 23.6193 35.2574 22.9643 35.7725 22.124C36.2876 21.2838 36.5625 20.2958 36.5625 19.2852C36.561 17.9306 36.0667 16.6318 35.1879 15.6739C34.3092 14.716 33.1177 14.1772 31.875 14.1755Z" fill="#CC261F"/>
</g>
<defs>
<clipPath id="clip0_3001_5544">
<rect width="60" height="60" fill="white"/>
</clipPath>
</defs>
</svg>
