<svg width="64" height="45" viewBox="0 0 64 45" fill="none" xmlns="http://www.w3.org/2000/svg">
<g clip-path="url(#clip0_3002_8085)">
<path d="M1.29244 35.2065V38.0412H0V31.4667H4.43024C5.55399 31.4667 6.38978 32.2266 6.38978 33.3349C6.38978 34.4432 5.5557 35.2031 4.43024 35.2031L1.29244 35.2065ZM1.29244 32.6714V34.0043H4.43024C4.84175 34.0043 5.08541 33.7422 5.08541 33.3383C5.08541 32.9344 4.84175 32.6714 4.43024 32.6714H1.29244Z" fill="#1D1D1B"/>
<path d="M14.6139 38.0412H13.2056L12.1832 35.9476H9.14256L8.13127 38.0412H6.74512L9.92978 31.4667H11.4284L14.6139 38.0412ZM9.70486 34.7967H11.6346L10.6693 32.8064L9.70486 34.7967Z" fill="#1D1D1B"/>
<path d="M15.3159 32.8499C16.0094 31.9201 17.0778 31.3668 18.9419 31.3668C20.6459 31.3668 21.9579 31.7792 21.9579 33.1411C21.9579 33.6201 21.6861 34.0043 21.3019 34.2955C21.9673 34.6618 22.4452 35.2629 22.4452 35.9759C22.4452 37.4692 21.0114 38.1446 18.9794 38.1446C17.1622 38.1446 15.8126 37.412 15.1575 36.4736L16.225 35.7231C16.7217 36.4361 17.6674 36.9527 19.0544 36.9527C20.1781 36.9527 21.0497 36.7742 21.1153 35.928C21.1153 35.3654 20.628 35.0178 19.7658 35.0178H18.0235V33.8165H19.6346C20.2906 33.8165 20.6467 33.6107 20.6467 33.2444C20.6467 32.7185 19.897 32.5613 18.9326 32.5613C17.6955 32.5613 16.8623 32.9089 16.3937 33.6133L15.3159 32.8499Z" fill="#1D1D1B"/>
<path d="M31.2408 39.5995H29.9484V38.0413H24.4404V39.5995H23.1479V36.8399H23.4887C23.6527 36.8108 23.8024 36.728 23.9142 36.6043C24.026 36.4806 24.0936 36.3232 24.1064 36.1568C24.2564 34.9179 24.4625 32.674 24.4625 31.4727H30.2985V36.8425H31.2442L31.2408 39.5995ZM25.2361 36.8399H29.0018V32.6715H25.6953C25.6297 33.854 25.5079 35.291 25.3963 36.1824C25.3684 36.4071 25.3147 36.6277 25.2361 36.8399Z" fill="#1D1D1B"/>
<path d="M35.822 31.3761C38.1547 31.3761 39.7189 32.6056 39.7189 34.7556C39.7189 36.9056 38.1547 38.1351 35.822 38.1351C33.4893 38.1351 31.925 36.9056 31.925 34.7556C31.925 32.6056 33.4901 31.3761 35.822 31.3761ZM33.2465 34.7556C33.2465 36.1824 34.314 36.9431 35.822 36.9431C37.3299 36.9431 38.3983 36.1824 38.3983 34.7556C38.3983 33.3288 37.3308 32.5681 35.822 32.5681C34.3131 32.5681 33.2465 33.3288 33.2465 34.7556Z" fill="#1D1D1B"/>
<path d="M42.3984 35.2065V38.0412H41.106V31.4667H45.5362C46.6608 31.4667 47.4957 32.2266 47.4957 33.3349C47.4957 34.4432 46.6625 35.2031 45.5362 35.2031L42.3984 35.2065ZM42.3984 32.6714V34.0043H45.5362C45.9486 34.0043 46.1922 33.7422 46.1922 33.3383C46.1922 32.9344 45.9486 32.6714 45.5362 32.6714H42.3984Z" fill="#1D1D1B"/>
<path d="M51.9811 31.3761C54.3138 31.3761 55.8781 32.6056 55.8781 34.7556C55.8781 36.9056 54.3138 38.1351 51.9811 38.1351C49.6484 38.1351 48.0842 36.9056 48.0842 34.7556C48.0842 32.6056 49.6493 31.3761 51.9811 31.3761ZM49.4056 34.7556C49.4056 36.1824 50.4732 36.9431 51.9811 36.9431C53.4891 36.9431 54.5575 36.1824 54.5575 34.7556C54.5575 33.3288 53.49 32.5681 51.9811 32.5681C50.4723 32.5681 49.4056 33.3288 49.4056 34.7556Z" fill="#1D1D1B"/>
<path d="M57.2651 38.0412V31.4667H61.5369C62.6607 31.4667 63.4854 32.1045 63.4854 33.1376C63.4895 33.3442 63.4528 33.5495 63.3773 33.7418C63.3019 33.9341 63.1892 34.1095 63.0458 34.2579C63.3414 34.4374 63.585 34.6912 63.7526 34.9942C63.9201 35.2972 64.0057 35.6388 64.0008 35.9852C64.0008 37.1874 63.0551 38.0412 61.7908 38.0412H57.2651ZM58.5576 32.6714V33.8258H61.5395C61.905 33.8258 62.1853 33.638 62.1853 33.2538C62.1853 32.8695 61.905 32.6714 61.5395 32.6714H58.5576ZM58.5576 35.028V36.8399H61.7899C62.3139 36.8399 62.67 36.4984 62.67 35.9382C62.67 35.3781 62.3139 35.028 61.7899 35.028H58.5576Z" fill="#1D1D1B"/>
<path d="M7.37561 43.2658H6.97433V44.2486H6.83887V42.4462H6.97433V43.1292H7.3918C7.48722 42.681 7.88083 42.4257 8.43461 42.4257C9.06847 42.4257 9.49616 42.7621 9.49616 43.347C9.49616 43.9318 9.07018 44.2691 8.43461 44.2691C7.79904 44.2691 7.3722 43.9327 7.3722 43.347C7.37177 43.3199 7.37291 43.2928 7.37561 43.2658ZM8.43461 44.1325C8.98072 44.1325 9.35729 43.8644 9.35729 43.3504C9.35729 42.8364 8.98072 42.5682 8.43461 42.5682C7.88849 42.5682 7.51107 42.8372 7.51107 43.3504C7.51107 43.8635 7.88764 44.1325 8.43461 44.1325Z" fill="#1D1D1B"/>
<path d="M11.0918 44.2725C10.6539 44.2725 10.3114 44.0958 10.1546 43.7756V44.9974H10.0183V42.4462H10.1546V42.9252C10.3105 42.6058 10.653 42.4291 11.0918 42.4291C11.6924 42.4291 12.0997 42.7655 12.0997 43.3504C12.0997 43.9353 11.6924 44.2725 11.0918 44.2725ZM11.0679 44.1325C11.5945 44.1325 11.9608 43.8644 11.9608 43.3504C11.9608 42.8364 11.5945 42.5683 11.0679 42.5683C10.5414 42.5683 10.1589 42.8372 10.1589 43.3504C10.1589 43.8635 10.5389 44.1325 11.0679 44.1325Z" fill="#1D1D1B"/>
<path d="M12.7583 44.2486H12.6228V42.4462H12.7583V43.9899L14.4452 42.5478V42.4462H14.5815V44.2486H14.4452V42.7074L12.7583 44.1436V44.2486Z" fill="#1D1D1B"/>
<path d="M15.0059 44.1163H15.2061C15.3075 44.0582 15.3313 43.9088 15.3484 43.6774C15.3756 43.3504 15.3892 42.8645 15.3927 42.4462H17.1673V44.1163H17.5081V44.7891H17.3752V44.2486H15.1379V44.7891H15.0059V44.1163ZM15.3892 44.1163H17.0318V42.5794H15.5247C15.5247 42.9602 15.5051 43.4093 15.4804 43.7227C15.4806 43.8591 15.4494 43.9938 15.3892 44.1163Z" fill="#1D1D1B"/>
<path d="M17.9314 44.2486H17.7959V42.4462H17.9314V43.9899L19.6183 42.5478V42.4462H19.7537V44.2486H19.6183V42.7074L17.9314 44.1436V44.2486Z" fill="#1D1D1B"/>
<path d="M20.3452 42.7518C20.3452 43.1736 20.5454 43.306 20.9415 43.306C21.2505 43.3041 21.5581 43.2643 21.8574 43.1873V42.4462H21.9937V44.2486H21.8574V43.3094C21.5481 43.3905 21.2305 43.4352 20.9109 43.4426C20.4423 43.4426 20.2046 43.2488 20.2046 42.7723V42.4427H20.3409L20.3452 42.7518Z" fill="#1D1D1B"/>
<path d="M23.5723 42.4291C24.1968 42.4291 24.6211 42.7621 24.6245 43.3435V43.3504H22.6624C22.6624 43.8627 23.0492 44.1325 23.5996 44.1325C23.9898 44.1325 24.3025 44.0001 24.4516 43.7414L24.5674 43.8268C24.397 44.1163 24.0443 44.2759 23.603 44.2759C22.9615 44.2759 22.5244 43.9395 22.5244 43.3538C22.5244 42.7681 22.9444 42.4291 23.5723 42.4291ZM23.5723 42.5683C23.0773 42.5683 22.7272 42.7928 22.6667 43.218H24.4788C24.4209 42.7928 24.0648 42.5683 23.5723 42.5683Z" fill="#1D1D1B"/>
<path d="M27.0448 43.878C26.8651 44.1342 26.5337 44.2725 26.1179 44.2725C25.4764 44.2725 25.0393 43.9361 25.0393 43.3504C25.0393 42.7646 25.4696 42.4291 26.1111 42.4291C26.5251 42.4291 26.8514 42.5683 27.0312 42.8236L26.9188 42.9089C26.7628 42.6852 26.4749 42.5674 26.1111 42.5674C25.5582 42.5674 25.1739 42.8364 25.1739 43.3495C25.1739 43.8627 25.5607 44.1316 26.1111 44.1316C26.4749 44.1316 26.7697 44.0164 26.9256 43.7901L27.0448 43.878Z" fill="#1D1D1B"/>
<path d="M29.2405 43.7115C29.2609 43.9933 29.2984 44.147 29.5088 44.147C29.5785 44.1446 29.6473 44.1308 29.7125 44.106L29.6852 44.2384C29.6178 44.2575 29.5482 44.2678 29.4782 44.2691C29.2132 44.2691 29.1374 44.0983 29.1084 43.7568V43.7098C29.088 43.4272 28.9661 43.2915 28.7489 43.2915H27.6413V44.2503H27.5059V42.4496H27.6413V43.1566H28.6867C28.863 43.1497 28.9857 43.0951 29.0028 42.8748C29.0198 42.6229 29.111 42.4325 29.3623 42.4325C29.4242 42.4347 29.4856 42.4439 29.5455 42.4598L29.5659 42.5887C29.5111 42.5692 29.4537 42.5577 29.3955 42.5546C29.1953 42.5546 29.1681 42.6912 29.1399 42.9149C29.135 42.9732 29.1169 43.0296 29.0869 43.0797C29.057 43.1299 29.0159 43.1725 28.967 43.2044C29.1195 43.2658 29.2149 43.4153 29.2345 43.6672L29.2405 43.7115Z" fill="#1D1D1B"/>
<path d="M31.7667 43.7389C31.5903 44.0804 31.1856 44.2725 30.7247 44.2725C30.2638 44.2725 30.0525 44.0164 30.0525 43.7517C30.0525 43.1301 30.9854 43.0925 31.7564 43.1028C31.7189 42.6869 31.3722 42.5683 30.982 42.5683C30.6702 42.5683 30.3473 42.6912 30.1811 42.8577L30.1104 42.7382C30.3684 42.5379 30.6855 42.4291 31.0118 42.4291C31.5315 42.4291 31.9013 42.6297 31.9047 43.2112V43.7892C31.9047 44.0582 31.9762 44.1308 32.1219 44.1308C32.1871 44.1321 32.2519 44.1196 32.3119 44.0941L32.2812 44.2332C32.2186 44.2529 32.1535 44.2632 32.0878 44.264C31.8808 44.264 31.7692 44.1282 31.7692 43.808L31.7667 43.7389ZM31.7667 43.2317C31.1251 43.218 30.2016 43.2419 30.2016 43.7286C30.2016 44.0206 30.4768 44.1325 30.7554 44.1325C31.3015 44.1325 31.7667 43.8507 31.7667 43.3367V43.2317Z" fill="#1D1D1B"/>
<path d="M33.4329 42.4462H34.5524V44.2486H34.4195V43.5459H33.3205C33.1407 43.5459 33.0155 43.6108 32.9882 43.8285C32.9541 44.0941 32.8527 44.2708 32.6116 44.2708C32.5566 44.2699 32.5019 44.2619 32.4489 44.2469L32.4285 44.118C32.4768 44.1381 32.5286 44.1485 32.581 44.1487C32.771 44.1487 32.8187 44.0258 32.8527 43.7876C32.8581 43.723 32.8799 43.661 32.9162 43.6074C32.9525 43.5539 33.0019 43.5106 33.0598 43.4819C32.7982 43.3965 32.6619 43.2257 32.6619 42.9884C32.6619 42.6502 32.9269 42.4462 33.4329 42.4462ZM33.3989 43.4119H34.4212V42.5785H33.4329C32.9882 42.5785 32.7982 42.7177 32.7982 42.9935C32.7982 43.2693 32.978 43.4119 33.3972 43.4119H33.3989Z" fill="#1D1D1B"/>
<path d="M37.9842 43.7115C38.0047 43.9933 38.0422 44.147 38.2526 44.147C38.3222 44.1445 38.391 44.1307 38.4562 44.106L38.429 44.2384C38.3615 44.2574 38.292 44.2677 38.2219 44.2691C37.957 44.2691 37.8811 44.0983 37.8522 43.7568V43.7098C37.8317 43.4272 37.709 43.2915 37.4918 43.2915H36.3791V44.2503H36.2437V42.4496H36.3791V43.1566H37.4245C37.6008 43.1497 37.7227 43.0951 37.7397 42.8748C37.7568 42.6229 37.8488 42.4325 38.0992 42.4325C38.1614 42.4346 38.2231 42.4438 38.2833 42.4598L38.3037 42.5887C38.2489 42.5692 38.1915 42.5577 38.1333 42.5546C37.9331 42.5546 37.9058 42.6912 37.8777 42.9149C37.874 42.9724 37.8574 43.0283 37.8291 43.0784C37.8007 43.1286 37.7614 43.1716 37.7142 43.2044C37.8675 43.2658 37.9621 43.4153 37.9825 43.6672L37.9842 43.7115Z" fill="#1D1D1B"/>
<path d="M39.7972 44.2725C39.1557 44.2725 38.7246 43.9361 38.7246 43.3504C38.7246 42.7646 39.1557 42.4291 39.7972 42.4291C40.4388 42.4291 40.8699 42.7655 40.8699 43.3504C40.8699 43.9352 40.4388 44.2725 39.7972 44.2725ZM39.7972 44.1325C40.3502 44.1325 40.7301 43.8644 40.7301 43.3504C40.7301 42.8364 40.3502 42.5683 39.7972 42.5683C39.2443 42.5683 38.8601 42.8372 38.8601 43.3504C38.8601 43.8635 39.2435 44.1325 39.7972 44.1325Z" fill="#1D1D1B"/>
<path d="M41.5284 42.6297V44.252H41.3921V42.4462H41.5761L42.5848 44.1197L43.5961 42.4462H43.7725V44.2486H43.637V42.6263L42.6453 44.2486H42.5235L41.5284 42.6297Z" fill="#1D1D1B"/>
<path d="M46.215 42.5785H44.5622V44.2486H44.4268V42.4462H46.3514V44.2486H46.215V42.5785Z" fill="#1D1D1B"/>
<path d="M48.6595 43.7389C48.4831 44.0804 48.0793 44.2725 47.6175 44.2725C47.1557 44.2725 46.9453 44.0164 46.9453 43.7517C46.9453 43.1301 47.8825 43.0925 48.6493 43.1028C48.6118 42.6869 48.2659 42.5683 47.8757 42.5683C47.563 42.5683 47.2409 42.6912 47.074 42.8577L47.0032 42.7382C47.2596 42.5391 47.5744 42.4305 47.8987 42.4291C48.4184 42.4291 48.7881 42.6297 48.7915 43.2112V43.7892C48.7915 44.0582 48.8631 44.1308 49.0088 44.1308C49.074 44.1321 49.1387 44.1196 49.1988 44.0941L49.1681 44.2332C49.1055 44.253 49.0403 44.2633 48.9747 44.264C48.7677 44.264 48.6561 44.1282 48.6561 43.808L48.6595 43.7389ZM48.6595 43.2317C48.0179 43.218 47.0944 43.2419 47.0944 43.7286C47.0944 44.0206 47.3696 44.1325 47.6482 44.1325C48.1943 44.1325 48.6595 43.8507 48.6595 43.3367V43.2317Z" fill="#1D1D1B"/>
<path d="M51.3371 43.2659H49.6843V44.2486H49.5488V42.4462H49.6843V43.1292H51.3371V42.4462H51.4734V44.2486H51.3371V43.2659Z" fill="#1D1D1B"/>
<path d="M52.2675 44.2486H52.1321V42.4462H52.2675V43.9899L53.9544 42.5478V42.4462H54.0899V44.2486H53.9544V42.7074L52.2675 44.1436V44.2486Z" fill="#1D1D1B"/>
<path d="M55.5262 42.4462H56.6457V44.2486H56.5102V43.5459H55.4137C55.234 43.5459 55.1087 43.6108 55.0815 43.8285C55.0474 44.0941 54.9452 44.2708 54.7049 44.2708C54.6499 44.2699 54.5952 44.2619 54.5422 44.2469L54.5217 44.118C54.5701 44.1381 54.6219 44.1485 54.6742 44.1487C54.8642 44.1487 54.9119 44.0258 54.9452 43.7876C54.9505 43.723 54.9725 43.6609 55.009 43.6073C55.0454 43.5537 55.095 43.5105 55.153 43.4819C54.8915 43.3965 54.7552 43.2257 54.7552 42.9884C54.7552 42.6502 55.0201 42.4462 55.5262 42.4462ZM55.4921 43.4119H56.5102V42.5785H55.5262C55.0815 42.5785 54.8915 42.7177 54.8915 42.9935C54.8915 43.2693 55.0713 43.4119 55.4921 43.4119Z" fill="#1D1D1B"/>
<path d="M27.1344 11.0146C27.1761 10.9293 27.8373 11.2341 28.5069 11.0146C30.8234 10.2547 30.2262 8.07572 30.2339 7.01952C30.2466 5.17352 31.3039 4.01998 31.8475 3.3796C32.9686 2.0291 34.4562 1.0332 36.1304 0.512397C38.9001 -0.374744 41.4628 0.150369 41.4679 0.210137C41.4679 0.247706 39.3201 0.34419 37.6588 1.64459C36.9695 2.18422 36.3578 3.09612 36.3996 3.15504C36.4609 3.24042 37.4978 2.40536 38.7237 1.9255C41.4816 0.845395 44.2616 1.946 44.6023 2.08688C47.0083 3.0799 48.1806 4.94213 48.8315 5.9693C50.6266 8.8143 50.8175 11.9001 50.7365 11.9223C50.7007 11.9325 50.5943 11.3519 50.1879 10.4665C49.6088 9.2154 48.7855 8.09328 47.7666 7.16638C46.7595 6.2596 45.9101 5.86342 44.4141 5.16583C44.1704 5.05227 43.5911 4.8798 43.5911 4.8798C43.5911 4.8798 46.6471 6.90767 47.8415 9.69034C48.1636 10.4392 48.8383 12.1801 48.6705 14.8023C48.4745 17.8556 46.8686 19.8989 46.285 20.6255C44.426 22.9249 42.0524 23.9341 42.0251 23.8931C42.0055 23.8658 43.0475 23.3689 43.994 22.2435C45.5088 20.4445 45.6784 18.2791 45.8343 17.2605C46.2603 14.4565 45.3069 11.9479 45.3069 11.9479C45.3069 11.9479 45.278 12.8359 45.2532 13.799C45.1825 16.5774 43.5357 18.6497 43.0586 19.2346C41.7986 20.7537 40.1286 21.8769 38.2484 22.4698C34.8089 23.5303 31.4641 22.4578 31.4692 22.4049C31.4692 22.3759 32.4814 22.6414 33.922 22.4698C36.8256 22.1231 38.8072 20.3215 39.3133 19.8493C39.9889 19.2184 41.7099 17.5653 42.2833 14.8023C42.4392 14.0501 42.9197 11.5577 41.5736 9.17206C41.1612 8.44287 40.5188 7.30641 39.1523 6.81033C37.8743 6.34755 35.3108 6.63273 33.761 9.33429C32.9363 10.7722 32.1772 11.2657 31.6311 11.5662C31.4564 11.6627 30.1299 12.368 28.6611 11.9547C27.7563 11.6977 27.0875 11.1128 27.1344 11.0146Z" fill="#1D1D1B"/>
<path d="M36.351 12.8777C36.3093 12.9631 35.6473 12.6582 34.9785 12.8777C32.6611 13.6385 33.2592 15.8166 33.2515 16.8737C33.2379 18.7188 32.1815 19.8732 31.6379 20.5136C30.2824 22.1086 28.8017 22.9189 27.3551 23.3816C24.5853 24.2688 22.0226 23.7437 22.0175 23.6839C22.0175 23.6463 24.1653 23.5507 25.8266 22.2494C26.515 21.7107 27.1267 20.7979 27.0858 20.7399C27.0245 20.6545 25.9876 21.4895 24.7617 21.9694C22.003 23.0486 19.2281 21.9489 18.8831 21.8072C16.478 20.8141 15.3048 18.9519 14.6547 17.9247C12.8596 15.0806 12.6688 11.994 12.7497 11.9718C12.7855 11.9624 12.892 12.543 13.2984 13.4233C13.8772 14.6745 14.7005 15.7967 15.7197 16.7234C16.7267 17.6302 17.5753 18.0263 19.0722 18.7239C19.3159 18.8375 19.8952 19.01 19.8952 19.01C19.8952 19.01 16.8392 16.9821 15.6447 14.2003C15.3227 13.4506 14.6479 11.7096 14.8158 9.08834C15.0117 6.035 16.6177 3.99091 17.2013 3.26429C19.0662 0.969161 21.4398 -0.0400798 21.4697 5.07373e-05C21.4995 0.0401813 20.4473 0.525163 19.4999 1.65053C17.9851 3.44957 17.8155 5.61577 17.6596 6.63354C17.2285 9.43756 18.1862 11.9461 18.1862 11.9461C18.1862 11.9461 18.216 11.0581 18.2407 10.0959C18.3114 7.31747 19.9583 5.2452 20.4354 4.66032C21.6954 3.14121 23.3654 2.01802 25.2456 1.42511C28.685 0.364641 32.0298 1.43707 32.0247 1.48915C32.0247 1.51818 31.0126 1.25264 29.571 1.42511C26.6675 1.76665 24.6867 3.57252 24.1806 4.04555C23.505 4.67569 21.784 6.32872 21.2107 9.09261C21.0547 9.84399 20.5742 12.3372 21.9203 14.722C22.3327 15.4512 22.9751 16.5876 24.3416 17.0837C25.6196 17.5465 28.1832 17.2613 29.7329 14.5606C30.5576 13.1219 31.3167 12.6292 31.8628 12.3278C32.0375 12.2313 33.364 11.5269 34.8328 11.9393C35.7291 12.1912 36.3979 12.7803 36.351 12.8777Z" fill="#BE1622"/>
<path d="M31.7426 26.8764L23.3013 18.6795V6.61556H23.8491C25.6237 6.61556 26.9119 5.45178 26.9162 3.52551V3.04053H36.5494V3.52551C36.5494 5.45178 37.847 6.59934 39.6335 6.59934H40.1814V18.6795L40.1251 18.7333L31.7426 26.8764Z" fill="white" stroke="white" stroke-width="3" stroke-miterlimit="10"/>
<path d="M31.7426 26.8764L23.3013 18.6795V6.61556H23.8491C25.6237 6.61556 26.9119 5.45178 26.9162 3.52551V3.04053H36.5494V3.52551C36.5494 5.45178 37.847 6.59934 39.6335 6.59934H40.1814V18.6795L40.1251 18.7333L31.7426 26.8764ZM23.6753 18.5284L31.7426 26.3615L39.809 18.5284V6.96905H39.6387C37.6672 6.96905 36.1805 5.63194 36.1797 3.52551V3.41024H27.2876V3.52551C27.2876 5.66609 25.8393 6.98527 23.8491 6.98527H23.6787L23.6753 18.5284Z" fill="#1D1D1B"/>
<path d="M31.2723 8.50945C31.6666 8.50934 32.0571 8.58709 32.4214 8.73826C32.7857 8.88944 33.1167 9.11107 33.3955 9.3905C33.6744 9.66992 33.8955 10.0017 34.0463 10.3668C34.1972 10.7319 34.2748 11.1232 34.2747 11.5184C34.2747 11.9135 34.197 12.3048 34.0461 12.6699C33.8952 13.0349 33.6741 13.3666 33.3953 13.646C33.1165 13.9254 32.7855 14.1471 32.4213 14.2983C32.057 14.4495 31.6666 14.5273 31.2723 14.5273H26.0753V19.9415L27.7545 21.5946L30.9469 15.02H36.3058L34.7424 11.7916V11.6849C34.7627 11.0359 34.6268 10.3917 34.3462 9.80643L34.2747 9.64847H35.93L39.1377 16.2111V7.71538H38.8148C37.9709 7.71425 37.1619 7.37783 36.5651 6.77987C35.9683 6.1819 35.6324 5.37119 35.631 4.52543V4.2522H27.8448V4.52543C27.8435 5.37119 27.5076 6.1819 26.9108 6.77987C26.314 7.37783 25.5049 7.71425 24.661 7.71538H24.3381V8.50945H31.2723Z" fill="#BE1622"/>
<path d="M32.1499 11.5397V11.4646C32.1499 11.1928 32.0422 10.9322 31.8504 10.74C31.6587 10.5479 31.3986 10.4399 31.1275 10.4399H26.0762V12.5694H31.1249C31.2599 12.5698 31.3935 12.5433 31.5182 12.4917C31.6428 12.44 31.7561 12.3641 31.8513 12.2684C31.9466 12.1727 32.022 12.059 32.0733 11.934C32.1245 11.8089 32.1505 11.6749 32.1499 11.5397Z" fill="#BE1622"/>
<path d="M37.2089 16.8831H32.27L29.26 23.0768L31.7384 25.5162L38.273 19.0817L37.2089 16.8831Z" fill="#BE1622"/>
</g>
<defs>
<clipPath id="clip0_3002_8085">
<rect width="64" height="45" fill="white"/>
</clipPath>
</defs>
</svg>
