<svg width="267" height="43" viewBox="0 0 267 43" fill="none" xmlns="http://www.w3.org/2000/svg">
<path d="M21.455 16.3822C21.517 16.2552 22.4996 16.7086 23.4948 16.3822C26.9375 15.2521 26.0499 12.0115 26.0613 10.4408C26.0803 7.69545 27.6516 5.97994 28.4594 5.02759C30.1256 3.01917 32.3364 1.53809 34.8245 0.763569C38.9408 -0.555762 42.7494 0.22517 42.757 0.314057C42.757 0.369928 39.565 0.513417 37.096 2.44734C36.0716 3.24985 35.1625 4.60601 35.2246 4.69363C35.3157 4.82061 36.8567 3.57873 38.6787 2.8651C42.7773 1.25879 46.9088 2.89558 47.4152 3.1051C50.9909 4.58188 52.7332 7.35134 53.7005 8.87892C56.3683 13.1099 56.652 17.699 56.5317 17.732C56.4785 17.7473 56.3202 16.8838 55.7163 15.567C54.8557 13.7064 53.6321 12.0376 52.1178 10.6592C50.6212 9.31065 49.3588 8.72146 47.1354 7.68403C46.7733 7.51514 45.9123 7.25864 45.9123 7.25864C45.9123 7.25864 50.454 10.2744 52.2292 14.4127C52.7078 15.5264 53.7106 18.1155 53.4612 22.0151C53.17 26.5559 50.7833 29.5946 49.9159 30.6752C47.1532 34.0948 43.6256 35.5957 43.5851 35.5347C43.556 35.4941 45.1045 34.7551 46.5112 33.0815C48.7625 30.406 49.0144 27.1857 49.2461 25.6709C49.8792 21.5008 48.4624 17.7701 48.4624 17.7701C48.4624 17.7701 48.4193 19.0907 48.3826 20.5231C48.2775 24.655 45.83 27.7368 45.1209 28.6067C43.2484 30.8658 40.7665 32.5362 37.9722 33.418C32.8606 34.9951 27.8897 33.4002 27.8973 33.3215C27.8973 33.2783 29.4015 33.6732 31.5426 33.418C35.8577 32.9024 38.8028 30.2231 39.5549 29.5209C40.5589 28.5825 43.1166 26.1242 43.9687 22.0151C44.2004 20.8964 44.9146 17.1898 42.914 13.642C42.3012 12.5576 41.3465 10.8674 39.3156 10.1297C37.4163 9.44144 33.6064 9.86556 31.3032 13.8832C30.0776 16.0216 28.9494 16.7555 28.1378 17.2025C27.8783 17.346 25.9068 18.3949 23.724 17.7803C22.3793 17.3981 21.3853 16.5282 21.455 16.3822Z" fill="black"/>
<path d="M35.1522 19.153C35.0902 19.2799 34.1063 18.8266 33.1124 19.153C29.6684 20.2844 30.5573 23.5236 30.5459 25.0957C30.5256 27.8397 28.9556 29.5565 28.1478 30.5089C26.1333 32.8809 23.9327 34.0859 21.7827 34.7742C17.6664 36.0935 13.8578 35.3126 13.8502 35.2237C13.8502 35.1678 17.0422 35.0256 19.5112 33.0904C20.5343 32.2891 21.4434 30.9317 21.3826 30.8454C21.2914 30.7184 19.7505 31.9603 17.9285 32.6739C13.8286 34.2789 9.70473 32.6434 9.19194 32.4326C5.61754 30.9558 3.87403 28.1864 2.90794 26.6588C0.240121 22.4291 -0.0435012 17.8387 0.0767849 17.8057C0.129964 17.7917 0.288235 18.6552 0.892198 19.9644C1.75239 21.8252 2.97601 23.494 4.49065 24.8722C5.98726 26.2207 7.24837 26.8099 9.47303 27.8473C9.83515 28.0162 10.6961 28.2727 10.6961 28.2727C10.6961 28.2727 6.1544 25.2569 4.37923 21.1199C3.90062 20.005 2.89781 17.4159 3.14724 13.5176C3.43846 8.97672 5.82519 5.9368 6.69252 4.85619C9.46416 1.44294 12.9917 -0.0579717 13.036 0.00170931C13.0803 0.0613903 11.5166 0.782642 10.1086 2.45625C7.85739 5.13174 7.60543 8.35324 7.37372 9.86685C6.73304 14.0369 8.15621 17.7676 8.15621 17.7676C8.15621 17.7676 8.20053 16.447 8.23725 15.0159C8.34234 10.884 10.7898 7.80215 11.4989 6.93233C13.3715 4.67315 15.8534 3.00278 18.6477 2.12102C23.7592 0.543918 28.7302 2.1388 28.7226 2.21626C28.7226 2.25943 27.2184 1.86452 25.076 2.12102C20.7609 2.62894 17.8171 5.31459 17.065 6.01806C16.0609 6.95518 13.5032 9.41353 12.6511 13.5239C12.4194 14.6413 11.7053 18.3492 13.7058 21.8958C14.3187 22.9802 15.2733 24.6703 17.3043 25.408C19.2035 26.0963 23.0134 25.6722 25.3166 21.6558C26.5422 19.5161 27.6704 18.7835 28.482 18.3352C28.7416 18.1917 30.713 17.1441 32.8959 17.7574C34.2279 18.132 35.2218 19.0082 35.1522 19.153Z" fill="#841811"/>
<path d="M28.3037 39.9714L15.7585 27.7813V9.84013H16.5727C19.2101 9.84013 21.1246 8.10938 21.1309 5.24469V4.52344H35.4475V5.24469C35.4475 8.10938 37.3758 9.816 40.031 9.816H40.8452V27.7813L40.7616 27.8613L28.3037 39.9714Z" fill="white" stroke="white" stroke-width="3" stroke-miterlimit="10"/>
<path d="M28.3037 39.9714L15.7585 27.7813V9.84013H16.5727C19.2101 9.84013 21.1246 8.10938 21.1309 5.24469V4.52344H35.4475V5.24469C35.4475 8.10938 37.3758 9.816 40.031 9.816H40.8452V27.7813L40.7616 27.8613L28.3037 39.9714ZM16.3144 27.5565L28.3037 39.2057L40.2918 27.5565V10.3658H40.0386C37.1087 10.3658 34.8992 8.37731 34.898 5.24469V5.07326H21.683V5.24469C21.683 8.4281 19.5305 10.39 16.5727 10.39H16.3195L16.3144 27.5565Z" fill="black"/>
<path d="M27.6048 12.6566C28.1908 12.6564 28.7711 12.772 29.3125 12.9969C29.8539 13.2217 30.3459 13.5513 30.7603 13.9669C31.1746 14.3824 31.5033 14.8758 31.7275 15.4188C31.9516 15.9617 32.0669 16.5437 32.0668 17.1314C32.0668 17.719 31.9514 18.3009 31.7271 18.8438C31.5029 19.3867 31.1742 19.88 30.7599 20.2956C30.3456 20.7111 29.8537 21.0407 29.3123 21.2656C28.771 21.4905 28.1907 21.6062 27.6048 21.6062H19.8812V29.6581L22.3768 32.1164L27.1211 22.3389H35.0853L32.7619 17.5377V17.379C32.792 16.4139 32.5901 15.4557 32.1731 14.5854L32.0668 14.3505H34.5269L39.2941 24.1103V11.4757H38.8142C37.56 11.474 36.3576 10.9737 35.4707 10.0844C34.5837 9.19512 34.0845 7.98945 34.0825 6.73166V6.32532H22.511V6.73166C22.509 7.98945 22.0098 9.19512 21.1228 10.0844C20.2359 10.9737 19.0335 11.474 17.7793 11.4757H17.2994V12.6566H27.6048Z" fill="#841811"/>
<path d="M28.909 17.1633V17.0515C28.909 16.6474 28.7489 16.2598 28.4639 15.974C28.179 15.6883 27.7925 15.5277 27.3896 15.5277H19.8824V18.6947H27.3858C27.5863 18.6952 27.7849 18.6559 27.9701 18.5791C28.1554 18.5022 28.3237 18.3894 28.4653 18.247C28.6069 18.1047 28.719 17.9356 28.7951 17.7496C28.8713 17.5636 28.91 17.3643 28.909 17.1633Z" fill="#841811"/>
<path d="M36.4275 25.1096H29.0875L24.6141 34.3208L28.2974 37.9487L38.0089 28.3794L36.4275 25.1096Z" fill="#841811"/>
<path d="M72.0186 11.66V20.2682H68V0.303467H81.7751C85.2692 0.303467 87.8679 2.61108 87.8679 5.97656C87.8679 9.34205 85.2745 11.6497 81.7751 11.6497L72.0186 11.66ZM72.0186 3.96194V8.00934H81.7751C83.0546 8.00934 83.8122 7.21334 83.8122 5.98694C83.8122 4.76053 83.0546 3.96194 81.7751 3.96194H72.0186Z" fill="black"/>
<path d="M113.439 20.2682H109.06L105.881 13.9106H96.427L93.2825 20.2682H88.9725L98.8747 0.303467H103.534L113.439 20.2682ZM98.1753 10.4155H104.175L101.174 4.37161L98.1753 10.4155Z" fill="black"/>
<path d="M115.622 4.50374C117.778 1.68016 121.1 0 126.896 0C132.194 0 136.274 1.25234 136.274 5.38789C136.274 6.84247 135.429 8.00923 134.234 8.89339C136.303 10.0057 137.789 11.8311 137.789 13.9961C137.789 18.5309 133.331 20.5818 127.013 20.5818C121.362 20.5818 117.166 18.3572 115.129 15.5077L118.449 13.2286C119.993 15.3936 122.933 16.9623 127.246 16.9623C130.74 16.9623 133.45 16.4204 133.654 13.8509C133.654 12.1422 132.139 11.0869 129.458 11.0869H124.041V7.43881H129.05C131.09 7.43881 132.197 6.81394 132.197 5.70162C132.197 4.10444 129.866 3.62736 126.867 3.62736C123.021 3.62736 120.43 4.68265 118.973 6.82172L115.622 4.50374Z" fill="black"/>
<path d="M165.138 25H161.119V20.2681H143.993V25H139.975V16.62H141.034C141.544 16.5318 142.01 16.2801 142.357 15.9046C142.705 15.5291 142.915 15.051 142.955 14.5458C143.421 10.7836 144.062 3.96963 144.062 0.321533H162.208V16.6278H165.149L165.138 25ZM146.468 16.62H158.176V3.96186H147.895C147.691 7.55292 147.313 11.9166 146.966 14.6235C146.879 15.3056 146.712 15.9756 146.468 16.62Z" fill="black"/>
<path d="M179.382 0.0285645C186.635 0.0285645 191.499 3.76223 191.499 10.291C191.499 16.8197 186.635 20.5533 179.382 20.5533C172.129 20.5533 167.265 16.8197 167.265 10.291C167.265 3.76223 172.132 0.0285645 179.382 0.0285645ZM171.374 10.291C171.374 14.6236 174.693 16.9338 179.382 16.9338C184.071 16.9338 187.393 14.6236 187.393 10.291C187.393 5.95835 184.073 3.64814 179.382 3.64814C174.691 3.64814 171.374 5.95835 171.374 10.291Z" fill="black"/>
<path d="M199.83 11.66V20.2682H195.811V0.303467H209.586C213.083 0.303467 215.679 2.61108 215.679 5.97656C215.679 9.34205 213.089 11.6497 209.586 11.6497L199.83 11.66ZM199.83 3.96194V8.00934H209.586C210.869 8.00934 211.626 7.21334 211.626 5.98694C211.626 4.76053 210.869 3.96194 209.586 3.96194H199.83Z" fill="black"/>
<path d="M229.627 0.0285645C236.88 0.0285645 241.743 3.76223 241.743 10.291C241.743 16.8197 236.88 20.5533 229.627 20.5533C222.374 20.5533 217.51 16.8197 217.51 10.291C217.51 3.76223 222.376 0.0285645 229.627 0.0285645ZM221.619 10.291C221.619 14.6236 224.938 16.9338 229.627 16.9338C234.315 16.9338 237.637 14.6236 237.637 10.291C237.637 5.95835 234.318 3.64814 229.627 3.64814C224.935 3.64814 221.619 5.95835 221.619 10.291Z" fill="black"/>
<path d="M246.056 20.2682V0.303467H259.338C262.832 0.303467 265.397 2.24031 265.397 5.37762C265.41 6.00489 265.295 6.62843 265.061 7.21229C264.826 7.79614 264.476 8.32876 264.03 8.7794C264.949 9.32447 265.707 10.0953 266.228 11.0154C266.748 11.9355 267.015 12.9729 266.999 14.0247C266.999 17.6754 264.059 20.2682 260.128 20.2682H246.056ZM250.075 3.96194V7.46744H259.346C260.483 7.46744 261.354 6.89701 261.354 5.73024C261.354 4.56347 260.483 3.96194 259.346 3.96194H250.075ZM250.075 11.1181V16.6201H260.125C261.754 16.6201 262.862 15.583 262.862 13.8821C262.862 12.1812 261.754 11.1181 260.125 11.1181H250.075Z" fill="black"/>
<path d="M69.6703 34.6136H68.4216V37.6707H68V32.0637H68.4216V34.1886H69.7207C70.0177 32.7942 71.2426 32 72.966 32C74.9386 32 76.2695 33.0465 76.2695 34.8659C76.2695 36.6853 74.9439 37.7344 72.966 37.7344C70.9881 37.7344 69.6597 36.6879 69.6597 34.8659C69.6584 34.7816 69.6619 34.6974 69.6703 34.6136ZM72.966 37.3095C74.6655 37.3095 75.8374 36.4755 75.8374 34.8765C75.8374 33.2776 74.6655 32.4436 72.966 32.4436C71.2665 32.4436 70.0919 33.2802 70.0919 34.8765C70.0919 36.4728 71.2638 37.3095 72.966 37.3095Z" fill="black"/>
<path d="M81.2355 37.7449C79.8727 37.7449 78.8068 37.1951 78.319 36.1991V39.9999H77.8948V32.0636H78.319V33.5537C78.8042 32.5603 79.87 32.0105 81.2355 32.0105C83.1047 32.0105 84.372 33.057 84.372 34.8764C84.372 36.6958 83.1047 37.7449 81.2355 37.7449ZM81.1612 37.3093C82.7998 37.3093 83.9398 36.4753 83.9398 34.8764C83.9398 33.2774 82.7998 32.4434 81.1612 32.4434C79.5227 32.4434 78.3322 33.2801 78.3322 34.8764C78.3322 36.4727 79.5147 37.3093 81.1612 37.3093Z" fill="black"/>
<path d="M86.4214 37.6704H85.9999V32.0635H86.4214V36.8656L91.6711 32.3795V32.0635H92.0953V37.6704H91.6711V32.8762L86.4214 37.3437V37.6704Z" fill="black"/>
<path d="M93.4158 37.2587H94.0388C94.3543 37.0781 94.4286 36.6133 94.4816 35.8935C94.5665 34.8762 94.6089 33.3649 94.6195 32.0635H100.142V37.2587H101.203V39.3517H100.789V37.6704H93.8267V39.3517H93.4158V37.2587ZM94.6089 37.2587H99.7207V32.4778H95.0304C95.0304 33.6624 94.9695 35.0595 94.8926 36.0343C94.8933 36.4589 94.7962 36.8779 94.6089 37.2587Z" fill="black"/>
<path d="M102.52 37.6704H102.099V32.0635H102.52V36.8656L107.77 32.3795V32.0635H108.192V37.6704H107.77V32.8762L102.52 37.3437V37.6704Z" fill="black"/>
<path d="M110.032 33.0145C110.032 34.3266 110.655 34.7383 111.888 34.7383C112.849 34.7325 113.806 34.6085 114.738 34.3691V32.0636H115.162V37.6705H114.738V34.7489C113.775 35.0011 112.787 35.1401 111.792 35.1632C110.334 35.1632 109.594 34.5603 109.594 33.0782V32.053H110.018L110.032 33.0145Z" fill="black"/>
<path d="M120.075 32.0105C122.018 32.0105 123.339 33.0464 123.349 34.8551V34.8764H117.243C117.243 36.47 118.447 37.3093 120.16 37.3093C121.374 37.3093 122.347 36.8976 122.811 36.0929L123.172 36.3585C122.641 37.2589 121.544 37.7556 120.17 37.7556C118.174 37.7556 116.814 36.7091 116.814 34.887C116.814 33.065 118.121 32.0105 120.075 32.0105ZM120.075 32.4434C118.535 32.4434 117.445 33.142 117.257 34.4647H122.896C122.716 33.142 121.607 32.4434 120.075 32.4434Z" fill="black"/>
<path d="M130.882 36.5178C130.322 37.3147 129.291 37.7449 127.997 37.7449C126.001 37.7449 124.641 36.6984 124.641 34.8764C124.641 33.0543 125.979 32.0105 127.976 32.0105C129.264 32.0105 130.28 32.4434 130.839 33.2376L130.489 33.5032C130.004 32.8073 129.108 32.4408 127.976 32.4408C126.255 32.4408 125.059 33.2774 125.059 34.8737C125.059 36.47 126.263 37.3067 127.976 37.3067C129.108 37.3067 130.025 36.9481 130.511 36.2443L130.882 36.5178Z" fill="black"/>
<path d="M137.714 35.9999C137.778 36.8764 137.895 37.3545 138.55 37.3545C138.766 37.347 138.98 37.304 139.183 37.227L139.098 37.6387C138.889 37.6982 138.672 37.7303 138.454 37.7343C137.63 37.7343 137.394 37.2031 137.303 36.1407V35.9946C137.24 35.1154 136.861 34.6931 136.185 34.6931H132.738V37.6759H132.316V32.0742H132.738V34.2735H135.991C136.54 34.2522 136.922 34.0822 136.975 33.397C137.028 32.6134 137.311 32.0211 138.094 32.0211C138.286 32.028 138.477 32.0565 138.664 32.1061L138.727 32.5072C138.556 32.4464 138.378 32.4106 138.197 32.4009C137.574 32.4009 137.489 32.8259 137.402 33.5218C137.386 33.7031 137.33 33.8784 137.237 34.0345C137.143 34.1906 137.016 34.3232 136.863 34.4222C137.338 34.6134 137.635 35.0782 137.696 35.8618L137.714 35.9999Z" fill="black"/>
<path d="M145.576 36.0849C145.027 37.1473 143.767 37.7449 142.333 37.7449C140.899 37.7449 140.241 36.9481 140.241 36.1247C140.241 34.1911 143.144 34.0743 145.544 34.1061C145.427 32.8126 144.348 32.4434 143.134 32.4434C142.163 32.4434 141.158 32.8259 140.641 33.3438L140.421 32.972C141.224 32.3489 142.211 32.0107 143.227 32.0105C144.844 32.0105 145.995 32.6347 146.005 34.4434V36.2416C146.005 37.0783 146.228 37.304 146.681 37.304C146.884 37.3083 147.086 37.2694 147.272 37.1898L147.177 37.6227C146.982 37.6838 146.779 37.716 146.575 37.7184C145.931 37.7184 145.584 37.2961 145.584 36.3L145.576 36.0849ZM145.576 34.5072C143.579 34.4647 140.705 34.5391 140.705 36.053C140.705 36.9614 141.561 37.3093 142.428 37.3093C144.128 37.3093 145.576 36.4328 145.576 34.8339V34.5072Z" fill="black"/>
<path d="M150.762 32.0635H154.245V37.6704H153.832V35.4845H150.412C149.852 35.4845 149.462 35.6863 149.378 36.3636C149.271 37.1897 148.956 37.7395 148.206 37.7395C148.034 37.7366 147.864 37.7116 147.699 37.6651L147.636 37.264C147.786 37.3265 147.947 37.359 148.11 37.3597C148.701 37.3597 148.85 36.9772 148.956 36.2362C148.973 36.0355 149.041 35.8425 149.153 35.6759C149.266 35.5093 149.42 35.3747 149.6 35.2853C148.786 35.0197 148.362 34.4885 148.362 33.7501C148.362 32.6983 149.187 32.0635 150.762 32.0635ZM150.655 35.0675H153.837V32.4752H150.762C149.378 32.4752 148.786 32.9081 148.786 33.766C148.786 34.6239 149.346 35.0675 150.65 35.0675H150.655Z" fill="black"/>
<path d="M164.925 35.9999C164.989 36.8764 165.105 37.3545 165.76 37.3545C165.977 37.3468 166.191 37.3037 166.394 37.227L166.309 37.6387C166.099 37.698 165.883 37.7301 165.665 37.7343C164.84 37.7343 164.604 37.2031 164.514 36.1407V35.9946C164.451 35.1154 164.069 34.6931 163.393 34.6931H159.93V37.6759H159.508V32.0742H159.93V34.2735H163.183C163.732 34.2522 164.111 34.0822 164.164 33.397C164.217 32.6134 164.504 32.0211 165.283 32.0211C165.477 32.0278 165.669 32.0563 165.856 32.1061L165.919 32.5072C165.749 32.4464 165.57 32.4106 165.389 32.4009C164.766 32.4009 164.681 32.8259 164.594 33.5218C164.582 33.7006 164.53 33.8745 164.442 34.0305C164.354 34.1864 164.232 34.3203 164.085 34.4222C164.562 34.6134 164.856 35.0782 164.92 35.8618L164.925 35.9999Z" fill="black"/>
<path d="M170.567 37.7449C168.571 37.7449 167.229 36.6984 167.229 34.8764C167.229 33.0543 168.571 32.0105 170.567 32.0105C172.563 32.0105 173.905 33.057 173.905 34.8764C173.905 36.6958 172.563 37.7449 170.567 37.7449ZM170.567 37.3093C172.288 37.3093 173.47 36.4753 173.47 34.8764C173.47 33.2774 172.288 32.4434 170.567 32.4434C168.846 32.4434 167.651 33.2801 167.651 34.8764C167.651 36.4727 168.844 37.3093 170.567 37.3093Z" fill="black"/>
<path d="M175.955 32.6345V37.6811H175.53V32.0635H176.103L179.242 37.2693L182.389 32.0635H182.938V37.6704H182.517V32.6239L179.431 37.6704H179.051L175.955 32.6345Z" fill="black"/>
<path d="M190.54 32.4752H185.396V37.6704H184.974V32.0635H190.964V37.6704H190.54V32.4752Z" fill="black"/>
<path d="M198.146 36.0849C197.597 37.1473 196.341 37.7449 194.904 37.7449C193.467 37.7449 192.812 36.9481 192.812 36.1247C192.812 34.1911 195.728 34.0743 198.114 34.1061C197.998 32.8126 196.921 32.4434 195.707 32.4434C194.734 32.4434 193.732 32.8259 193.212 33.3438L192.992 32.972C193.79 32.3528 194.769 32.0148 195.779 32.0105C197.396 32.0105 198.547 32.6347 198.557 34.4434V36.2416C198.557 37.0783 198.78 37.304 199.233 37.304C199.436 37.3083 199.638 37.2694 199.825 37.1898L199.729 37.6227C199.534 37.6841 199.331 37.7163 199.127 37.7184C198.483 37.7184 198.136 37.2961 198.136 36.3L198.146 36.0849ZM198.146 34.5072C196.15 34.4647 193.276 34.5391 193.276 36.053C193.276 36.9614 194.132 37.3093 194.999 37.3093C196.699 37.3093 198.146 36.4328 198.146 34.8339V34.5072Z" fill="black"/>
<path d="M206.479 34.6133H201.336V37.6704H200.914V32.0635H201.336V34.1883H206.479V32.0635H206.904V37.6704H206.479V34.6133Z" fill="black"/>
<path d="M209.375 37.6704H208.953V32.0635H209.375V36.8656L214.624 32.3795V32.0635H215.046V37.6704H214.624V32.8762L209.375 37.3437V37.6704Z" fill="black"/>
<path d="M219.516 32.0635H223V37.6704H222.578V35.4845H219.166C218.607 35.4845 218.217 35.6863 218.132 36.3636C218.026 37.1897 217.708 37.7395 216.96 37.7395C216.789 37.7366 216.619 37.7116 216.454 37.6651L216.39 37.264C216.541 37.3265 216.702 37.359 216.865 37.3597C217.456 37.3597 217.604 36.9772 217.708 36.2362C217.725 36.0352 217.793 35.842 217.906 35.6754C218.02 35.5088 218.174 35.3744 218.355 35.2853C217.541 35.0197 217.117 34.4885 217.117 33.7501C217.117 32.6983 217.941 32.0635 219.516 32.0635ZM219.41 35.0675H222.578V32.4752H219.516C218.132 32.4752 217.541 32.9081 217.541 33.766C217.541 34.6239 218.1 35.0675 219.41 35.0675Z" fill="black"/>
</svg>
